<?xml version="1.0" encoding="UTF-8" standalone="no"?>
<svg
   id="svg4113"
   height="128"
   width="128"
   version="1.1"
   xmlns:xlink="http://www.w3.org/1999/xlink"
   xmlns="http://www.w3.org/2000/svg"
   xmlns:svg="http://www.w3.org/2000/svg"
   xmlns:rdf="http://www.w3.org/1999/02/22-rdf-syntax-ns#"
   xmlns:cc="http://creativecommons.org/ns#"
   xmlns:dc="http://purl.org/dc/elements/1.1/">
  <defs
     id="defs4115">
    <linearGradient
       gradientTransform="matrix(2.7297298,0,0,2.7297298,-1.5135184,1.488321)"
       gradientUnits="userSpaceOnUse"
       xlink:href="#linearGradient3924"
       id="linearGradient4136"
       y2="43"
       x2="23.99999"
       y1="4.999989"
       x1="23.99999" />
    <linearGradient
       id="linearGradient3924">
      <stop
         offset="0"
         style="stop-color:#ffffff;stop-opacity:1"
         id="stop3926" />
      <stop
         offset="0.06316455"
         style="stop-color:#ffffff;stop-opacity:0.23529412"
         id="stop3928" />
      <stop
         offset="0.95056331"
         style="stop-color:#ffffff;stop-opacity:0.15686275"
         id="stop3930" />
      <stop
         offset="1"
         style="stop-color:#ffffff;stop-opacity:0.39215687"
         id="stop3932" />
    </linearGradient>
    <radialGradient
       gradientTransform="matrix(2.003784,0,0,1.4,27.98813,-17.4)"
       gradientUnits="userSpaceOnUse"
       xlink:href="#linearGradient3688-166-749-5"
       id="radialGradient4093"
       fy="43.5"
       fx="4.9929786"
       r="2.5"
       cy="43.5"
       cx="4.9929786" />
    <linearGradient
       id="linearGradient3688-166-749-5">
      <stop
         offset="0"
         style="stop-color:#181818;stop-opacity:1"
         id="stop2883-0" />
      <stop
         offset="1"
         style="stop-color:#181818;stop-opacity:0"
         id="stop2885-5" />
    </linearGradient>
    <radialGradient
       gradientTransform="matrix(2.003784,0,0,1.4,-20.01187,-104.4)"
       gradientUnits="userSpaceOnUse"
       xlink:href="#linearGradient3688-464-309-8"
       id="radialGradient4095"
       fy="43.5"
       fx="4.9929786"
       r="2.5"
       cy="43.5"
       cx="4.9929786" />
    <linearGradient
       id="linearGradient3688-464-309-8">
      <stop
         offset="0"
         style="stop-color:#181818;stop-opacity:1"
         id="stop2889-9" />
      <stop
         offset="1"
         style="stop-color:#181818;stop-opacity:0"
         id="stop2891-4" />
    </linearGradient>
    <linearGradient
       gradientUnits="userSpaceOnUse"
       xlink:href="#linearGradient3702-501-757-0"
       id="linearGradient4097"
       y2="39.999443"
       x2="25.058096"
       y1="47.027729"
       x1="25.058096" />
    <linearGradient
       id="linearGradient3702-501-757-0">
      <stop
         offset="0"
         style="stop-color:#181818;stop-opacity:0"
         id="stop2895-0" />
      <stop
         offset="0.5"
         style="stop-color:#181818;stop-opacity:1"
         id="stop2897-2" />
      <stop
         offset="1"
         style="stop-color:#181818;stop-opacity:0"
         id="stop2899-6" />
    </linearGradient>
    <linearGradient
       id="linearGradient3811">
      <stop
         offset="0"
         style="stop-color:#000000;stop-opacity:1"
         id="stop3813" />
      <stop
         offset="1"
         style="stop-color:#000000;stop-opacity:0"
         id="stop3815" />
    </linearGradient>
    <radialGradient
       gradientTransform="matrix(1.5563924,0,0,0.16978827,70.270355,102.1321)"
       gradientUnits="userSpaceOnUse"
       xlink:href="#linearGradient3811"
       id="radialGradient4111"
       fy="93.467628"
       fx="-4.0287771"
       r="35.338131"
       cy="93.467628"
       cx="-4.0287771" />
    <linearGradient
       id="linearGradient149777">
      <stop
         style="stop-color:#fafafa;stop-opacity:1"
         offset="0"
         id="stop149769" />
      <stop
         style="stop-color:#abacae;stop-opacity:1"
         offset="0.42301154"
         id="stop149771" />
      <stop
         style="stop-color:#d4d4d4;stop-opacity:1"
         offset="0.7009123"
         id="stop149773" />
      <stop
         style="stop-color:#7e8087;stop-opacity:1"
         offset="1"
         id="stop149775" />
    </linearGradient>
    <linearGradient
       id="linearGradient55160">
      <stop
         style="stop-color:#4d4d4d;stop-opacity:1"
         offset="0"
         id="stop55156" />
      <stop
         style="stop-color:#1a1a1a;stop-opacity:1"
         offset="1"
         id="stop55158" />
    </linearGradient>
    <linearGradient
       xlink:href="#linearGradient55160"
       id="linearGradient1"
       gradientUnits="userSpaceOnUse"
       gradientTransform="matrix(0.69230783,0,0,0.69230789,-196.6154,-97.30769)"
       x1="375.33371"
       y1="164.04776"
       x2="375.33371"
       y2="310.67001" />
    <linearGradient
       xlink:href="#linearGradient149777"
       id="linearGradient2"
       gradientUnits="userSpaceOnUse"
       gradientTransform="matrix(1.8499999,0,0,1.8499999,-95.099996,-283.49999)"
       x1="74.881271"
       y1="172.83885"
       x2="97.295143"
       y2="207.14944"
       spreadMethod="reflect" />
    <linearGradient
       xlink:href="#linearGradient149777"
       id="linearGradient4"
       gradientUnits="userSpaceOnUse"
       gradientTransform="matrix(-1.8545451,0,0,-1.8545451,169.70907,464.87445)"
       x1="74.881271"
       y1="172.83885"
       x2="97.295143"
       y2="207.14944"
       spreadMethod="reflect" />
    <linearGradient
       xlink:href="#linearGradient149777"
       id="linearGradient5"
       gradientUnits="userSpaceOnUse"
       gradientTransform="matrix(-1.8545451,0,0,-1.8545451,277.70907,464.87445)"
       x1="74.881271"
       y1="172.83885"
       x2="97.295143"
       y2="207.14944"
       spreadMethod="reflect" />
  </defs>
  <metadata
     id="metadata4118">
    <rdf:RDF>
      <cc:Work
         rdf:about="">
        <dc:format>image/svg+xml</dc:format>
        <dc:type
           rdf:resource="http://purl.org/dc/dcmitype/StillImage" />
      </cc:Work>
    </rdf:RDF>
  </metadata>
  <path
     d="m 119,118.00181 a 55,6 0 0 1 -109.9999982,0 55,6 0 1 1 109.9999982,0 z"
     id="path3041"
     style="color:#000000;display:inline;overflow:visible;visibility:visible;opacity:0.2;fill:url(#radialGradient4111);fill-opacity:1;fill-rule:nonzero;stroke:none;stroke-width:1;marker:none;enable-background:accumulate" />
  <g
     transform="matrix(2.6999989,0,0,0.55555607,-0.80000812,94.890691)"
     id="g2036"
     style="display:inline">
    <g
       transform="matrix(1.052632,0,0,1.285713,-1.263158,-13.42854)"
       id="g3712"
       style="opacity:0.4">
      <rect
         width="5"
         height="7"
         x="38"
         y="40"
         id="rect2801"
         style="fill:url(#radialGradient4093);fill-opacity:1;stroke:none" />
      <rect
         width="5"
         height="7"
         x="-10"
         y="-47"
         transform="scale(-1,-1)"
         id="rect3696"
         style="fill:url(#radialGradient4095);fill-opacity:1;stroke:none" />
      <rect
         width="28"
         height="7.0000005"
         x="10"
         y="40"
         id="rect3700"
         style="fill:url(#linearGradient4097);fill-opacity:1;stroke:none" />
    </g>
  </g>
  <rect
     width="103"
     height="103"
     rx="10"
     ry="10"
     x="12.499988"
     y="15.501808"
     id="rect5505-21-3"
     style="color:#000000;display:inline;overflow:visible;visibility:visible;opacity:1;fill:url(#linearGradient1);fill-opacity:1;fill-rule:nonzero;stroke:#000000;stroke-width:0.999998;marker:none;enable-background:accumulate;font-variation-settings:normal;vector-effect:none;stroke-linecap:butt;stroke-linejoin:miter;stroke-miterlimit:4;stroke-dasharray:none;stroke-dashoffset:0;stroke-opacity:0.5;-inkscape-stroke:none;stop-color:#000000;stop-opacity:1" />
  <path
     id="rect48996-8-9-6-9-09-6-2"
     style="font-variation-settings:normal;opacity:0.15;vector-effect:none;fill:#000000;fill-opacity:1;stroke:none;stroke-width:0.999997;stroke-linecap:round;stroke-linejoin:round;stroke-miterlimit:4;stroke-dasharray:none;stroke-dashoffset:0;stroke-opacity:0.5;-inkscape-stroke:none;stop-color:#000000;stop-opacity:1"
     d="M 65.8125 30.986328 C 65.59361 30.962365 65.370368 30.967447 65.150391 31 C 64.116879 31.0039 63.082049 30.992159 62.048828 31.005859 C 60.611717 31.195912 60.152143 32.844631 59.845703 34.039062 C 59.479337 35.602005 59.33971 37.210253 59.308594 38.8125 C 58.457692 38.934619 57.615827 39.102689 56.783203 39.316406 C 55.811279 37.23113 54.789093 35.028446 52.982422 33.53125 C 52.274478 32.922986 51.282712 32.99649 50.519531 33.453125 C 49.448962 33.967476 48.238135 34.245014 47.265625 34.927734 C 46.295853 36.068182 46.693548 37.712174 46.923828 39.050781 C 47.204502 40.381624 47.632245 41.677925 48.126953 42.943359 C 47.391277 43.377294 46.683407 43.85305 46 44.365234 C 44.298342 42.796514 42.501423 41.142402 40.246094 40.445312 C 39.3585 40.150378 38.473928 40.603322 37.943359 41.314453 C 37.157501 42.202049 36.136471 42.913339 35.503906 43.917969 C 35.038978 45.342878 36.037085 46.719357 36.763672 47.869141 C 37.533242 48.989362 38.423229 50.022099 39.365234 51 C 38.852858 51.683277 38.377523 52.391429 37.943359 53.126953 C 35.771015 52.329559 33.478784 51.492232 31.128906 51.707031 C 30.199882 51.779741 29.546863 52.530321 29.332031 53.394531 C 28.943152 54.51635 28.276985 55.566517 28.076172 56.738281 C 28.198213 58.229746 29.639731 59.116911 30.751953 59.898438 C 31.880407 60.632598 33.084936 61.242399 34.316406 61.783203 C 34.102446 62.615777 33.934827 63.457732 33.8125 64.308594 C 31.514218 64.403484 29.089576 64.511256 27.015625 65.605469 C 26.181732 66.025523 25.869788 66.9697 26 67.849609 C 26.06769 69.031792 25.859023 70.252821 26.113281 71.410156 C 26.791592 72.748807 28.468087 73.015855 29.796875 73.314453 C 31.120778 73.558747 32.467341 73.668059 33.8125 73.691406 C 33.934619 74.542308 34.102689 75.384173 34.316406 76.216797 C 32.23113 77.188721 30.028446 78.210907 28.53125 80.017578 C 27.922986 80.725522 27.99649 81.717288 28.453125 82.480469 C 28.967476 83.551038 29.245014 84.761865 29.927734 85.734375 C 30.435973 86.085357 30.743146 86.203482 30.037109 86.574219 C 29.344762 87.121023 28.6837 87.706 28.048828 88.318359 C 27.359945 87.797549 26.641535 87.320656 25.898438 86.880859 C 26.682113 84.72693 27.508149 82.456215 27.292969 80.128906 C 27.220259 79.199882 26.469679 78.546863 25.605469 78.332031 C 24.48365 77.943152 23.433483 77.276985 22.261719 77.076172 C 20.770254 77.198213 19.883089 78.639731 19.101562 79.751953 C 18.37077 80.87432 17.764864 82.072795 17.224609 83.296875 C 16.388462 83.080617 15.542419 82.913231 14.6875 82.791016 C 14.587939 80.504822 14.485223 78.086997 13.386719 76.027344 C 13.122286 75.735824 12.818534 75.602831 12.5 75.597656 L 12.5 90.158203 C 12.627921 90.213252 12.771706 90.240802 12.941406 90.220703 C 17.38727 90.779176 21.645169 92.692301 25.029297 95.625 C 28.220483 98.371486 30.615994 102.01688 31.898438 106.02539 C 32.993236 109.4811 33.293697 113.20231 32.619141 116.77344 C 32.579175 117.35611 32.358746 117.92906 32.214844 118.50195 L 40.03125 118.50195 C 40.069072 118.08644 40.079883 117.6495 40.494141 117.68555 C 42.719321 117.56207 45.083776 117.45828 47.066406 116.33789 C 47.906384 115.89708 48.106684 114.91562 48 114.04883 C 47.93298 112.89993 48.140042 111.71391 47.886719 110.58984 C 47.208408 109.2512 45.531913 108.98415 44.203125 108.68555 C 42.886281 108.44226 41.54696 108.33367 40.208984 108.30859 C 40.086695 107.45498 39.918618 106.61038 39.703125 105.77539 C 41.780977 104.80362 43.976749 103.78456 45.46875 101.98242 C 46.077014 101.27448 46.00351 100.28271 45.546875 99.519531 C 45.032524 98.448962 44.754986 97.238135 44.072266 96.265625 C 43.564027 95.914643 43.256854 95.796518 43.962891 95.425781 C 44.672995 94.865034 45.34998 94.263926 46 93.634766 C 46.683277 94.147142 47.391429 94.622477 48.126953 95.056641 C 47.329559 97.228985 46.492232 99.52122 46.707031 101.87109 C 46.779741 102.80012 47.530321 103.45314 48.394531 103.66797 C 49.51635 104.05685 50.566517 104.72301 51.738281 104.92383 C 53.229578 104.80164 54.117143 103.36046 54.898438 102.24805 C 55.632598 101.11959 56.242399 99.915064 56.783203 98.683594 C 57.615777 98.897554 58.457732 99.065173 59.308594 99.1875 C 59.403484 101.48578 59.511256 103.91042 60.605469 105.98438 C 61.025523 106.81826 61.9697 107.13021 62.849609 107 C 64.031792 106.9323 65.252821 107.14098 66.410156 106.88672 C 67.748807 106.20841 68.015855 104.53191 68.314453 103.20312 C 68.558747 101.87923 68.668059 100.53266 68.691406 99.1875 C 69.542308 99.065381 70.384173 98.897311 71.216797 98.683594 C 72.188742 100.76888 73.210786 102.9716 75.017578 104.46875 C 75.725522 105.07701 76.717288 105.0035 77.480469 104.54688 C 78.551038 104.03253 79.761865 103.75498 80.734375 103.07227 C 81.704147 101.93182 81.306452 100.28783 81.076172 98.949219 C 80.795498 97.618376 80.367755 96.322075 79.873047 95.056641 C 80.608723 94.622706 81.316593 94.14695 82 93.634766 C 82.817788 94.425205 83.678159 95.173527 84.591797 95.851562 C 83.40196 96.263809 83.327361 97.724382 82.796875 98.689453 C 82.43761 99.644182 81.672378 100.73562 82.367188 101.73047 C 83.585754 103.48436 85.603951 104.44158 87.453125 105.39062 C 88.113035 105.57347 88.510855 105.87363 88.132812 106.5625 C 87.981243 107.13581 87.916014 107.72573 87.8125 108.30859 C 85.514218 108.40349 83.089576 108.51125 81.015625 109.60547 C 80.181732 110.02552 79.869788 110.9697 80 111.84961 C 80.06768 113.03179 79.859023 114.25282 80.113281 115.41016 C 80.791592 116.7488 82.468087 117.01585 83.796875 117.31445 C 85.123986 117.5592 86.473842 117.66883 87.822266 117.69141 C 87.87912 117.95293 87.9238 118.22921 87.972656 118.50195 L 95.767578 118.50195 C 94.964786 115.40093 94.785723 112.13754 95.386719 108.98438 C 96.057277 105.24007 97.696745 101.68408 100.06445 98.708984 C 102.81794 95.293502 106.54872 92.668538 110.71875 91.291016 C 112.26524 90.753143 113.88062 90.456392 115.5 90.232422 L 115.5 75.576172 C 115.38297 75.568397 115.26528 75.561884 115.13867 75.595703 C 114.11738 76.252849 113.99503 77.610024 113.71094 78.691406 C 113.45134 80.048734 113.33598 81.431568 113.3125 82.8125 C 112.46026 82.93437 111.61704 83.102184 110.7832 83.316406 C 109.81128 81.23113 108.7891 79.028446 106.98242 77.53125 C 106.27448 76.922986 105.28271 76.99649 104.51953 77.453125 C 103.44896 77.967476 102.23813 78.245014 101.26562 78.927734 C 100.29585 80.068182 100.69355 81.712174 100.92383 83.050781 C 101.2045 84.381624 101.63224 85.677925 102.12695 86.943359 C 101.39128 87.377294 100.68341 87.85305 100 88.365234 C 99.182212 87.574795 98.321841 86.826473 97.408203 86.148438 C 98.59804 85.736191 98.672639 84.275618 99.203125 83.310547 C 99.56239 82.355818 100.32762 81.264377 99.632812 80.269531 C 98.414278 78.515548 96.396098 77.558375 94.546875 76.609375 C 93.886965 76.426531 93.489145 76.126363 93.867188 75.4375 C 94.018757 74.864187 94.083986 74.274268 94.1875 73.691406 C 96.485782 73.596516 98.910419 73.488744 100.98438 72.394531 C 101.81826 71.974477 102.13021 71.0303 102 70.150391 C 101.9323 68.968208 102.14098 67.747179 101.88672 66.589844 C 101.20841 65.251193 99.531913 64.984145 98.203125 64.685547 C 96.886281 64.442255 95.54696 64.333669 94.208984 64.308594 C 94.086695 63.45498 93.918618 62.610379 93.703125 61.775391 C 95.780977 60.803621 97.976749 59.784562 99.46875 57.982422 C 100.07701 57.274478 100.0035 56.282712 99.546875 55.519531 C 99.032524 54.448962 98.754986 53.238135 98.072266 52.265625 C 96.931818 51.295853 95.287826 51.693548 93.949219 51.923828 C 92.640144 52.199133 91.365412 52.619488 90.119141 53.101562 C 89.679494 52.358366 89.202224 51.640209 88.681641 50.951172 C 90.232162 49.262858 91.866142 47.480195 92.554688 45.246094 C 92.849622 44.3585 92.396678 43.473928 91.685547 42.943359 C 90.797951 42.157501 90.086661 41.136471 89.082031 40.503906 C 87.657122 40.038978 86.280643 41.037085 85.130859 41.763672 C 84.029212 42.520365 83.012259 43.39384 82.048828 44.318359 C 81.359945 43.797549 80.641535 43.320656 79.898438 42.880859 C 80.682113 40.72693 81.508149 38.456215 81.292969 36.128906 C 81.220259 35.199882 80.469679 34.546863 79.605469 34.332031 C 78.48365 33.943152 77.433483 33.276985 76.261719 33.076172 C 74.770254 33.198213 73.883089 34.639731 73.101562 35.751953 C 72.37077 36.87432 71.764864 38.072795 71.224609 39.296875 C 70.38967 39.081145 69.54498 38.913511 68.691406 38.791016 C 68.594381 36.499825 68.486189 34.0829 67.394531 32.015625 C 67.07949 31.390205 66.469171 31.058218 65.8125 30.986328 z M 67 46.236328 C 67.396484 46.289718 67.79297 46.343099 68.189453 46.396484 C 71.689164 47.091503 75.054813 48.523129 77.886719 50.707031 C 81.003551 53.046756 83.476555 56.21794 85.048828 59.78125 C 86.806941 63.80652 87.418578 68.347832 86.654297 72.683594 C 86.343064 74.422717 85.86336 76.13977 85.152344 77.759766 L 72.365234 70.378906 C 73.01504 66.859432 71.117678 63.062173 67.912109 61.46875 C 67.397419 61.189179 66.741519 61.124335 67 60.365234 L 67 46.236328 z M 61 46.318359 L 61 61.068359 C 57.856628 62.193453 55.598238 65.356349 55.521484 68.691406 C 55.484734 69.253325 55.536996 69.825075 55.634766 70.378906 L 42.847656 77.759766 C 41.128208 73.758163 40.578922 69.245068 41.394531 64.958984 C 42.083299 61.129756 43.789103 57.504717 46.242188 54.488281 C 48.789734 51.42002 52.126435 49.009508 55.859375 47.599609 C 57.520428 46.990901 59.239437 46.517981 61 46.318359 z M 63.847656 66.300781 C 64.101746 66.290287 64.359598 66.315112 64.609375 66.355469 C 66.32105 66.70337 67.278193 68.865808 66.337891 70.347656 C 65.515107 71.941502 63.068478 72.166392 61.953125 70.767578 C 60.702287 69.434571 61.345178 66.976151 63.105469 66.455078 C 63.343328 66.356717 63.593566 66.311275 63.847656 66.300781 z M 58.660156 75.556641 C 58.777344 75.654951 58.894531 75.753256 59.011719 75.851562 C 61.453685 77.63907 64.853751 77.996169 67.585938 76.669922 C 68.205372 76.365183 68.818282 76.013749 69.339844 75.556641 L 82.142578 82.949219 C 79.985817 85.806032 77.124167 88.134388 73.896484 89.679688 C 70.621506 91.281699 66.944452 92.082022 63.300781 91.962891 C 59.182129 91.839661 55.124998 90.53939 51.65625 88.324219 C 49.448812 86.865962 47.440713 85.076 45.857422 82.949219 L 58.660156 75.556641 z M 37.943359 84.873047 L 38.599609 85.933594 C 38.749494 86.374218 39.663297 86.862545 39.123047 87.253906 C 38.744745 87.662812 38.470792 88.196231 38.179688 87.4375 L 36.230469 85.488281 C 36.806967 85.299493 37.379295 85.096419 37.943359 84.873047 z M 90.056641 84.873047 C 90.126301 84.901047 90.195964 84.929041 90.265625 84.957031 C 90.763989 85.14218 91.263314 85.325667 91.769531 85.488281 C 91.037688 86.320898 90.069396 86.977642 89.498047 87.931641 C 89.305521 87.528141 88.416647 87.185609 88.810547 86.755859 C 89.268432 86.156359 89.66658 85.517842 90.056641 84.873047 z M 92.501953 94.068359 C 92.557943 94.132159 92.613932 94.195964 92.669922 94.259766 C 93.020882 94.656937 93.661843 95.027383 93.015625 95.486328 C 92.616095 96.004644 92.28925 96.572836 91.943359 97.126953 C 91.379352 96.903446 90.806954 96.700508 90.230469 96.511719 C 90.962312 95.679102 91.930604 95.022358 92.501953 94.068359 z M 35.542969 94.173828 C 36.165914 95.048987 37.044844 95.718637 37.769531 96.511719 C 37.214107 96.692744 36.663608 96.889825 36.119141 97.101562 C 35.679494 96.358366 35.202224 95.640209 34.681641 94.951172 C 34.952862 94.763955 35.345132 94.04935 35.542969 94.173828 z " />
  <path
     id="rect48996-8-9-6-9-09-6"
     style="font-variation-settings:normal;fill:#000000;fill-opacity:1;stroke:none;stroke-width:0.999997;stroke-linecap:round;stroke-linejoin:round;stroke-miterlimit:4;stroke-dasharray:none;stroke-dashoffset:0;stroke-opacity:0.5;stop-color:#000000;opacity:0.3;vector-effect:none;-inkscape-stroke:none;stop-opacity:1"
     d="M 62.150391 32 C 61.125496 32 60.300781 35.300811 60.300781 39.400391 L 60.300781 39.664062 A 29.599999 29.599999 0 0 0 56.191406 40.484375 L 56.089844 40.238281 C 54.520994 36.450778 52.495709 33.717193 51.548828 34.109375 L 48.130859 35.523438 C 47.183978 35.915632 47.685078 39.280855 49.253906 43.068359 L 49.369141 43.349609 A 29.599999 29.599999 0 0 0 45.900391 45.669922 L 45.683594 45.453125 C 42.784752 42.554301 39.869251 40.802624 39.144531 41.527344 L 36.527344 44.144531 C 35.802625 44.86925 37.554283 47.784751 40.453125 50.683594 L 40.669922 50.900391 A 29.599999 29.599999 0 0 0 38.349609 54.369141 L 38.068359 54.253906 C 34.280836 52.68506 30.915651 52.18396 30.523438 53.130859 L 29.109375 56.548828 C 28.717175 57.495708 31.450777 59.520994 35.238281 61.089844 L 35.484375 61.191406 A 29.599999 29.599999 0 0 0 34.664062 65.300781 L 34.400391 65.300781 C 30.300811 65.300781 27 66.125496 27 67.150391 L 27 70.849609 C 27 71.874504 30.300811 72.699219 34.400391 72.699219 L 34.664062 72.699219 A 29.599999 29.599999 0 0 0 35.484375 76.808594 L 35.238281 76.910156 C 31.450778 78.479006 28.717174 80.504291 29.109375 81.451172 L 30.523438 84.869141 C 30.915632 85.816021 34.280855 85.314938 38.068359 83.746094 L 38.349609 83.630859 A 29.599999 29.599999 0 0 0 40.669922 87.099609 L 40.453125 87.316406 C 37.554301 90.215248 35.802624 93.130751 36.527344 93.855469 L 39.144531 96.472656 C 39.86925 97.197375 42.784751 95.445699 45.683594 92.546875 L 45.900391 92.330078 A 29.599999 29.599999 0 0 0 49.369141 94.650391 L 49.253906 94.931641 C 47.68506 98.719144 47.183997 102.08436 48.130859 102.47656 L 51.548828 103.89062 C 52.495708 104.28281 54.520994 101.54922 56.089844 97.761719 L 56.191406 97.515625 A 29.599999 29.599999 0 0 0 60.300781 98.335938 L 60.300781 98.599609 C 60.300781 102.6992 61.125496 106 62.150391 106 L 65.849609 106 C 66.874504 106 67.699219 102.6992 67.699219 98.599609 L 67.699219 98.335938 A 29.599999 29.599999 0 0 0 71.808594 97.515625 L 71.910156 97.761719 C 73.479006 101.54924 75.504291 104.28279 76.451172 103.89062 L 79.869141 102.47656 C 80.816021 102.08436 80.314938 98.719143 78.746094 94.931641 L 78.630859 94.650391 A 29.599999 29.599999 0 0 0 82.099609 92.330078 L 82.316406 92.546875 C 85.215248 95.445699 88.130751 97.197374 88.855469 96.472656 L 91.472656 93.855469 C 92.197375 93.13075 90.445699 90.215249 87.546875 87.316406 L 87.330078 87.099609 A 29.599999 29.599999 0 0 0 89.650391 83.630859 L 89.931641 83.746094 C 93.719144 85.314939 97.084367 85.816039 97.476562 84.869141 L 98.890625 81.451172 C 99.282824 80.504291 96.549185 78.479007 92.761719 76.910156 L 92.515625 76.808594 A 29.599999 29.599999 0 0 0 93.335938 72.699219 L 93.599609 72.699219 C 97.699189 72.699219 101 71.874504 101 70.849609 L 101 67.150391 C 101 66.125496 97.699189 65.300781 93.599609 65.300781 L 93.357422 65.300781 A 29.599999 29.599999 0 0 0 92.537109 61.183594 L 92.761719 61.089844 C 96.549185 59.520994 99.282806 57.495709 98.890625 56.548828 L 97.476562 53.130859 C 97.084368 52.183978 93.719143 52.68506 89.931641 54.253906 L 89.712891 54.34375 A 29.599999 29.599999 0 0 0 87.378906 50.853516 L 87.546875 50.683594 C 90.445699 47.784752 92.197374 44.869249 91.472656 44.144531 L 88.855469 41.527344 C 88.13075 40.802624 85.215249 42.554301 82.316406 45.453125 L 82.146484 45.621094 A 29.599999 29.599999 0 0 0 78.65625 43.287109 L 78.746094 43.068359 C 80.314939 39.280855 80.816022 35.915633 79.869141 35.523438 L 76.451172 34.109375 C 75.504291 33.717175 73.479006 36.450796 71.910156 40.238281 L 71.816406 40.462891 A 29.599999 29.599999 0 0 0 67.699219 39.642578 L 67.699219 39.400391 C 67.699219 35.300811 66.874504 32 65.849609 32 L 62.150391 32 z M 66 45.09375 A 24 24 0 0 1 88 69 A 24 24 0 0 1 85.628906 79.189453 L 71.242188 70.884766 A 7.5 7.5 0 0 0 71.5 68.990234 A 7.5 7.5 0 0 0 66 61.763672 L 66 45.09375 z M 62 45.175781 L 62 61.767578 A 7.5 7.5 0 0 0 56.5 68.990234 A 7.5 7.5 0 0 0 56.757812 70.884766 L 42.371094 79.189453 A 24 24 0 0 1 40 69 A 24 24 0 0 1 62 45.175781 z M 64 65.279297 A 3.7211335 3.7211335 0 0 1 67.720703 69 A 3.7211335 3.7211335 0 0 1 64 72.720703 A 3.7211335 3.7211335 0 0 1 60.279297 69 A 3.7211335 3.7211335 0 0 1 64 65.279297 z M 58.769531 74.339844 A 7.5 7.5 0 0 0 64 76.490234 A 7.5 7.5 0 0 0 69.230469 74.339844 L 83.628906 82.652344 A 24 24 0 0 1 64 93 A 24 24 0 0 1 44.371094 82.652344 L 58.769531 74.339844 z M 12.5 76.494141 L 12.5 89.140625 A 24 24 0 0 1 34 113 A 24 24 0 0 1 33.232422 118.50195 L 38.976562 118.50195 A 29.599999 29.599999 0 0 0 39.335938 116.69922 L 39.599609 116.69922 C 43.699189 116.69922 47 115.87451 47 114.84961 L 47 111.15039 C 47 110.12549 43.699189 109.30078 39.599609 109.30078 L 39.357422 109.30078 A 29.599999 29.599999 0 0 0 38.537109 105.18359 L 38.761719 105.08984 C 42.549185 103.52102 45.282806 101.49571 44.890625 100.54883 L 43.476562 97.130859 C 43.084368 96.183978 39.719143 96.68506 35.931641 98.253906 L 35.712891 98.34375 A 29.599999 29.599999 0 0 0 33.378906 94.853516 L 33.546875 94.683594 C 36.445699 91.784752 38.197374 88.869249 37.472656 88.144531 L 34.855469 85.527344 C 34.13075 84.802624 31.215249 86.554301 28.316406 89.453125 L 28.146484 89.621094 A 29.599999 29.599999 0 0 0 24.65625 87.287109 L 24.746094 87.068359 C 26.314939 83.280855 26.816022 79.915633 25.869141 79.523438 L 22.451172 78.109375 C 21.504291 77.717175 19.479006 80.450796 17.910156 84.238281 L 17.816406 84.462891 A 29.599999 29.599999 0 0 0 13.699219 83.642578 L 13.699219 83.400391 C 13.699219 80.22276 13.200135 77.546806 12.5 76.494141 z M 115.5 76.494141 C 114.79986 77.546806 114.30078 80.22276 114.30078 83.400391 L 114.30078 83.664062 A 29.599999 29.599999 0 0 0 110.19141 84.484375 L 110.08984 84.238281 C 108.52102 80.450778 106.49571 77.717193 105.54883 78.109375 L 102.13086 79.523438 C 101.18398 79.915632 101.68507 83.280855 103.25391 87.068359 L 103.36914 87.349609 A 29.599999 29.599999 0 0 0 99.900391 89.669922 L 99.683594 89.453125 C 96.784756 86.554301 93.869251 84.802624 93.144531 85.527344 L 90.527344 88.144531 C 89.802625 88.86925 91.554283 91.784751 94.453125 94.683594 L 94.669922 94.900391 A 29.599999 29.599999 0 0 0 92.349609 98.369141 L 92.068359 98.253906 C 88.280836 96.68506 84.915651 96.18396 84.523438 97.130859 L 83.109375 100.54883 C 82.717175 101.49571 85.450777 103.52102 89.238281 105.08984 L 89.484375 105.19141 A 29.599999 29.599999 0 0 0 88.664062 109.30078 L 88.400391 109.30078 C 84.300811 109.30078 81 110.12549 81 111.15039 L 81 114.84961 C 81 115.87451 84.300811 116.69922 88.400391 116.69922 L 88.664062 116.69922 A 29.599999 29.599999 0 0 0 89.023438 118.50195 L 94.767578 118.50195 A 24 24 0 0 1 94 113 A 24 24 0 0 1 115.5 89.21875 L 115.5 76.494141 z " />
  <path
     id="rect48996-8-9-6-9-09-7"
     style="font-variation-settings:normal;fill:url(#linearGradient4);fill-opacity:1;stroke:none;stroke-width:0.999999;stroke-linecap:round;stroke-linejoin:round;stroke-miterlimit:4;stroke-dasharray:none;stroke-dashoffset:0;stroke-opacity:0.5;stop-color:#000000;opacity:1;vector-effect:none;-inkscape-stroke:none;stop-opacity:1"
     d="M 12.5 75.494141 L 12.5 88.140625 A 24 24 0 0 1 34 112 A 24 24 0 0 1 33.009766 118.50195 L 38.777344 118.50195 A 29.599999 29.599999 0 0 0 39.335938 115.69922 L 39.599609 115.69922 C 43.699197 115.69922 47 114.87451 47 113.84961 L 47 110.15039 C 47 109.12549 43.699197 108.30078 39.599609 108.30078 L 39.357422 108.30078 A 29.599999 29.599999 0 0 0 38.537109 104.18359 L 38.761719 104.08984 C 42.549193 102.521 45.282806 100.49571 44.890625 99.548828 L 43.476562 96.130859 C 43.084366 95.183976 39.719151 95.685056 35.931641 97.253906 L 35.712891 97.34375 A 29.599999 29.599999 0 0 0 33.378906 93.853516 L 33.546875 93.683594 C 36.445705 90.784746 38.197374 87.869249 37.472656 87.144531 L 34.855469 84.527344 C 34.13075 83.802624 31.215255 85.554295 28.316406 88.453125 L 28.146484 88.621094 A 29.599999 29.599999 0 0 0 24.65625 86.287109 L 24.746094 86.068359 C 26.314943 82.280847 26.816024 78.915635 25.869141 78.523438 L 22.451172 77.109375 C 21.504289 76.717175 19.479008 79.450788 17.910156 83.238281 L 17.816406 83.462891 A 29.599999 29.599999 0 0 0 13.699219 82.642578 L 13.699219 82.400391 C 13.699219 79.222754 13.200137 76.546808 12.5 75.494141 z " />
  <path
     id="rect48996-8-9-6-9-09-7-4"
     style="font-variation-settings:normal;vector-effect:none;fill:url(#linearGradient5);fill-opacity:1;stroke:none;stroke-width:0.999999;stroke-linecap:round;stroke-linejoin:round;stroke-miterlimit:4;stroke-dasharray:none;stroke-dashoffset:0;stroke-opacity:0.5;-inkscape-stroke:none;stop-color:#000000"
     d="M 115.5 75.494141 C 114.79986 76.546808 114.30078 79.222754 114.30078 82.400391 L 114.30078 82.664062 A 29.599999 29.599999 0 0 0 110.19141 83.484375 L 110.08984 83.238281 C 108.521 79.45077 106.49571 76.717193 105.54883 77.109375 L 102.13086 78.523438 C 101.18398 78.915634 101.68507 82.280847 103.25391 86.068359 L 103.36914 86.349609 A 29.599999 29.599999 0 0 0 99.900391 88.669922 L 99.683594 88.453125 C 96.78475 85.554295 93.869251 83.802624 93.144531 84.527344 L 90.527344 87.144531 C 89.802625 87.86925 91.554277 90.784745 94.453125 93.683594 L 94.669922 93.900391 A 29.599999 29.599999 0 0 0 92.349609 97.369141 L 92.068359 97.253906 C 88.280828 95.685056 84.915653 95.183958 84.523438 96.130859 L 83.109375 99.548828 C 82.717175 100.49571 85.450769 102.521 89.238281 104.08984 L 89.484375 104.19141 A 29.599999 29.599999 0 0 0 88.664062 108.30078 L 88.400391 108.30078 C 84.300803 108.30078 81 109.12549 81 110.15039 L 81 113.84961 C 81 114.87451 84.300803 115.69922 88.400391 115.69922 L 88.664062 115.69922 A 29.599999 29.599999 0 0 0 89.222656 118.50195 L 94.990234 118.50195 A 24 24 0 0 1 94 112 A 24 24 0 0 1 115.5 88.21875 L 115.5 75.494141 z " />
  <path
     id="rect48996-8-9-6-9-09"
     style="font-variation-settings:normal;fill:url(#linearGradient2);fill-opacity:1;stroke:none;stroke-width:1;stroke-linecap:round;stroke-linejoin:round;stroke-miterlimit:4;stroke-dasharray:none;stroke-dashoffset:0;stroke-opacity:0.5;stop-color:#000000"
     d="M 62.150391 31 C 61.125494 31 60.300781 34.300803 60.300781 38.400391 L 60.300781 38.664062 A 29.599999 29.599999 0 0 0 56.191406 39.484375 L 56.089844 39.238281 C 54.520992 35.45077 52.495711 32.717193 51.548828 33.109375 L 48.130859 34.523438 C 47.183976 34.915634 47.685074 38.280847 49.253906 42.068359 L 49.369141 42.349609 A 29.599999 29.599999 0 0 0 45.900391 44.669922 L 45.683594 44.453125 C 42.784746 41.554295 39.869251 39.802624 39.144531 40.527344 L 36.527344 43.144531 C 35.802625 43.86925 37.554277 46.784745 40.453125 49.683594 L 40.669922 49.900391 A 29.599999 29.599999 0 0 0 38.349609 53.369141 L 38.068359 53.253906 C 34.280828 51.685056 30.915653 51.183958 30.523438 52.130859 L 29.109375 55.548828 C 28.717175 56.49571 31.450769 58.520992 35.238281 60.089844 L 35.484375 60.191406 A 29.599999 29.599999 0 0 0 34.664062 64.300781 L 34.400391 64.300781 C 30.300803 64.300781 27 65.125494 27 66.150391 L 27 69.849609 C 27 70.874506 30.300803 71.699219 34.400391 71.699219 L 34.664062 71.699219 A 29.599999 29.599999 0 0 0 35.484375 75.808594 L 35.238281 75.910156 C 31.45077 77.479008 28.717174 79.504289 29.109375 80.451172 L 30.523438 83.869141 C 30.915634 84.816023 34.280847 84.314942 38.068359 82.746094 L 38.349609 82.630859 A 29.599999 29.599999 0 0 0 40.669922 86.099609 L 40.453125 86.316406 C 37.554295 89.215254 35.802624 92.130751 36.527344 92.855469 L 39.144531 95.472656 C 39.86925 96.197375 42.784745 94.445705 45.683594 91.546875 L 45.900391 91.330078 A 29.599999 29.599999 0 0 0 49.369141 93.650391 L 49.253906 93.931641 C 47.685056 97.719152 47.183995 101.08436 48.130859 101.47656 L 51.548828 102.89062 C 52.49571 103.28281 54.520992 100.54922 56.089844 96.761719 L 56.191406 96.515625 A 29.599999 29.599999 0 0 0 60.300781 97.335938 L 60.300781 97.599609 C 60.300781 101.6992 61.125494 105 62.150391 105 L 65.849609 105 C 66.874506 105 67.699219 101.6992 67.699219 97.599609 L 67.699219 97.335938 A 29.599999 29.599999 0 0 0 71.808594 96.515625 L 71.910156 96.761719 C 73.479008 100.54924 75.504289 103.28279 76.451172 102.89062 L 79.869141 101.47656 C 80.816023 101.08436 80.314942 97.719151 78.746094 93.931641 L 78.630859 93.650391 A 29.599999 29.599999 0 0 0 82.099609 91.330078 L 82.316406 91.546875 C 85.215254 94.445705 88.130751 96.197374 88.855469 95.472656 L 91.472656 92.855469 C 92.197375 92.13075 90.445705 89.215255 87.546875 86.316406 L 87.330078 86.099609 A 29.599999 29.599999 0 0 0 89.650391 82.630859 L 89.931641 82.746094 C 93.719152 84.314943 97.084365 84.816041 97.476562 83.869141 L 98.890625 80.451172 C 99.282824 79.504289 96.549193 77.479009 92.761719 75.910156 L 92.515625 75.808594 A 29.599999 29.599999 0 0 0 93.335938 71.699219 L 93.599609 71.699219 C 97.699197 71.699219 101 70.874506 101 69.849609 L 101 66.150391 C 101 65.125494 97.699197 64.300781 93.599609 64.300781 L 93.357422 64.300781 A 29.599999 29.599999 0 0 0 92.537109 60.183594 L 92.761719 60.089844 C 96.549193 58.520992 99.282806 56.495711 98.890625 55.548828 L 97.476562 52.130859 C 97.084366 51.183976 93.719151 51.685056 89.931641 53.253906 L 89.712891 53.34375 A 29.599999 29.599999 0 0 0 87.378906 49.853516 L 87.546875 49.683594 C 90.445705 46.784746 92.197374 43.869249 91.472656 43.144531 L 88.855469 40.527344 C 88.13075 39.802624 85.215255 41.554295 82.316406 44.453125 L 82.146484 44.621094 A 29.599999 29.599999 0 0 0 78.65625 42.287109 L 78.746094 42.068359 C 80.314943 38.280847 80.816024 34.915635 79.869141 34.523438 L 76.451172 33.109375 C 75.504289 32.717175 73.479008 35.450788 71.910156 39.238281 L 71.816406 39.462891 A 29.599999 29.599999 0 0 0 67.699219 38.642578 L 67.699219 38.400391 C 67.699219 34.300803 66.874506 31 65.849609 31 L 62.150391 31 z M 66 44.09375 A 24 24 0 0 1 88 68 A 24 24 0 0 1 85.628906 78.189453 L 71.242188 69.884766 A 7.5 7.5 0 0 0 71.5 67.990234 A 7.5 7.5 0 0 0 66 60.763672 L 66 44.09375 z M 62 44.175781 L 62 60.767578 A 7.5 7.5 0 0 0 56.5 67.990234 A 7.5 7.5 0 0 0 56.757812 69.884766 L 42.371094 78.189453 A 24 24 0 0 1 40 68 A 24 24 0 0 1 62 44.175781 z M 64 64.279297 A 3.7211335 3.7211335 0 0 1 67.720703 68 A 3.7211335 3.7211335 0 0 1 64 71.720703 A 3.7211335 3.7211335 0 0 1 60.279297 68 A 3.7211335 3.7211335 0 0 1 64 64.279297 z M 58.769531 73.339844 A 7.5 7.5 0 0 0 64 75.490234 A 7.5 7.5 0 0 0 69.230469 73.339844 L 83.628906 81.652344 A 24 24 0 0 1 64 92 A 24 24 0 0 1 44.371094 81.652344 L 58.769531 73.339844 z " />
  <rect
     width="101"
     height="101"
     rx="9"
     ry="9"
     x="13.499988"
     y="16.501808"
     id="rect6741-7"
     style="opacity:0.2;fill:none;stroke:url(#linearGradient4136);stroke-width:1;stroke-linecap:round;stroke-linejoin:round;stroke-miterlimit:4;stroke-dasharray:none;stroke-dashoffset:0;stroke-opacity:1" />
  <path
     id="rect48996-8-9-6-9-09-6-7-6"
     style="font-variation-settings:normal;opacity:0.3;vector-effect:none;fill:#ffffff;fill-opacity:1;stroke:none;stroke-width:0.999997;stroke-linecap:round;stroke-linejoin:round;stroke-miterlimit:4;stroke-dasharray:none;stroke-dashoffset:0;stroke-opacity:0.5;-inkscape-stroke:none;stop-color:#000000;stop-opacity:1"
     d="M 62.150391 31 C 61.125496 31 60.300781 34.300811 60.300781 38.400391 L 60.300781 38.664062 A 29.599999 29.599999 0 0 0 56.191406 39.484375 L 56.089844 39.238281 C 54.520994 35.450778 52.495709 32.717193 51.548828 33.109375 L 48.130859 34.523438 C 47.739859 34.685388 47.607563 35.3729 47.683594 36.369141 C 47.742791 35.923166 47.888881 35.623664 48.130859 35.523438 L 51.548828 34.109375 C 52.495709 33.717193 54.520994 36.450778 56.089844 40.238281 L 56.191406 40.484375 A 29.599999 29.599999 0 0 1 60.300781 39.664062 L 60.300781 39.400391 C 60.300781 35.300811 61.125496 32 62.150391 32 L 65.849609 32 C 66.874504 32 67.699219 35.300811 67.699219 39.400391 L 67.699219 39.642578 A 29.599999 29.599999 0 0 1 71.816406 40.462891 L 71.910156 40.238281 C 73.479006 36.450796 75.504291 33.717175 76.451172 34.109375 L 79.869141 35.523438 C 80.111119 35.623664 80.257208 35.923166 80.316406 36.369141 C 80.392435 35.3729 80.260141 34.685389 79.869141 34.523438 L 76.451172 33.109375 C 75.504291 32.717175 73.479006 35.450796 71.910156 39.238281 L 71.816406 39.462891 A 29.599999 29.599999 0 0 0 67.699219 38.642578 L 67.699219 38.400391 C 67.699219 34.300811 66.874504 31 65.849609 31 L 62.150391 31 z M 39.515625 40.369141 C 39.360885 40.384939 39.235121 40.436754 39.144531 40.527344 L 36.527344 43.144531 C 36.327267 43.344608 36.332982 43.723359 36.482422 44.210938 C 36.497932 44.189187 36.508513 44.163362 36.527344 44.144531 L 39.144531 41.527344 C 39.869251 40.802624 42.784752 42.554301 45.683594 45.453125 L 45.900391 45.669922 A 29.599999 29.599999 0 0 1 49.369141 43.349609 L 49.253906 43.068359 C 49.182265 42.895401 49.123792 42.729548 49.056641 42.558594 A 29.599999 29.599999 0 0 0 45.900391 44.669922 L 45.683594 44.453125 C 43.147107 41.916654 40.598807 40.258549 39.515625 40.369141 z M 88.484375 40.369141 C 87.401194 40.258549 84.852894 41.916654 82.316406 44.453125 L 82.146484 44.621094 A 29.599999 29.599999 0 0 0 78.966797 42.494141 C 78.89186 42.686219 78.826723 42.873704 78.746094 43.068359 L 78.65625 43.287109 A 29.599999 29.599999 0 0 1 82.146484 45.621094 L 82.316406 45.453125 C 85.215249 42.554301 88.13075 40.802624 88.855469 41.527344 L 91.472656 44.144531 C 91.491487 44.163362 91.502068 44.189187 91.517578 44.210938 C 91.667019 43.723359 91.672732 43.344607 91.472656 43.144531 L 88.855469 40.527344 C 88.764879 40.436754 88.639115 40.384939 88.484375 40.369141 z M 87.773438 50.445312 C 87.695565 50.524924 87.626506 50.603962 87.546875 50.683594 L 87.378906 50.853516 A 29.599999 29.599999 0 0 1 89.712891 54.34375 L 89.931641 54.253906 C 93.719143 52.68506 97.084368 52.183978 97.476562 53.130859 L 98.751953 56.214844 C 98.893751 55.963224 98.96621 55.731321 98.890625 55.548828 L 97.476562 52.130859 C 97.084368 51.183978 93.719143 51.68506 89.931641 53.253906 L 89.712891 53.34375 A 29.599999 29.599999 0 0 0 87.773438 50.445312 z M 40.273438 50.494141 A 29.599999 29.599999 0 0 0 38.349609 53.369141 L 38.068359 53.253906 C 34.280836 51.68506 30.915651 51.18396 30.523438 52.130859 L 29.109375 55.548828 C 29.033786 55.731321 29.106253 55.963224 29.248047 56.214844 L 30.523438 53.130859 C 30.915651 52.18396 34.280836 52.68506 38.068359 54.253906 L 38.349609 54.369141 A 29.599999 29.599999 0 0 1 40.669922 50.900391 L 40.453125 50.683594 C 40.389886 50.620355 40.335571 50.557372 40.273438 50.494141 z M 66 60.763672 L 66 61.763672 A 7.5 7.5 0 0 1 71.425781 68.537109 A 7.5 7.5 0 0 0 71.5 67.990234 A 7.5 7.5 0 0 0 66 60.763672 z M 62 60.767578 A 7.5 7.5 0 0 0 56.5 67.990234 A 7.5 7.5 0 0 0 56.574219 68.537109 A 7.5 7.5 0 0 1 62 61.767578 L 62 60.767578 z M 92.720703 61.107422 L 92.537109 61.183594 A 29.599999 29.599999 0 0 1 93.357422 65.300781 L 93.599609 65.300781 C 97.699189 65.300781 101 66.125496 101 67.150391 L 101 66.150391 C 101 65.125496 97.699189 64.300781 93.599609 64.300781 L 93.357422 64.300781 A 29.599999 29.599999 0 0 0 92.720703 61.107422 z M 35.300781 61.115234 A 29.599999 29.599999 0 0 0 34.664062 64.300781 L 34.400391 64.300781 C 30.300811 64.300781 27 65.125496 27 66.150391 L 27 67.150391 C 27 66.125496 30.300811 65.300781 34.400391 65.300781 L 34.664062 65.300781 A 29.599999 29.599999 0 0 1 35.484375 61.191406 L 35.300781 61.115234 z M 60.414062 68.5 A 3.7211335 3.7211335 0 0 0 60.279297 69 A 3.7211335 3.7211335 0 0 0 64 72.720703 A 3.7211335 3.7211335 0 0 0 67.720703 69 A 3.7211335 3.7211335 0 0 0 67.585938 68.5 A 3.7211335 3.7211335 0 0 1 64 71.720703 A 3.7211335 3.7211335 0 0 1 60.414062 68.5 z M 87.957031 68.53125 A 24 24 0 0 1 85.628906 78.189453 L 71.369141 69.957031 A 7.5 7.5 0 0 1 71.242188 70.884766 L 85.628906 79.189453 A 24 24 0 0 0 88 69 A 24 24 0 0 0 87.957031 68.53125 z M 40.046875 68.572266 A 24 24 0 0 0 40 69 A 24 24 0 0 0 42.371094 79.189453 L 56.757812 70.884766 A 7.5 7.5 0 0 1 56.630859 69.957031 L 42.371094 78.189453 A 24 24 0 0 1 40.046875 68.572266 z M 12.5 75.494141 L 12.5 76.494141 C 13.200135 77.546806 13.699219 80.22276 13.699219 83.400391 L 13.699219 83.642578 A 29.599999 29.599999 0 0 1 17.816406 84.462891 L 17.910156 84.238281 C 19.479006 80.450796 21.504291 77.717175 22.451172 78.109375 L 25.869141 79.523438 C 26.111119 79.623664 26.257208 79.923166 26.316406 80.369141 C 26.392435 79.3729 26.260141 78.685389 25.869141 78.523438 L 22.451172 77.109375 C 21.504291 76.717175 19.479006 79.450796 17.910156 83.238281 L 17.816406 83.462891 A 29.599999 29.599999 0 0 0 13.699219 82.642578 L 13.699219 82.400391 C 13.699219 79.22276 13.200135 76.546806 12.5 75.494141 z M 115.5 75.494141 C 114.79986 76.546806 114.30078 79.22276 114.30078 82.400391 L 114.30078 82.664062 A 29.599999 29.599999 0 0 0 110.19141 83.484375 L 110.08984 83.238281 C 108.52102 79.450778 106.49571 76.717193 105.54883 77.109375 L 102.13086 78.523438 C 101.73986 78.685388 101.60756 79.3729 101.68359 80.369141 C 101.74279 79.923166 101.88888 79.623664 102.13086 79.523438 L 105.54883 78.109375 C 106.49571 77.717193 108.52102 80.450778 110.08984 84.238281 L 110.19141 84.484375 A 29.599999 29.599999 0 0 1 114.30078 83.664062 L 114.30078 83.400391 C 114.30078 80.22276 114.79986 77.546806 115.5 76.494141 L 115.5 75.494141 z M 35.300781 75.884766 L 35.238281 75.910156 C 31.450778 77.479006 28.717174 79.504291 29.109375 80.451172 L 29.248047 80.785156 C 29.841965 79.731225 32.180746 78.17664 35.238281 76.910156 L 35.484375 76.808594 A 29.599999 29.599999 0 0 1 35.300781 75.884766 z M 92.699219 75.884766 A 29.599999 29.599999 0 0 1 92.515625 76.808594 L 92.761719 76.910156 C 95.819225 78.176641 98.158026 79.731225 98.751953 80.785156 L 98.890625 80.451172 C 99.282824 79.504291 96.549185 77.479007 92.761719 75.910156 L 92.699219 75.884766 z M 44.939453 82.324219 L 44.371094 82.652344 A 24 24 0 0 0 64 93 A 24 24 0 0 0 83.628906 82.652344 L 83.060547 82.324219 A 24 24 0 0 1 64 92 A 24 24 0 0 1 44.939453 82.324219 z M 35.107422 84.779297 C 33.92491 85.114745 32.872403 85.314545 32.078125 85.34375 C 30.957461 86.062489 29.640472 87.129068 28.316406 88.453125 L 28.146484 88.621094 A 29.599999 29.599999 0 0 0 24.966797 86.494141 C 24.89186 86.686219 24.826723 86.873704 24.746094 87.068359 L 24.65625 87.287109 A 29.599999 29.599999 0 0 1 28.146484 89.621094 L 28.316406 89.453125 C 31.215249 86.554301 34.13075 84.802624 34.855469 85.527344 L 37.472656 88.144531 C 37.491487 88.163362 37.502068 88.189187 37.517578 88.210938 C 37.667019 87.723359 37.672732 87.344607 37.472656 87.144531 L 35.107422 84.779297 z M 92.892578 84.779297 L 90.527344 87.144531 C 90.327267 87.344608 90.332982 87.723359 90.482422 88.210938 C 90.497932 88.189187 90.508513 88.163362 90.527344 88.144531 L 93.144531 85.527344 C 93.869251 84.802624 96.784756 86.554301 99.683594 89.453125 L 99.900391 89.669922 A 29.599999 29.599999 0 0 1 103.36914 87.349609 L 103.25391 87.068359 C 103.18226 86.895401 103.12379 86.729548 103.05664 86.558594 A 29.599999 29.599999 0 0 0 99.900391 88.669922 L 99.683594 88.453125 C 98.359531 87.129068 97.04254 86.062489 95.921875 85.34375 C 95.127597 85.314545 94.07509 85.114747 92.892578 84.779297 z M 40.273438 86.505859 C 37.561434 89.265832 35.914028 91.991999 36.482422 92.789062 C 36.874288 91.510531 38.354593 89.414952 40.453125 87.316406 L 40.669922 87.099609 A 29.599999 29.599999 0 0 1 40.273438 86.505859 z M 87.726562 86.505859 A 29.599999 29.599999 0 0 1 87.330078 87.099609 L 87.546875 87.316406 C 89.645407 89.414952 91.125712 91.510531 91.517578 92.789062 C 92.085971 91.991998 90.438566 89.265833 87.726562 86.505859 z M 49.056641 94.441406 C 48.029059 97.057378 47.521723 99.411387 47.683594 100.63086 C 47.791681 99.214517 48.332892 97.155151 49.253906 94.931641 L 49.369141 94.650391 A 29.599999 29.599999 0 0 1 49.056641 94.441406 z M 78.943359 94.441406 A 29.599999 29.599999 0 0 1 78.630859 94.650391 L 78.746094 94.931641 C 79.667107 97.15515 80.208317 99.214516 80.316406 100.63086 C 80.478279 99.411387 79.970941 97.057377 78.943359 94.441406 z M 33.773438 94.445312 C 33.695565 94.524924 33.626506 94.603962 33.546875 94.683594 L 33.378906 94.853516 A 29.599999 29.599999 0 0 1 35.712891 98.34375 L 35.931641 98.253906 C 39.719143 96.68506 43.084368 96.183978 43.476562 97.130859 L 44.751953 100.21484 C 44.893751 99.963224 44.96621 99.731321 44.890625 99.548828 L 43.476562 96.130859 C 43.329873 95.776705 42.766911 95.625179 41.921875 95.65625 C 40.589012 96.511082 39.53823 96.866355 39.144531 96.472656 L 38.892578 96.220703 C 37.969523 96.48255 36.971011 96.823382 35.931641 97.253906 L 35.712891 97.34375 A 29.599999 29.599999 0 0 0 33.773438 94.445312 z M 94.273438 94.494141 A 29.599999 29.599999 0 0 0 92.349609 97.369141 L 92.068359 97.253906 C 91.028984 96.823382 90.030476 96.482552 89.107422 96.220703 L 88.855469 96.472656 C 88.461771 96.866354 87.410988 96.511082 86.078125 95.65625 C 85.233092 95.625179 84.670134 95.776698 84.523438 96.130859 L 83.109375 99.548828 C 83.033786 99.731321 83.106253 99.963224 83.248047 100.21484 L 84.523438 97.130859 C 84.915651 96.18396 88.280836 96.68506 92.068359 98.253906 L 92.349609 98.369141 A 29.599999 29.599999 0 0 1 94.669922 94.900391 L 94.453125 94.683594 C 94.389886 94.620355 94.335571 94.557372 94.273438 94.494141 z M 38.720703 105.10742 L 38.537109 105.18359 A 29.599999 29.599999 0 0 1 39.357422 109.30078 L 39.599609 109.30078 C 43.699189 109.30078 47 110.12549 47 111.15039 L 47 110.15039 C 47 109.12549 43.699189 108.30078 39.599609 108.30078 L 39.357422 108.30078 A 29.599999 29.599999 0 0 0 38.720703 105.10742 z M 89.300781 105.11523 A 29.599999 29.599999 0 0 0 88.664062 108.30078 L 88.400391 108.30078 C 84.300811 108.30078 81 109.12549 81 110.15039 L 81 111.15039 C 81 110.12549 84.300811 109.30078 88.400391 109.30078 L 88.664062 109.30078 A 29.599999 29.599999 0 0 1 89.484375 105.19141 L 89.300781 105.11523 z M 33.953125 112.56055 A 24 24 0 0 1 33.009766 118.50195 L 33.232422 118.50195 A 24 24 0 0 0 34 113 A 24 24 0 0 0 33.953125 112.56055 z M 94.046875 112.56836 A 24 24 0 0 0 94 113 A 24 24 0 0 0 94.767578 118.50195 L 94.990234 118.50195 A 24 24 0 0 1 94.046875 112.56836 z " />
  <path
     id="rect48996-8-9-6-9-09-6-7-4"
     style="font-variation-settings:normal;opacity:0.05;vector-effect:none;fill:#000000;fill-opacity:1;stroke:none;stroke-width:0.999997;stroke-linecap:round;stroke-linejoin:round;stroke-miterlimit:4;stroke-dasharray:none;stroke-dashoffset:0;stroke-opacity:0.5;-inkscape-stroke:none;stop-color:#000000;stop-opacity:1"
     d="M 47.683594 35.369141 C 47.521725 36.588613 48.029069 38.942621 49.056641 41.558594 A 29.599999 29.599999 0 0 1 49.369141 41.349609 L 49.253906 41.068359 C 48.332902 38.844849 47.791686 36.785484 47.683594 35.369141 z M 80.316406 35.369141 C 80.208317 36.785484 79.667108 38.844849 78.746094 41.068359 L 78.65625 41.287109 A 29.599999 29.599999 0 0 1 78.966797 41.494141 C 79.977329 38.903951 80.476952 36.578616 80.316406 35.369141 z M 66 43.09375 L 66 44.09375 A 24 24 0 0 1 87.957031 67.53125 A 24 24 0 0 0 88 67 A 24 24 0 0 0 66 43.09375 z M 62 43.175781 A 24 24 0 0 0 40 67 A 24 24 0 0 0 40.046875 67.572266 A 24 24 0 0 1 62 44.175781 L 62 43.175781 z M 36.482422 43.210938 C 35.914028 44.008002 37.561418 46.734167 40.273438 49.494141 A 29.599999 29.599999 0 0 1 40.669922 48.900391 L 40.453125 48.683594 C 38.35458 46.585048 36.874284 44.489469 36.482422 43.210938 z M 91.517578 43.210938 C 91.125712 44.489469 89.645407 46.585048 87.546875 48.683594 L 87.378906 48.853516 A 29.599999 29.599999 0 0 1 87.773438 49.445312 C 90.456703 46.702135 92.082595 44.003268 91.517578 43.210938 z M 29.248047 55.214844 L 29.109375 55.548828 C 28.717175 56.495708 31.450777 58.520994 35.238281 60.089844 L 35.300781 60.115234 A 29.599999 29.599999 0 0 1 35.484375 59.191406 L 35.238281 59.089844 C 32.180745 57.82336 29.841965 56.268775 29.248047 55.214844 z M 98.751953 55.214844 C 98.158021 56.268775 95.819225 57.82336 92.761719 59.089844 L 92.537109 59.183594 A 29.599999 29.599999 0 0 1 92.720703 60.107422 L 92.761719 60.089844 C 96.549185 58.520994 99.282806 56.495709 98.890625 55.548828 L 98.751953 55.214844 z M 64 63.279297 A 3.7211335 3.7211335 0 0 0 60.279297 67 A 3.7211335 3.7211335 0 0 0 60.414062 67.5 A 3.7211335 3.7211335 0 0 1 64 64.279297 A 3.7211335 3.7211335 0 0 1 67.585938 67.5 A 3.7211335 3.7211335 0 0 0 67.720703 67 A 3.7211335 3.7211335 0 0 0 64 63.279297 z M 56.574219 67.537109 A 7.5 7.5 0 0 0 56.5 67.990234 A 7.5 7.5 0 0 0 56.630859 68.957031 L 56.757812 68.884766 A 7.5 7.5 0 0 1 56.574219 67.537109 z M 71.425781 67.537109 A 7.5 7.5 0 0 1 71.242188 68.884766 L 71.369141 68.957031 A 7.5 7.5 0 0 0 71.5 67.990234 A 7.5 7.5 0 0 0 71.425781 67.537109 z M 27 68.849609 L 27 69.849609 C 27 70.874504 30.300811 71.699219 34.400391 71.699219 L 34.664062 71.699219 A 29.599999 29.599999 0 0 0 35.300781 74.884766 L 35.484375 74.808594 A 29.599999 29.599999 0 0 1 34.664062 70.699219 L 34.400391 70.699219 C 30.300811 70.699219 27 69.874504 27 68.849609 z M 101 68.849609 C 101 69.874504 97.699189 70.699219 93.599609 70.699219 L 93.335938 70.699219 A 29.599999 29.599999 0 0 1 92.515625 74.808594 L 92.699219 74.884766 A 29.599999 29.599999 0 0 0 93.335938 71.699219 L 93.599609 71.699219 C 97.699189 71.699219 101 70.874504 101 69.849609 L 101 68.849609 z M 58.769531 72.339844 L 44.371094 80.652344 A 24 24 0 0 0 44.939453 81.324219 L 58.769531 73.339844 A 7.5 7.5 0 0 0 64 75.490234 A 7.5 7.5 0 0 0 69.230469 73.339844 L 83.060547 81.324219 A 24 24 0 0 0 83.628906 80.652344 L 69.230469 72.339844 A 7.5 7.5 0 0 1 64 74.490234 A 7.5 7.5 0 0 1 58.769531 72.339844 z M 26.316406 79.369141 C 26.208317 80.785484 25.667108 82.844849 24.746094 85.068359 L 24.65625 85.287109 A 29.599999 29.599999 0 0 1 24.966797 85.494141 C 25.977329 82.903951 26.476952 80.578616 26.316406 79.369141 z M 101.68359 79.369141 C 101.52172 80.588613 102.02906 82.942621 103.05664 85.558594 A 29.599999 29.599999 0 0 1 103.36914 85.349609 L 103.25391 85.068359 C 102.3329 82.844849 101.79169 80.785484 101.68359 79.369141 z M 29.248047 79.785156 C 29.106253 80.036776 29.033786 80.268679 29.109375 80.451172 L 30.523438 83.869141 C 30.670127 84.223295 31.233089 84.374821 32.078125 84.34375 C 33.410988 83.488917 34.46177 83.133645 34.855469 83.527344 L 35.107422 83.779297 C 36.030477 83.51745 37.028989 83.176618 38.068359 82.746094 L 38.349609 82.630859 A 29.599999 29.599999 0 0 0 40.273438 85.505859 C 40.33557 85.442628 40.389886 85.379645 40.453125 85.316406 L 40.669922 85.099609 A 29.599999 29.599999 0 0 1 38.349609 81.630859 L 38.068359 81.746094 C 34.280855 83.314938 30.915632 83.816021 30.523438 82.869141 L 29.248047 79.785156 z M 98.751953 79.785156 L 97.476562 82.869141 C 97.084367 83.816039 93.719144 83.314939 89.931641 81.746094 L 89.650391 81.630859 A 29.599999 29.599999 0 0 1 87.330078 85.099609 L 87.546875 85.316406 C 87.610114 85.379645 87.66443 85.442628 87.726562 85.505859 A 29.599999 29.599999 0 0 0 89.650391 82.630859 L 89.931641 82.746094 C 90.971011 83.176618 91.969523 83.517448 92.892578 83.779297 L 93.144531 83.527344 C 93.53823 83.133645 94.589012 83.488917 95.921875 84.34375 C 96.766911 84.374822 97.329873 84.223302 97.476562 83.869141 L 98.890625 80.451172 C 98.966214 80.268679 98.893749 80.036776 98.751953 79.785156 z M 12.5 87.140625 L 12.5 88.140625 A 24 24 0 0 1 33.953125 111.56055 A 24 24 0 0 0 34 111 A 24 24 0 0 0 12.5 87.140625 z M 37.517578 87.210938 C 37.125712 88.489469 35.645407 90.585048 33.546875 92.683594 L 33.378906 92.853516 A 29.599999 29.599999 0 0 1 33.773438 93.445312 C 36.456703 90.702135 38.082595 88.003268 37.517578 87.210938 z M 90.482422 87.210938 C 89.914028 88.008002 91.561418 90.734167 94.273438 93.494141 A 29.599999 29.599999 0 0 1 94.669922 92.900391 L 94.453125 92.683594 C 92.35458 90.585048 90.874284 88.489469 90.482422 87.210938 z M 115.5 87.21875 A 24 24 0 0 0 94 111 A 24 24 0 0 0 94.046875 111.56836 A 24 24 0 0 1 115.5 88.21875 L 115.5 87.21875 z M 45.900391 90.330078 L 45.683594 90.546875 C 42.784751 93.445699 39.86925 95.197375 39.144531 94.472656 L 36.527344 91.855469 C 36.508513 91.836638 36.497932 91.810813 36.482422 91.789062 C 36.332981 92.276641 36.327267 92.655393 36.527344 92.855469 L 38.892578 95.220703 C 40.07509 94.885255 41.127596 94.685455 41.921875 94.65625 C 43.042539 93.937511 44.359528 92.870932 45.683594 91.546875 L 45.900391 91.330078 A 29.599999 29.599999 0 0 0 49.056641 93.441406 C 49.123793 93.270452 49.182264 93.104599 49.253906 92.931641 L 49.369141 92.650391 A 29.599999 29.599999 0 0 1 45.900391 90.330078 z M 82.099609 90.330078 A 29.599999 29.599999 0 0 1 78.630859 92.650391 L 78.746094 92.931641 C 78.817736 93.104598 78.876207 93.270453 78.943359 93.441406 A 29.599999 29.599999 0 0 0 82.099609 91.330078 L 82.316406 91.546875 C 83.640471 92.870932 84.957461 93.937511 86.078125 94.65625 C 86.872401 94.685455 87.924911 94.885253 89.107422 95.220703 L 91.472656 92.855469 C 91.672733 92.655392 91.667019 92.276641 91.517578 91.789062 C 91.502068 91.810813 91.491487 91.836638 91.472656 91.855469 L 88.855469 94.472656 C 88.130751 95.197374 85.215248 93.445699 82.316406 90.546875 L 82.099609 90.330078 z M 56.191406 95.515625 L 56.089844 95.761719 C 54.520994 99.549216 52.495708 102.28281 51.548828 101.89062 L 48.130859 100.47656 C 47.888886 100.37633 47.742792 100.07683 47.683594 99.630859 C 47.607566 100.6271 47.739867 101.31461 48.130859 101.47656 L 51.548828 102.89062 C 52.495708 103.28281 54.520994 100.54922 56.089844 96.761719 L 56.191406 96.515625 A 29.599999 29.599999 0 0 0 60.300781 97.335938 L 60.300781 97.599609 C 60.300781 101.6992 61.125496 105 62.150391 105 L 65.849609 105 C 66.874504 105 67.699219 101.6992 67.699219 97.599609 L 67.699219 97.335938 A 29.599999 29.599999 0 0 0 71.808594 96.515625 L 71.910156 96.761719 C 73.479006 100.54924 75.504291 103.28279 76.451172 102.89062 L 79.869141 101.47656 C 80.260141 101.31461 80.392435 100.6271 80.316406 99.630859 C 80.257208 100.07683 80.111118 100.37633 79.869141 100.47656 L 76.451172 101.89062 C 75.504291 102.28279 73.479006 99.549236 71.910156 95.761719 L 71.808594 95.515625 A 29.599999 29.599999 0 0 1 67.699219 96.335938 L 67.699219 96.599609 C 67.699219 100.6992 66.874504 104 65.849609 104 L 62.150391 104 C 61.125496 104 60.300781 100.6992 60.300781 96.599609 L 60.300781 96.335938 A 29.599999 29.599999 0 0 1 56.191406 95.515625 z M 44.751953 99.214844 C 44.158021 100.26878 41.819225 101.82338 38.761719 103.08984 L 38.537109 103.18359 A 29.599999 29.599999 0 0 1 38.720703 104.10742 L 38.761719 104.08984 C 42.549185 102.52102 45.282806 100.49571 44.890625 99.548828 L 44.751953 99.214844 z M 83.248047 99.214844 L 83.109375 99.548828 C 82.717175 100.49571 85.450777 102.52102 89.238281 104.08984 L 89.300781 104.11523 A 29.599999 29.599999 0 0 1 89.484375 103.19141 L 89.238281 103.08984 C 86.180745 101.82338 83.841965 100.26878 83.248047 99.214844 z M 47 112.84961 C 47 113.87451 43.699189 114.69922 39.599609 114.69922 L 39.335938 114.69922 A 29.599999 29.599999 0 0 1 38.777344 117.50195 L 33.232422 117.50195 A 24 24 0 0 1 33.009766 118.50195 L 38.777344 118.50195 A 29.599999 29.599999 0 0 0 39.335938 115.69922 L 39.599609 115.69922 C 43.699189 115.69922 47 114.87451 47 113.84961 L 47 112.84961 z M 81 112.84961 L 81 113.84961 C 81 114.87451 84.300811 115.69922 88.400391 115.69922 L 88.664062 115.69922 A 29.599999 29.599999 0 0 0 89.222656 118.50195 L 94.990234 118.50195 A 24 24 0 0 1 94.767578 117.50195 L 89.222656 117.50195 A 29.599999 29.599999 0 0 1 88.664062 114.69922 L 88.400391 114.69922 C 84.300811 114.69922 81 113.87451 81 112.84961 z " />
</svg>
