<?xml version="1.0" encoding="UTF-8" standalone="no"?>
<svg
   id="svg4113"
   height="128"
   width="128"
   version="1.1"
   xmlns:xlink="http://www.w3.org/1999/xlink"
   xmlns="http://www.w3.org/2000/svg"
   xmlns:svg="http://www.w3.org/2000/svg"
   xmlns:rdf="http://www.w3.org/1999/02/22-rdf-syntax-ns#"
   xmlns:cc="http://creativecommons.org/ns#"
   xmlns:dc="http://purl.org/dc/elements/1.1/">
  <defs
     id="defs4115">
    <linearGradient
       gradientTransform="matrix(2.7297298,0,0,2.7297298,-1.5135184,1.488321)"
       gradientUnits="userSpaceOnUse"
       xlink:href="#linearGradient3924"
       id="linearGradient4136"
       y2="43"
       x2="23.99999"
       y1="4.999989"
       x1="23.99999" />
    <linearGradient
       id="linearGradient3924">
      <stop
         offset="0"
         style="stop-color:#ffffff;stop-opacity:1"
         id="stop3926" />
      <stop
         offset="0.06316455"
         style="stop-color:#ffffff;stop-opacity:0.23529412"
         id="stop3928" />
      <stop
         offset="0.95056331"
         style="stop-color:#ffffff;stop-opacity:0.15686275"
         id="stop3930" />
      <stop
         offset="1"
         style="stop-color:#ffffff;stop-opacity:0.39215687"
         id="stop3932" />
    </linearGradient>
    <radialGradient
       gradientTransform="matrix(2.003784,0,0,1.4,27.98813,-17.4)"
       gradientUnits="userSpaceOnUse"
       xlink:href="#linearGradient3688-166-749-5"
       id="radialGradient4093"
       fy="43.5"
       fx="4.9929786"
       r="2.5"
       cy="43.5"
       cx="4.9929786" />
    <linearGradient
       id="linearGradient3688-166-749-5">
      <stop
         offset="0"
         style="stop-color:#181818;stop-opacity:1"
         id="stop2883-0" />
      <stop
         offset="1"
         style="stop-color:#181818;stop-opacity:0"
         id="stop2885-5" />
    </linearGradient>
    <radialGradient
       gradientTransform="matrix(2.003784,0,0,1.4,-20.01187,-104.4)"
       gradientUnits="userSpaceOnUse"
       xlink:href="#linearGradient3688-464-309-8"
       id="radialGradient4095"
       fy="43.5"
       fx="4.9929786"
       r="2.5"
       cy="43.5"
       cx="4.9929786" />
    <linearGradient
       id="linearGradient3688-464-309-8">
      <stop
         offset="0"
         style="stop-color:#181818;stop-opacity:1"
         id="stop2889-9" />
      <stop
         offset="1"
         style="stop-color:#181818;stop-opacity:0"
         id="stop2891-4" />
    </linearGradient>
    <linearGradient
       gradientUnits="userSpaceOnUse"
       xlink:href="#linearGradient3702-501-757-0"
       id="linearGradient4097"
       y2="39.999443"
       x2="25.058096"
       y1="47.027729"
       x1="25.058096" />
    <linearGradient
       id="linearGradient3702-501-757-0">
      <stop
         offset="0"
         style="stop-color:#181818;stop-opacity:0"
         id="stop2895-0" />
      <stop
         offset="0.5"
         style="stop-color:#181818;stop-opacity:1"
         id="stop2897-2" />
      <stop
         offset="1"
         style="stop-color:#181818;stop-opacity:0"
         id="stop2899-6" />
    </linearGradient>
    <linearGradient
       id="linearGradient3811">
      <stop
         offset="0"
         style="stop-color:#000000;stop-opacity:1"
         id="stop3813" />
      <stop
         offset="1"
         style="stop-color:#000000;stop-opacity:0"
         id="stop3815" />
    </linearGradient>
    <radialGradient
       gradientTransform="matrix(1.5563924,0,0,0.16978827,70.270355,102.1321)"
       gradientUnits="userSpaceOnUse"
       xlink:href="#linearGradient3811"
       id="radialGradient4111"
       fy="93.467628"
       fx="-4.0287771"
       r="35.338131"
       cy="93.467628"
       cx="-4.0287771" />
    <linearGradient
       id="linearGradient149777">
      <stop
         style="stop-color:#fafafa;stop-opacity:1"
         offset="0"
         id="stop149769" />
      <stop
         style="stop-color:#abacae;stop-opacity:1"
         offset="0.42301154"
         id="stop149771" />
      <stop
         style="stop-color:#d4d4d4;stop-opacity:1"
         offset="0.7009123"
         id="stop149773" />
      <stop
         style="stop-color:#7e8087;stop-opacity:1"
         offset="1"
         id="stop149775" />
    </linearGradient>
    <linearGradient
       id="linearGradient55160">
      <stop
         style="stop-color:#4d4d4d;stop-opacity:1"
         offset="0"
         id="stop55156" />
      <stop
         style="stop-color:#1a1a1a;stop-opacity:1"
         offset="1"
         id="stop55158" />
    </linearGradient>
    <linearGradient
       xlink:href="#linearGradient55160"
       id="linearGradient1"
       gradientUnits="userSpaceOnUse"
       gradientTransform="matrix(0.69230783,0,0,0.69230789,-196.6154,-97.30769)"
       x1="375.33371"
       y1="164.04776"
       x2="375.33371"
       y2="310.67001" />
    <linearGradient
       xlink:href="#linearGradient149777"
       id="linearGradient2"
       gradientUnits="userSpaceOnUse"
       gradientTransform="matrix(1.8499999,0,0,1.8499999,-95.099996,-283.49999)"
       x1="74.881271"
       y1="172.83885"
       x2="97.295143"
       y2="207.14944"
       spreadMethod="reflect" />
    <linearGradient
       xlink:href="#linearGradient149777"
       id="linearGradient4"
       gradientUnits="userSpaceOnUse"
       gradientTransform="matrix(-1.8545451,0,0,-1.8545451,169.70907,464.87445)"
       x1="74.881271"
       y1="172.83885"
       x2="97.295143"
       y2="207.14944"
       spreadMethod="reflect" />
    <linearGradient
       xlink:href="#linearGradient149777"
       id="linearGradient5"
       gradientUnits="userSpaceOnUse"
       gradientTransform="matrix(-1.8545451,0,0,-1.8545451,277.70907,464.87445)"
       x1="74.881271"
       y1="172.83885"
       x2="97.295143"
       y2="207.14944"
       spreadMethod="reflect" />
  </defs>
  <metadata
     id="metadata4118">
    <rdf:RDF>
      <cc:Work
         rdf:about="">
        <dc:format>image/svg+xml</dc:format>
        <dc:type
           rdf:resource="http://purl.org/dc/dcmitype/StillImage" />
      </cc:Work>
    </rdf:RDF>
  </metadata>
  <path
     d="m 119,118.00181 a 55,6 0 0 1 -109.9999982,0 55,6 0 1 1 109.9999982,0 z"
     id="path3041"
     style="color:#000000;display:inline;overflow:visible;visibility:visible;opacity:0.2;fill:url(#radialGradient4111);fill-opacity:1;fill-rule:nonzero;stroke:none;stroke-width:1;marker:none;enable-background:accumulate" />
  <g
     transform="matrix(2.6999989,0,0,0.55555607,-0.80000812,94.890691)"
     id="g2036"
     style="display:inline">
    <g
       transform="matrix(1.052632,0,0,1.285713,-1.263158,-13.42854)"
       id="g3712"
       style="opacity:0.4">
      <rect
         width="5"
         height="7"
         x="38"
         y="40"
         id="rect2801"
         style="fill:url(#radialGradient4093);fill-opacity:1;stroke:none" />
      <rect
         width="5"
         height="7"
         x="-10"
         y="-47"
         transform="scale(-1,-1)"
         id="rect3696"
         style="fill:url(#radialGradient4095);fill-opacity:1;stroke:none" />
      <rect
         width="28"
         height="7.0000005"
         x="10"
         y="40"
         id="rect3700"
         style="fill:url(#linearGradient4097);fill-opacity:1;stroke:none" />
    </g>
  </g>
  <rect
     width="103"
     height="103"
     rx="10"
     ry="10"
     x="12.499988"
     y="15.501808"
     id="rect5505-21-3"
     style="color:#000000;display:inline;overflow:visible;visibility:visible;opacity:1;fill:url(#linearGradient1);fill-opacity:1;fill-rule:nonzero;stroke:#000000;stroke-width:0.999998;marker:none;enable-background:accumulate;font-variation-settings:normal;vector-effect:none;stroke-linecap:butt;stroke-linejoin:miter;stroke-miterlimit:4;stroke-dasharray:none;stroke-dashoffset:0;stroke-opacity:0.5;-inkscape-stroke:none;stop-color:#000000;stop-opacity:1" />
  <path
     id="rect48996-8-9-6-9-09-6-2"
     style="font-variation-settings:normal;opacity:0.15;vector-effect:none;fill:#000000;fill-opacity:1;stroke:none;stroke-width:0.999997;stroke-linecap:round;stroke-linejoin:round;stroke-miterlimit:4;stroke-dasharray:none;stroke-dashoffset:0;stroke-opacity:0.5;-inkscape-stroke:none;stop-color:#000000;stop-opacity:1"
     d="m 62.048828,31.005859 c -1.437113,0.190053 -1.897316,1.838638 -2.203756,3.033071 -0.366366,1.562944 -0.505362,3.171321 -0.536478,4.77357 -0.850903,0.122119 -1.692766,0.290189 -2.525391,0.503906 -0.971925,-2.085278 -1.994108,-4.287959 -3.800781,-5.785156 -0.707945,-0.608265 -1.700054,-0.534735 -2.463236,-0.0781 -1.07057,0.514352 -2.281448,0.792262 -3.253959,1.474983 -0.969773,1.140449 -0.572427,2.784646 -0.342147,4.123255 0.280674,1.330844 0.709164,2.626535 1.203873,3.891971 -0.735677,0.433935 -1.443545,0.90969 -2.126953,1.421875 -1.70166,-1.568722 -3.498574,-3.222832 -5.753906,-3.919922 -0.887595,-0.294935 -1.773,0.158843 -2.303569,0.869975 -0.785859,0.887597 -1.806864,1.597961 -2.439429,2.602592 -0.464929,1.424911 0.534197,2.800524 1.260785,3.950309 0.769571,1.120222 1.659347,2.15391 2.601353,3.131812 -0.512377,0.683278 -0.987711,1.391428 -1.421875,2.126953 -2.172347,-0.797395 -4.464573,-1.634721 -6.814453,-1.419922 -0.929025,0.07271 -1.582067,0.823635 -1.796899,1.687846 -0.38888,1.12182 -1.055291,2.172005 -1.256104,3.34377 0.122041,1.491466 1.563338,2.377804 2.675561,3.159331 1.128455,0.734161 2.333471,1.34442 3.564942,1.885225 -0.21396,0.832575 -0.381579,1.674528 -0.503906,2.525391 -2.298284,0.09489 -4.722922,0.202661 -6.796875,1.296875 -0.833894,0.420055 -1.145837,1.365012 -1.015625,2.244922 0.06769,1.182184 -0.140608,2.403343 0.113651,3.560679 0.678311,1.338652 2.354329,1.605628 3.683118,1.904226 1.323904,0.244294 2.670571,0.352763 4.015731,0.37611 0.122119,0.850903 0.290189,1.692766 0.503906,2.525391 -2.085278,0.971925 -4.287959,1.994108 -5.785156,3.800781 -0.608265,0.707945 -0.534735,1.700054 -0.0781,2.463236 0.514352,1.07057 0.792262,2.281448 1.474983,3.253959 0.508239,0.350982 0.815605,0.468636 0.109568,0.839373 -0.692348,0.546805 -1.354,1.131853 -1.988873,1.744213 -0.688884,-0.520811 -1.407292,-0.997703 -2.15039,-1.4375 0.783676,-2.153932 1.609711,-4.424642 1.394531,-6.751953 -0.07271,-0.929025 -0.823635,-1.582067 -1.687846,-1.796899 -1.12182,-0.38888 -2.172005,-1.055291 -3.34377,-1.256104 -1.491466,0.122041 -2.377804,1.563338 -3.159331,2.675561 -0.730793,1.122368 -1.337158,2.32133 -1.877413,3.545411 C 16.388461,83.080617 15.54242,82.913231 14.6875,82.791016 14.587939,80.50482 14.484571,78.086967 13.386066,76.027312 12.923574,75.517446 12.347658,75.43981 11.765625,75.814453 11.2613,76.829323 11.596415,78.002395 11.5,79.094141 c 0,3.348828 0,6.697656 0,10.046484 0.442281,0.428137 0.712389,1.165959 1.44065,1.079707 4.445868,0.558473 8.704827,2.472934 12.088958,5.405636 3.191189,2.746489 5.585702,6.391532 6.868147,10.400042 1.0948,3.45571 1.395273,7.17549 0.720716,10.74662 -0.07566,1.10307 -0.824232,2.17232 -0.403093,3.26942 0.608731,0.67527 1.656664,0.41037 2.494388,0.4599 1.355859,0 2.711718,0 4.067578,0 0.492453,-0.41571 1.160034,-0.72206 1.129629,-1.46431 0.251029,-0.41239 -0.02891,-1.40554 0.587489,-1.3519 2.225183,-0.12348 4.58978,-0.22733 6.572412,-1.34772 0.839979,-0.44081 1.03981,-1.42162 0.933126,-2.28841 -0.06702,-1.1489 0.139673,-2.33661 -0.113651,-3.46068 -0.678311,-1.33865 -2.354329,-1.60563 -3.683118,-1.90423 -1.316845,-0.24329 -2.65627,-0.35103 -3.994247,-0.37611 -0.122289,-0.85361 -0.290366,-1.69821 -0.505859,-2.5332 2.077854,-0.97177 4.273623,-1.99083 5.765625,-3.79297 0.608265,-0.70794 0.534735,-1.70005 0.0781,-2.463234 -0.514352,-1.07057 -0.792262,-2.281448 -1.474983,-3.253959 -0.508239,-0.350982 -0.815605,-0.468636 -0.109568,-0.839373 0.710105,-0.560748 1.38768,-1.161927 2.037701,-1.791088 0.683278,0.512377 1.391428,0.987711 2.126953,1.421875 -0.797395,2.172347 -1.634721,4.464573 -1.419922,6.814449 0.07271,0.92903 0.823635,1.58207 1.687846,1.7969 1.12182,0.38888 2.172005,1.05529 3.34377,1.25611 1.491298,-0.12219 2.378036,-1.56315 3.159331,-2.67556 0.734161,-1.12846 1.34442,-2.333475 1.885225,-3.564946 0.832575,0.21396 1.674528,0.381579 2.525391,0.503906 0.09489,2.29828 0.202661,4.72292 1.296875,6.79688 0.420055,0.83389 1.365012,1.14583 2.244922,1.01562 1.182184,-0.0677 2.403343,0.14061 3.560679,-0.11365 1.338652,-0.67831 1.605628,-2.35433 1.904226,-3.68312 0.244294,-1.3239 0.352763,-2.67057 0.37611,-4.01573 0.850903,-0.122119 1.692766,-0.290189 2.525391,-0.503906 0.971946,2.085286 1.993987,4.288006 3.800781,5.785156 0.707945,0.60826 1.700054,0.53473 2.463236,0.0781 1.07057,-0.51435 2.281448,-0.79226 3.253959,-1.47498 0.969773,-1.14045 0.572427,-2.78465 0.342147,-4.123258 -0.280674,-1.330844 -0.709164,-2.626535 -1.203873,-3.891971 0.735677,-0.433935 1.443545,-0.90969 2.126953,-1.421875 0.817789,0.79044 1.678158,1.53876 2.591797,2.216796 -1.189838,0.412247 -1.264509,1.871902 -1.794996,2.836974 -0.359265,0.95473 -1.124423,2.047084 -0.429613,3.041934 1.218568,1.75389 3.236761,2.7111 5.085937,3.66015 0.659911,0.18285 1.057884,0.4824 0.679841,1.17127 -0.15157,0.57331 -0.216952,1.16384 -0.320466,1.7467 -2.298284,0.0949 -4.722922,0.20266 -6.796875,1.29688 -0.833894,0.42005 -1.145837,1.36501 -1.015625,2.24492 0.06768,1.18218 -0.140608,2.40334 0.113651,3.56068 0.678311,1.33865 2.354329,1.60563 3.683118,1.90423 1.327112,0.24475 2.677072,0.35353 4.025497,0.37611 0.150432,0.69198 0.214132,1.46766 0.501915,2.09176 0.481496,0.38592 0.918298,0.89926 1.598475,0.71878 1.71537,-0.0302 3.459326,0.0602 5.156934,-0.0449 0.672796,-0.14145 0.961019,-0.75016 0.833181,-1.38945 -0.932664,-3.26732 -1.163484,-6.73895 -0.525929,-10.08392 0.670559,-3.74431 2.308988,-7.29927 4.676698,-10.274367 2.75349,-3.415486 6.48583,-6.039866 10.65586,-7.41739 1.5952,-0.554813 3.26227,-0.858795 4.93294,-1.084902 0.35578,-0.502325 1.04389,-0.881651 0.84766,-1.588281 0,-4.041536 0,-8.083073 0,-12.124609 -0.15679,-0.663109 -0.71067,-1.071702 -1.3622,-0.897665 -1.02129,0.657147 -1.14248,2.01337 -1.42657,3.094753 -0.2596,1.357329 -0.37525,2.740338 -0.39873,4.121271 -0.85224,0.12187 -1.69546,0.289684 -2.5293,0.503906 -0.97192,-2.085278 -1.9941,-4.287959 -3.80078,-5.785156 -0.70794,-0.608265 -1.70005,-0.534735 -2.46323,-0.0781 -1.07057,0.514352 -2.28145,0.792262 -3.25396,1.474983 -0.96978,1.140449 -0.57243,2.784646 -0.34215,4.123255 0.28067,1.330844 0.70916,2.626535 1.20387,3.891971 -0.73567,0.433935 -1.44354,0.90969 -2.12695,1.421875 -0.817789,-0.79044 -1.678158,-1.53876 -2.591797,-2.216796 1.189838,-0.412247 1.264509,-1.871902 1.794996,-2.836974 0.359265,-0.95473 1.124421,-2.047086 0.429613,-3.041933 -1.218536,-1.753985 -3.236712,-2.711155 -5.085937,-3.660156 -0.659911,-0.182844 -1.057884,-0.482399 -0.679841,-1.171263 0.15157,-0.573314 0.216952,-1.163844 0.320466,-1.746706 2.298284,-0.09489 4.722922,-0.202661 6.79688,-1.296875 0.83389,-0.420055 1.14583,-1.365012 1.01562,-2.244922 -0.0677,-1.182184 0.14061,-2.403343 -0.11365,-3.560679 -0.67831,-1.338652 -2.35433,-1.605628 -3.683119,-1.904226 -1.316845,-0.243292 -2.65627,-0.351035 -3.994247,-0.37611 -0.122289,-0.853615 -0.290366,-1.698214 -0.505859,-2.533203 2.077854,-0.971771 4.273623,-1.990827 5.765625,-3.792969 0.60826,-0.707945 0.53473,-1.700054 0.0781,-2.463236 -0.514352,-1.07057 -0.792262,-2.281448 -1.474983,-3.253959 -1.140449,-0.969773 -2.784646,-0.572427 -4.123255,-0.342147 -1.309076,0.275305 -2.583198,0.696407 -3.829471,1.178482 -0.439647,-0.743197 -0.916916,-1.461352 -1.4375,-2.15039 1.550523,-1.688316 3.184501,-3.470975 3.873047,-5.705078 0.294935,-0.887595 -0.158843,-1.773 -0.869975,-2.303569 -0.887597,-0.785859 -1.597961,-1.806864 -2.602592,-2.439429 -1.424911,-0.464929 -2.800524,0.534197 -3.950309,1.260785 -1.101648,0.756694 -2.119552,1.629958 -3.082984,2.554478 -0.688884,-0.520811 -1.407292,-0.997703 -2.15039,-1.4375 0.783676,-2.153932 1.609711,-4.424642 1.394531,-6.751953 -0.07271,-0.929025 -0.823635,-1.582067 -1.687846,-1.796899 -1.12182,-0.38888 -2.172005,-1.055291 -3.34377,-1.256104 -1.491466,0.122041 -2.377804,1.563338 -3.159331,2.675561 -0.730793,1.122368 -1.337158,2.32133 -1.877413,3.545411 -0.83494,-0.21573 -1.679628,-0.383364 -2.533203,-0.505859 C 68.594381,36.499813 68.48619,34.082902 67.394531,32.015625 66.974476,31.181731 66.029519,30.869788 65.149609,31 c -1.033513,0.0039 -2.067559,-0.0078 -3.100781,0.0059 z m 6.140625,15.390625 c 3.499714,0.695019 6.865594,2.127371 9.697503,4.311275 3.116835,2.339727 5.590313,5.510737 7.162588,9.074051 1.758115,4.025274 2.369427,8.565697 1.605145,12.901463 -0.311233,1.739125 -0.791328,3.456496 -1.502345,5.076493 -4.26237,-2.460287 -8.52474,-4.920573 -12.78711,-7.38086 0.649806,-3.519478 -1.24842,-7.317177 -4.453992,-8.910602 C 67.396551,61.188733 66.741519,61.123554 67,60.364453 c 0,-4.709375 0,-9.41875 0,-14.128125 0.396484,0.05339 0.792969,0.106771 1.189453,0.160156 z M 61,61.068359 c -3.143375,1.125095 -5.40158,4.288537 -5.478334,7.623598 -0.03675,0.561919 0.01533,1.133117 0.1131,1.686949 -4.26237,2.460287 -8.52474,4.920573 -12.78711,7.38086 -1.71945,-4.001607 -2.269049,-8.514555 -1.453439,-12.800643 0.688768,-3.829232 2.394701,-7.454526 4.847788,-10.470965 2.547549,-3.068264 5.883977,-5.479242 9.616921,-6.889142 1.661055,-0.608709 3.380509,-1.081035 5.141074,-1.280657 0,4.916667 0,9.833334 0,14.75 z m 3.609375,5.28711 c 1.711677,0.347902 2.66978,2.509726 1.729477,3.991576 -0.822784,1.593847 -3.270411,1.81931 -4.385765,0.420495 -1.250839,-1.333008 -0.608002,-3.791015 1.152291,-4.312088 0.475719,-0.196723 1.004443,-0.180694 1.503997,-0.09998 z m -5.597656,9.496093 c 2.441969,1.787509 5.842914,2.144802 8.575103,0.818554 0.619435,-0.304739 1.23146,-0.656366 1.753022,-1.113475 4.267578,2.464192 8.535156,4.928385 12.802734,7.392578 -2.156763,2.856816 -5.018602,5.185892 -8.246288,6.731193 -3.274982,1.602013 -6.951628,2.401538 -10.595302,2.282407 -4.118656,-0.12323 -8.175466,-1.42283 -11.644217,-3.638003 -2.20744,-1.458258 -4.216056,-3.248814 -5.799349,-5.375597 4.267578,-2.464193 8.535156,-4.928386 12.802734,-7.392578 0.117188,0.09831 0.234375,0.196614 0.351563,0.294921 z m -20.41211,10.082032 c 0.149885,0.440625 1.064034,0.928039 0.523783,1.319401 -0.378302,0.408906 -0.652599,0.943237 -0.943704,0.184505 -0.64974,-0.64974 -1.29948,-1.299479 -1.949219,-1.949219 0.576499,-0.188788 1.148825,-0.391862 1.71289,-0.615234 0.21875,0.353515 0.4375,0.707031 0.65625,1.060547 z m 51.666016,-0.976563 c 0.498364,0.185149 0.997688,0.368636 1.503906,0.53125 -0.731844,0.832618 -1.700134,1.48936 -2.271484,2.44336 -0.192526,-0.4035 -1.081964,-0.745405 -0.688064,-1.175155 0.457886,-0.599501 0.856597,-1.238643 1.246658,-1.883439 0.06966,0.028 0.139323,0.05599 0.208984,0.08398 z m -54.722656,9.216797 c 0.622946,0.87516 1.501874,1.544808 2.226562,2.337891 -0.555425,0.181025 -1.105922,0.378105 -1.65039,0.589843 -0.439647,-0.743197 -0.916916,-1.461352 -1.4375,-2.15039 0.271222,-0.187217 0.663491,-0.901822 0.861328,-0.777344 z m 57.126953,0.08594 c 0.35096,0.397172 0.991097,0.768316 0.344878,1.227262 -0.39953,0.518316 -0.72555,1.085807 -1.071441,1.639925 -0.564008,-0.223507 -1.136404,-0.426445 -1.71289,-0.615234 0.731844,-0.832618 1.700134,-1.48936 2.271484,-2.44336 0.05599,0.0638 0.111979,0.127605 0.167969,0.191407 z" />
  <path
     id="rect48996-8-9-6-9-09-6"
     style="font-variation-settings:normal;fill:#000000;fill-opacity:1;stroke:none;stroke-width:0.999997;stroke-linecap:round;stroke-linejoin:round;stroke-miterlimit:4;stroke-dasharray:none;stroke-dashoffset:0;stroke-opacity:0.5;stop-color:#000000;opacity:0.3;vector-effect:none;-inkscape-stroke:none;stop-opacity:1"
     d="m 62.150391,32 c -1.024896,0 -1.84961,3.300807 -1.84961,7.400391 v 0.263671 a 29.599999,29.599999 0 0 0 -4.109375,0.820313 L 56.089844,40.238281 C 54.520993,36.450774 52.49571,33.717193 51.548828,34.109375 l -3.417969,1.414063 c -0.946882,0.392195 -0.445783,3.757413 1.123047,7.544921 l 0.115235,0.28125 a 29.599999,29.599999 0 0 0 -3.46875,2.320313 l -0.216797,-0.216797 c -2.898845,-2.898827 -5.814343,-4.650501 -6.539063,-3.925781 l -2.617187,2.617187 c -0.724719,0.724719 1.026936,3.640217 3.925781,6.539063 l 0.216797,0.216797 a 29.599999,29.599999 0 0 0 -2.320313,3.46875 l -0.28125,-0.115235 c -3.787527,-1.568848 -7.152707,-2.069947 -7.544921,-1.123047 l -1.414063,3.417969 c -0.3922,0.946881 2.341398,2.972165 6.128906,4.541016 l 0.246094,0.101562 a 29.599999,29.599999 0 0 0 -0.820313,4.109375 H 34.400391 C 30.300807,65.300781 27,66.125495 27,67.150391 v 3.699218 c 0,1.024896 3.300807,1.84961 7.400391,1.84961 h 0.263671 a 29.599999,29.599999 0 0 0 0.820313,4.109375 l -0.246094,0.101562 c -3.787507,1.568851 -6.521107,3.594134 -6.128906,4.541016 l 1.414063,3.417969 c 0.392195,0.946881 3.757413,0.445799 7.544921,-1.123047 l 0.28125,-0.115235 a 29.599999,29.599999 0 0 0 2.320313,3.46875 l -0.216797,0.216797 c -2.898827,2.898845 -4.650501,5.814345 -3.925781,6.539063 l 2.617187,2.617187 c 0.724719,0.724719 3.640217,-1.026954 6.539063,-3.925781 l 0.216797,-0.216797 a 29.599999,29.599999 0 0 0 3.46875,2.320313 l -0.115235,0.28125 c -1.568848,3.787507 -2.06991,7.152719 -1.123047,7.544919 l 3.417969,1.41406 c 0.946881,0.39219 2.972165,-2.3414 4.541016,-6.128901 l 0.101562,-0.246094 a 29.599999,29.599999 0 0 0 4.109375,0.820313 v 0.263671 c 0,4.099591 0.824714,7.400391 1.84961,7.400391 h 3.699218 c 1.024896,0 1.84961,-3.3008 1.84961,-7.400391 v -0.263671 a 29.599999,29.599999 0 0 0 4.109375,-0.820313 l 0.101562,0.246094 c 1.568851,3.787521 3.594134,6.521071 4.541016,6.128901 l 3.417969,-1.41406 c 0.946881,-0.3922 0.445799,-3.757413 -1.123047,-7.544919 l -0.115235,-0.28125 a 29.599999,29.599999 0 0 0 3.46875,-2.320313 l 0.216797,0.216797 c 2.898845,2.898827 5.814345,4.650499 6.539063,3.925781 l 2.617187,-2.617187 c 0.724719,-0.724719 -1.026954,-3.640217 -3.925781,-6.539063 l -0.216797,-0.216797 a 29.599999,29.599999 0 0 0 2.320313,-3.46875 l 0.28125,0.115235 c 3.787507,1.568847 7.152725,2.069946 7.544921,1.123047 l 1.414063,-3.417969 c 0.392199,-0.946882 -2.341436,-2.972164 -6.128906,-4.541016 l -0.246094,-0.101562 a 29.599999,29.599999 0 0 0 0.820313,-4.109375 h 0.263671 c 4.099584,0 7.400391,-0.824714 7.400391,-1.84961 v -3.699218 c 0,-1.024896 -3.300807,-1.84961 -7.400391,-1.84961 h -0.242187 a 29.599999,29.599999 0 0 0 -0.820313,-4.117187 l 0.22461,-0.09375 c 3.78747,-1.568851 6.521087,-3.594134 6.128906,-4.541016 l -1.414063,-3.417969 c -0.392195,-0.946882 -3.757415,-0.445801 -7.544921,1.123047 l -0.21875,0.08984 a 29.599999,29.599999 0 0 0 -2.333985,-3.490234 l 0.167969,-0.169922 c 2.898827,-2.898845 4.650499,-5.814345 3.925781,-6.539063 l -2.617187,-2.617187 c -0.724719,-0.72472 -3.640217,1.026954 -6.539063,3.925781 l -0.169922,0.167969 A 29.599999,29.599999 0 0 0 78.65625,43.287109 l 0.08984,-0.21875 c 1.568847,-3.787508 2.069929,-7.152725 1.123047,-7.544921 l -3.417969,-1.414063 c -0.946882,-0.3922 -2.972165,2.341417 -4.541016,6.128906 l -0.09375,0.22461 A 29.599999,29.599999 0 0 0 67.699219,39.642578 V 39.400391 C 67.699219,35.300807 66.874505,32 65.849609,32 Z M 66,45.09375 A 24,24 0 0 1 88,69 24,24 0 0 1 85.628906,79.189453 L 71.242188,70.884766 A 7.5,7.5 0 0 0 71.5,68.990234 7.5,7.5 0 0 0 66,61.763672 Z m -4,0.08203 v 16.591797 a 7.5,7.5 0 0 0 -5.5,7.222656 7.5,7.5 0 0 0 0.257812,1.894532 L 42.371094,79.189453 A 24,24 0 0 1 40,69 24,24 0 0 1 62,45.175781 Z m 2,20.103516 A 3.7211335,3.7211335 0 0 1 67.720703,69 3.7211335,3.7211335 0 0 1 64,72.720703 3.7211335,3.7211335 0 0 1 60.279297,69 3.7211335,3.7211335 0 0 1 64,65.279297 Z m -5.230469,9.060547 A 7.5,7.5 0 0 0 64,76.490234 a 7.5,7.5 0 0 0 5.230469,-2.15039 l 14.398437,8.3125 A 24,24 0 0 1 64,93 24,24 0 0 1 44.371094,82.652344 Z M 12.5,76.494141 V 89.140625 A 24,24 0 0 1 34,113 a 24,24 0 0 1 -0.990234,6.50195 h 5.767578 a 29.599999,29.599999 0 0 0 0.558594,-2.80273 h 0.263671 C 43.699193,116.69922 47,115.87451 47,114.84961 v -3.69922 c 0,-1.0249 -3.300807,-1.84961 -7.400391,-1.84961 h -0.242187 a 29.599999,29.599999 0 0 0 -0.820313,-4.11719 l 0.22461,-0.0937 c 3.78747,-1.56883 6.521087,-3.59413 6.128906,-4.54101 l -1.414063,-3.417971 c -0.392195,-0.946882 -3.757415,-0.445801 -7.544921,1.123047 l -0.21875,0.08984 a 29.599999,29.599999 0 0 0 -2.333985,-3.490234 l 0.167969,-0.169922 c 2.898827,-2.898845 4.650499,-5.814345 3.925781,-6.539063 l -2.617187,-2.617187 c -0.724719,-0.72472 -3.640217,1.026954 -6.539063,3.925781 l -0.169922,0.167969 A 29.599999,29.599999 0 0 0 24.65625,87.287109 l 0.08984,-0.21875 c 1.568847,-3.787508 2.069929,-7.152725 1.123047,-7.544921 l -3.417969,-1.414063 c -0.946882,-0.3922 -2.972165,2.341417 -4.541016,6.128906 l -0.09375,0.22461 a 29.599999,29.599999 0 0 0 -4.117187,-0.820313 v -0.242187 c 0,-3.177634 -0.499083,-5.853584 -1.199219,-6.90625 z m 103,0 c -0.70014,1.052666 -1.19922,3.728616 -1.19922,6.90625 v 0.263671 a 29.599999,29.599999 0 0 0 -4.10937,0.820313 l -0.10157,-0.246094 c -1.56883,-3.787507 -3.59413,-6.521088 -4.54101,-6.128906 l -3.41797,1.414063 c -0.94688,0.392195 -0.44579,3.757413 1.12305,7.544921 l 0.11523,0.28125 a 29.599999,29.599999 0 0 0 -3.468749,2.320313 l -0.216797,-0.216797 c -2.898841,-2.898827 -5.814343,-4.650501 -6.539063,-3.925781 l -2.617187,2.617187 c -0.724719,0.724719 1.026936,3.640217 3.925781,6.539063 l 0.216797,0.216797 a 29.599999,29.599999 0 0 0 -2.320313,3.46875 l -0.28125,-0.115235 c -3.787527,-1.568848 -7.152707,-2.069947 -7.544921,-1.123047 l -1.414063,3.417971 c -0.3922,0.94688 2.341398,2.97218 6.128906,4.54101 l 0.246094,0.10157 a 29.599999,29.599999 0 0 0 -0.820313,4.10937 H 88.400391 C 84.300807,109.30078 81,110.12549 81,111.15039 v 3.69922 c 0,1.0249 3.300807,1.84961 7.400391,1.84961 h 0.263671 a 29.599999,29.599999 0 0 0 0.558594,2.80273 h 5.767578 A 24,24 0 0 1 94,113 24,24 0 0 1 115.5,89.21875 Z" />
  <path
     id="rect48996-8-9-6-9-09-7"
     style="font-variation-settings:normal;fill:url(#linearGradient4);fill-opacity:1;stroke:none;stroke-width:0.999999;stroke-linecap:round;stroke-linejoin:round;stroke-miterlimit:4;stroke-dasharray:none;stroke-dashoffset:0;stroke-opacity:0.5;stop-color:#000000;opacity:1;vector-effect:none;-inkscape-stroke:none;stop-opacity:1"
     d="M 12.5 75.494141 L 12.5 88.140625 A 24 24 0 0 1 34 112 A 24 24 0 0 1 33.009766 118.50195 L 38.777344 118.50195 A 29.599999 29.599999 0 0 0 39.335938 115.69922 L 39.599609 115.69922 C 43.699197 115.69922 47 114.87451 47 113.84961 L 47 110.15039 C 47 109.12549 43.699197 108.30078 39.599609 108.30078 L 39.357422 108.30078 A 29.599999 29.599999 0 0 0 38.537109 104.18359 L 38.761719 104.08984 C 42.549193 102.521 45.282806 100.49571 44.890625 99.548828 L 43.476562 96.130859 C 43.084366 95.183976 39.719151 95.685056 35.931641 97.253906 L 35.712891 97.34375 A 29.599999 29.599999 0 0 0 33.378906 93.853516 L 33.546875 93.683594 C 36.445705 90.784746 38.197374 87.869249 37.472656 87.144531 L 34.855469 84.527344 C 34.13075 83.802624 31.215255 85.554295 28.316406 88.453125 L 28.146484 88.621094 A 29.599999 29.599999 0 0 0 24.65625 86.287109 L 24.746094 86.068359 C 26.314943 82.280847 26.816024 78.915635 25.869141 78.523438 L 22.451172 77.109375 C 21.504289 76.717175 19.479008 79.450788 17.910156 83.238281 L 17.816406 83.462891 A 29.599999 29.599999 0 0 0 13.699219 82.642578 L 13.699219 82.400391 C 13.699219 79.222754 13.200137 76.546808 12.5 75.494141 z " />
  <path
     id="rect48996-8-9-6-9-09-7-4"
     style="font-variation-settings:normal;vector-effect:none;fill:url(#linearGradient5);fill-opacity:1;stroke:none;stroke-width:0.999999;stroke-linecap:round;stroke-linejoin:round;stroke-miterlimit:4;stroke-dasharray:none;stroke-dashoffset:0;stroke-opacity:0.5;-inkscape-stroke:none;stop-color:#000000"
     d="M 115.5 75.494141 C 114.79986 76.546808 114.30078 79.222754 114.30078 82.400391 L 114.30078 82.664062 A 29.599999 29.599999 0 0 0 110.19141 83.484375 L 110.08984 83.238281 C 108.521 79.45077 106.49571 76.717193 105.54883 77.109375 L 102.13086 78.523438 C 101.18398 78.915634 101.68507 82.280847 103.25391 86.068359 L 103.36914 86.349609 A 29.599999 29.599999 0 0 0 99.900391 88.669922 L 99.683594 88.453125 C 96.78475 85.554295 93.869251 83.802624 93.144531 84.527344 L 90.527344 87.144531 C 89.802625 87.86925 91.554277 90.784745 94.453125 93.683594 L 94.669922 93.900391 A 29.599999 29.599999 0 0 0 92.349609 97.369141 L 92.068359 97.253906 C 88.280828 95.685056 84.915653 95.183958 84.523438 96.130859 L 83.109375 99.548828 C 82.717175 100.49571 85.450769 102.521 89.238281 104.08984 L 89.484375 104.19141 A 29.599999 29.599999 0 0 0 88.664062 108.30078 L 88.400391 108.30078 C 84.300803 108.30078 81 109.12549 81 110.15039 L 81 113.84961 C 81 114.87451 84.300803 115.69922 88.400391 115.69922 L 88.664062 115.69922 A 29.599999 29.599999 0 0 0 89.222656 118.50195 L 94.990234 118.50195 A 24 24 0 0 1 94 112 A 24 24 0 0 1 115.5 88.21875 L 115.5 75.494141 z " />
  <path
     id="rect48996-8-9-6-9-09"
     style="font-variation-settings:normal;fill:url(#linearGradient2);fill-opacity:1;stroke:none;stroke-width:1;stroke-linecap:round;stroke-linejoin:round;stroke-miterlimit:4;stroke-dasharray:none;stroke-dashoffset:0;stroke-opacity:0.5;stop-color:#000000"
     d="M 62.150391 31 C 61.125494 31 60.300781 34.300803 60.300781 38.400391 L 60.300781 38.664062 A 29.599999 29.599999 0 0 0 56.191406 39.484375 L 56.089844 39.238281 C 54.520992 35.45077 52.495711 32.717193 51.548828 33.109375 L 48.130859 34.523438 C 47.183976 34.915634 47.685074 38.280847 49.253906 42.068359 L 49.369141 42.349609 A 29.599999 29.599999 0 0 0 45.900391 44.669922 L 45.683594 44.453125 C 42.784746 41.554295 39.869251 39.802624 39.144531 40.527344 L 36.527344 43.144531 C 35.802625 43.86925 37.554277 46.784745 40.453125 49.683594 L 40.669922 49.900391 A 29.599999 29.599999 0 0 0 38.349609 53.369141 L 38.068359 53.253906 C 34.280828 51.685056 30.915653 51.183958 30.523438 52.130859 L 29.109375 55.548828 C 28.717175 56.49571 31.450769 58.520992 35.238281 60.089844 L 35.484375 60.191406 A 29.599999 29.599999 0 0 0 34.664062 64.300781 L 34.400391 64.300781 C 30.300803 64.300781 27 65.125494 27 66.150391 L 27 69.849609 C 27 70.874506 30.300803 71.699219 34.400391 71.699219 L 34.664062 71.699219 A 29.599999 29.599999 0 0 0 35.484375 75.808594 L 35.238281 75.910156 C 31.45077 77.479008 28.717174 79.504289 29.109375 80.451172 L 30.523438 83.869141 C 30.915634 84.816023 34.280847 84.314942 38.068359 82.746094 L 38.349609 82.630859 A 29.599999 29.599999 0 0 0 40.669922 86.099609 L 40.453125 86.316406 C 37.554295 89.215254 35.802624 92.130751 36.527344 92.855469 L 39.144531 95.472656 C 39.86925 96.197375 42.784745 94.445705 45.683594 91.546875 L 45.900391 91.330078 A 29.599999 29.599999 0 0 0 49.369141 93.650391 L 49.253906 93.931641 C 47.685056 97.719152 47.183995 101.08436 48.130859 101.47656 L 51.548828 102.89062 C 52.49571 103.28281 54.520992 100.54922 56.089844 96.761719 L 56.191406 96.515625 A 29.599999 29.599999 0 0 0 60.300781 97.335938 L 60.300781 97.599609 C 60.300781 101.6992 61.125494 105 62.150391 105 L 65.849609 105 C 66.874506 105 67.699219 101.6992 67.699219 97.599609 L 67.699219 97.335938 A 29.599999 29.599999 0 0 0 71.808594 96.515625 L 71.910156 96.761719 C 73.479008 100.54924 75.504289 103.28279 76.451172 102.89062 L 79.869141 101.47656 C 80.816023 101.08436 80.314942 97.719151 78.746094 93.931641 L 78.630859 93.650391 A 29.599999 29.599999 0 0 0 82.099609 91.330078 L 82.316406 91.546875 C 85.215254 94.445705 88.130751 96.197374 88.855469 95.472656 L 91.472656 92.855469 C 92.197375 92.13075 90.445705 89.215255 87.546875 86.316406 L 87.330078 86.099609 A 29.599999 29.599999 0 0 0 89.650391 82.630859 L 89.931641 82.746094 C 93.719152 84.314943 97.084365 84.816041 97.476562 83.869141 L 98.890625 80.451172 C 99.282824 79.504289 96.549193 77.479009 92.761719 75.910156 L 92.515625 75.808594 A 29.599999 29.599999 0 0 0 93.335938 71.699219 L 93.599609 71.699219 C 97.699197 71.699219 101 70.874506 101 69.849609 L 101 66.150391 C 101 65.125494 97.699197 64.300781 93.599609 64.300781 L 93.357422 64.300781 A 29.599999 29.599999 0 0 0 92.537109 60.183594 L 92.761719 60.089844 C 96.549193 58.520992 99.282806 56.495711 98.890625 55.548828 L 97.476562 52.130859 C 97.084366 51.183976 93.719151 51.685056 89.931641 53.253906 L 89.712891 53.34375 A 29.599999 29.599999 0 0 0 87.378906 49.853516 L 87.546875 49.683594 C 90.445705 46.784746 92.197374 43.869249 91.472656 43.144531 L 88.855469 40.527344 C 88.13075 39.802624 85.215255 41.554295 82.316406 44.453125 L 82.146484 44.621094 A 29.599999 29.599999 0 0 0 78.65625 42.287109 L 78.746094 42.068359 C 80.314943 38.280847 80.816024 34.915635 79.869141 34.523438 L 76.451172 33.109375 C 75.504289 32.717175 73.479008 35.450788 71.910156 39.238281 L 71.816406 39.462891 A 29.599999 29.599999 0 0 0 67.699219 38.642578 L 67.699219 38.400391 C 67.699219 34.300803 66.874506 31 65.849609 31 L 62.150391 31 z M 66 44.09375 A 24 24 0 0 1 88 68 A 24 24 0 0 1 85.628906 78.189453 L 71.242188 69.884766 A 7.5 7.5 0 0 0 71.5 67.990234 A 7.5 7.5 0 0 0 66 60.763672 L 66 44.09375 z M 62 44.175781 L 62 60.767578 A 7.5 7.5 0 0 0 56.5 67.990234 A 7.5 7.5 0 0 0 56.757812 69.884766 L 42.371094 78.189453 A 24 24 0 0 1 40 68 A 24 24 0 0 1 62 44.175781 z M 64 64.279297 A 3.7211335 3.7211335 0 0 1 67.720703 68 A 3.7211335 3.7211335 0 0 1 64 71.720703 A 3.7211335 3.7211335 0 0 1 60.279297 68 A 3.7211335 3.7211335 0 0 1 64 64.279297 z M 58.769531 73.339844 A 7.5 7.5 0 0 0 64 75.490234 A 7.5 7.5 0 0 0 69.230469 73.339844 L 83.628906 81.652344 A 24 24 0 0 1 64 92 A 24 24 0 0 1 44.371094 81.652344 L 58.769531 73.339844 z " />
  <rect
     width="101"
     height="101"
     rx="9"
     ry="9"
     x="13.499988"
     y="16.501808"
     id="rect6741-7"
     style="opacity:0.2;fill:none;stroke:url(#linearGradient4136);stroke-width:1;stroke-linecap:round;stroke-linejoin:round;stroke-miterlimit:4;stroke-dasharray:none;stroke-dashoffset:0;stroke-opacity:1" />
  <path
     id="rect48996-8-9-6-9-09-6-7-6"
     style="font-variation-settings:normal;opacity:0.3;vector-effect:none;fill:#ffffff;fill-opacity:1;stroke:none;stroke-width:0.999997;stroke-linecap:round;stroke-linejoin:round;stroke-miterlimit:4;stroke-dasharray:none;stroke-dashoffset:0;stroke-opacity:0.5;-inkscape-stroke:none;stop-color:#000000;stop-opacity:1"
     d="M 62.150391 31 C 61.125496 31 60.300781 34.300811 60.300781 38.400391 L 60.300781 38.664062 A 29.599999 29.599999 0 0 0 56.191406 39.484375 L 56.089844 39.238281 C 54.520994 35.450778 52.495709 32.717193 51.548828 33.109375 L 48.130859 34.523438 C 47.739859 34.685388 47.607563 35.3729 47.683594 36.369141 C 47.742791 35.923166 47.888881 35.623664 48.130859 35.523438 L 51.548828 34.109375 C 52.495709 33.717193 54.520994 36.450778 56.089844 40.238281 L 56.191406 40.484375 A 29.599999 29.599999 0 0 1 60.300781 39.664062 L 60.300781 39.400391 C 60.300781 35.300811 61.125496 32 62.150391 32 L 65.849609 32 C 66.874504 32 67.699219 35.300811 67.699219 39.400391 L 67.699219 39.642578 A 29.599999 29.599999 0 0 1 71.816406 40.462891 L 71.910156 40.238281 C 73.479006 36.450796 75.504291 33.717175 76.451172 34.109375 L 79.869141 35.523438 C 80.111119 35.623664 80.257208 35.923166 80.316406 36.369141 C 80.392435 35.3729 80.260141 34.685389 79.869141 34.523438 L 76.451172 33.109375 C 75.504291 32.717175 73.479006 35.450796 71.910156 39.238281 L 71.816406 39.462891 A 29.599999 29.599999 0 0 0 67.699219 38.642578 L 67.699219 38.400391 C 67.699219 34.300811 66.874504 31 65.849609 31 L 62.150391 31 z M 39.515625 40.369141 C 39.360885 40.384939 39.235121 40.436754 39.144531 40.527344 L 36.527344 43.144531 C 36.327267 43.344608 36.332982 43.723359 36.482422 44.210938 C 36.497932 44.189187 36.508513 44.163362 36.527344 44.144531 L 39.144531 41.527344 C 39.869251 40.802624 42.784752 42.554301 45.683594 45.453125 L 45.900391 45.669922 A 29.599999 29.599999 0 0 1 49.369141 43.349609 L 49.253906 43.068359 C 49.182265 42.895401 49.123792 42.729548 49.056641 42.558594 A 29.599999 29.599999 0 0 0 45.900391 44.669922 L 45.683594 44.453125 C 43.147107 41.916654 40.598807 40.258549 39.515625 40.369141 z M 88.484375 40.369141 C 87.401194 40.258549 84.852894 41.916654 82.316406 44.453125 L 82.146484 44.621094 A 29.599999 29.599999 0 0 0 78.966797 42.494141 C 78.89186 42.686219 78.826723 42.873704 78.746094 43.068359 L 78.65625 43.287109 A 29.599999 29.599999 0 0 1 82.146484 45.621094 L 82.316406 45.453125 C 85.215249 42.554301 88.13075 40.802624 88.855469 41.527344 L 91.472656 44.144531 C 91.491487 44.163362 91.502068 44.189187 91.517578 44.210938 C 91.667019 43.723359 91.672732 43.344607 91.472656 43.144531 L 88.855469 40.527344 C 88.764879 40.436754 88.639115 40.384939 88.484375 40.369141 z M 87.773438 50.445312 C 87.695565 50.524924 87.626506 50.603962 87.546875 50.683594 L 87.378906 50.853516 A 29.599999 29.599999 0 0 1 89.712891 54.34375 L 89.931641 54.253906 C 93.719143 52.68506 97.084368 52.183978 97.476562 53.130859 L 98.751953 56.214844 C 98.893751 55.963224 98.96621 55.731321 98.890625 55.548828 L 97.476562 52.130859 C 97.084368 51.183978 93.719143 51.68506 89.931641 53.253906 L 89.712891 53.34375 A 29.599999 29.599999 0 0 0 87.773438 50.445312 z M 40.273438 50.494141 A 29.599999 29.599999 0 0 0 38.349609 53.369141 L 38.068359 53.253906 C 34.280836 51.68506 30.915651 51.18396 30.523438 52.130859 L 29.109375 55.548828 C 29.033786 55.731321 29.106253 55.963224 29.248047 56.214844 L 30.523438 53.130859 C 30.915651 52.18396 34.280836 52.68506 38.068359 54.253906 L 38.349609 54.369141 A 29.599999 29.599999 0 0 1 40.669922 50.900391 L 40.453125 50.683594 C 40.389886 50.620355 40.335571 50.557372 40.273438 50.494141 z M 66 60.763672 L 66 61.763672 A 7.5 7.5 0 0 1 71.425781 68.537109 A 7.5 7.5 0 0 0 71.5 67.990234 A 7.5 7.5 0 0 0 66 60.763672 z M 62 60.767578 A 7.5 7.5 0 0 0 56.5 67.990234 A 7.5 7.5 0 0 0 56.574219 68.537109 A 7.5 7.5 0 0 1 62 61.767578 L 62 60.767578 z M 92.720703 61.107422 L 92.537109 61.183594 A 29.599999 29.599999 0 0 1 93.357422 65.300781 L 93.599609 65.300781 C 97.699189 65.300781 101 66.125496 101 67.150391 L 101 66.150391 C 101 65.125496 97.699189 64.300781 93.599609 64.300781 L 93.357422 64.300781 A 29.599999 29.599999 0 0 0 92.720703 61.107422 z M 35.300781 61.115234 A 29.599999 29.599999 0 0 0 34.664062 64.300781 L 34.400391 64.300781 C 30.300811 64.300781 27 65.125496 27 66.150391 L 27 67.150391 C 27 66.125496 30.300811 65.300781 34.400391 65.300781 L 34.664062 65.300781 A 29.599999 29.599999 0 0 1 35.484375 61.191406 L 35.300781 61.115234 z M 60.414062 68.5 A 3.7211335 3.7211335 0 0 0 60.279297 69 A 3.7211335 3.7211335 0 0 0 64 72.720703 A 3.7211335 3.7211335 0 0 0 67.720703 69 A 3.7211335 3.7211335 0 0 0 67.585938 68.5 A 3.7211335 3.7211335 0 0 1 64 71.720703 A 3.7211335 3.7211335 0 0 1 60.414062 68.5 z M 87.957031 68.53125 A 24 24 0 0 1 85.628906 78.189453 L 71.369141 69.957031 A 7.5 7.5 0 0 1 71.242188 70.884766 L 85.628906 79.189453 A 24 24 0 0 0 88 69 A 24 24 0 0 0 87.957031 68.53125 z M 40.046875 68.572266 A 24 24 0 0 0 40 69 A 24 24 0 0 0 42.371094 79.189453 L 56.757812 70.884766 A 7.5 7.5 0 0 1 56.630859 69.957031 L 42.371094 78.189453 A 24 24 0 0 1 40.046875 68.572266 z M 12.5 75.494141 L 12.5 76.494141 C 13.200135 77.546806 13.699219 80.22276 13.699219 83.400391 L 13.699219 83.642578 A 29.599999 29.599999 0 0 1 17.816406 84.462891 L 17.910156 84.238281 C 19.479006 80.450796 21.504291 77.717175 22.451172 78.109375 L 25.869141 79.523438 C 26.111119 79.623664 26.257208 79.923166 26.316406 80.369141 C 26.392435 79.3729 26.260141 78.685389 25.869141 78.523438 L 22.451172 77.109375 C 21.504291 76.717175 19.479006 79.450796 17.910156 83.238281 L 17.816406 83.462891 A 29.599999 29.599999 0 0 0 13.699219 82.642578 L 13.699219 82.400391 C 13.699219 79.22276 13.200135 76.546806 12.5 75.494141 z M 115.5 75.494141 C 114.79986 76.546806 114.30078 79.22276 114.30078 82.400391 L 114.30078 82.664062 A 29.599999 29.599999 0 0 0 110.19141 83.484375 L 110.08984 83.238281 C 108.52102 79.450778 106.49571 76.717193 105.54883 77.109375 L 102.13086 78.523438 C 101.73986 78.685388 101.60756 79.3729 101.68359 80.369141 C 101.74279 79.923166 101.88888 79.623664 102.13086 79.523438 L 105.54883 78.109375 C 106.49571 77.717193 108.52102 80.450778 110.08984 84.238281 L 110.19141 84.484375 A 29.599999 29.599999 0 0 1 114.30078 83.664062 L 114.30078 83.400391 C 114.30078 80.22276 114.79986 77.546806 115.5 76.494141 L 115.5 75.494141 z M 35.300781 75.884766 L 35.238281 75.910156 C 31.450778 77.479006 28.717174 79.504291 29.109375 80.451172 L 29.248047 80.785156 C 29.841965 79.731225 32.180746 78.17664 35.238281 76.910156 L 35.484375 76.808594 A 29.599999 29.599999 0 0 1 35.300781 75.884766 z M 92.699219 75.884766 A 29.599999 29.599999 0 0 1 92.515625 76.808594 L 92.761719 76.910156 C 95.819225 78.176641 98.158026 79.731225 98.751953 80.785156 L 98.890625 80.451172 C 99.282824 79.504291 96.549185 77.479007 92.761719 75.910156 L 92.699219 75.884766 z M 44.939453 82.324219 L 44.371094 82.652344 A 24 24 0 0 0 64 93 A 24 24 0 0 0 83.628906 82.652344 L 83.060547 82.324219 A 24 24 0 0 1 64 92 A 24 24 0 0 1 44.939453 82.324219 z M 35.107422 84.779297 C 33.92491 85.114745 32.872403 85.314545 32.078125 85.34375 C 30.957461 86.062489 29.640472 87.129068 28.316406 88.453125 L 28.146484 88.621094 A 29.599999 29.599999 0 0 0 24.966797 86.494141 C 24.89186 86.686219 24.826723 86.873704 24.746094 87.068359 L 24.65625 87.287109 A 29.599999 29.599999 0 0 1 28.146484 89.621094 L 28.316406 89.453125 C 31.215249 86.554301 34.13075 84.802624 34.855469 85.527344 L 37.472656 88.144531 C 37.491487 88.163362 37.502068 88.189187 37.517578 88.210938 C 37.667019 87.723359 37.672732 87.344607 37.472656 87.144531 L 35.107422 84.779297 z M 92.892578 84.779297 L 90.527344 87.144531 C 90.327267 87.344608 90.332982 87.723359 90.482422 88.210938 C 90.497932 88.189187 90.508513 88.163362 90.527344 88.144531 L 93.144531 85.527344 C 93.869251 84.802624 96.784756 86.554301 99.683594 89.453125 L 99.900391 89.669922 A 29.599999 29.599999 0 0 1 103.36914 87.349609 L 103.25391 87.068359 C 103.18226 86.895401 103.12379 86.729548 103.05664 86.558594 A 29.599999 29.599999 0 0 0 99.900391 88.669922 L 99.683594 88.453125 C 98.359531 87.129068 97.04254 86.062489 95.921875 85.34375 C 95.127597 85.314545 94.07509 85.114747 92.892578 84.779297 z M 40.273438 86.505859 C 37.561434 89.265832 35.914028 91.991999 36.482422 92.789062 C 36.874288 91.510531 38.354593 89.414952 40.453125 87.316406 L 40.669922 87.099609 A 29.599999 29.599999 0 0 1 40.273438 86.505859 z M 87.726562 86.505859 A 29.599999 29.599999 0 0 1 87.330078 87.099609 L 87.546875 87.316406 C 89.645407 89.414952 91.125712 91.510531 91.517578 92.789062 C 92.085971 91.991998 90.438566 89.265833 87.726562 86.505859 z M 49.056641 94.441406 C 48.029059 97.057378 47.521723 99.411387 47.683594 100.63086 C 47.791681 99.214517 48.332892 97.155151 49.253906 94.931641 L 49.369141 94.650391 A 29.599999 29.599999 0 0 1 49.056641 94.441406 z M 78.943359 94.441406 A 29.599999 29.599999 0 0 1 78.630859 94.650391 L 78.746094 94.931641 C 79.667107 97.15515 80.208317 99.214516 80.316406 100.63086 C 80.478279 99.411387 79.970941 97.057377 78.943359 94.441406 z M 33.773438 94.445312 C 33.695565 94.524924 33.626506 94.603962 33.546875 94.683594 L 33.378906 94.853516 A 29.599999 29.599999 0 0 1 35.712891 98.34375 L 35.931641 98.253906 C 39.719143 96.68506 43.084368 96.183978 43.476562 97.130859 L 44.751953 100.21484 C 44.893751 99.963224 44.96621 99.731321 44.890625 99.548828 L 43.476562 96.130859 C 43.329873 95.776705 42.766911 95.625179 41.921875 95.65625 C 40.589012 96.511082 39.53823 96.866355 39.144531 96.472656 L 38.892578 96.220703 C 37.969523 96.48255 36.971011 96.823382 35.931641 97.253906 L 35.712891 97.34375 A 29.599999 29.599999 0 0 0 33.773438 94.445312 z M 94.273438 94.494141 A 29.599999 29.599999 0 0 0 92.349609 97.369141 L 92.068359 97.253906 C 91.028984 96.823382 90.030476 96.482552 89.107422 96.220703 L 88.855469 96.472656 C 88.461771 96.866354 87.410988 96.511082 86.078125 95.65625 C 85.233092 95.625179 84.670134 95.776698 84.523438 96.130859 L 83.109375 99.548828 C 83.033786 99.731321 83.106253 99.963224 83.248047 100.21484 L 84.523438 97.130859 C 84.915651 96.18396 88.280836 96.68506 92.068359 98.253906 L 92.349609 98.369141 A 29.599999 29.599999 0 0 1 94.669922 94.900391 L 94.453125 94.683594 C 94.389886 94.620355 94.335571 94.557372 94.273438 94.494141 z M 38.720703 105.10742 L 38.537109 105.18359 A 29.599999 29.599999 0 0 1 39.357422 109.30078 L 39.599609 109.30078 C 43.699189 109.30078 47 110.12549 47 111.15039 L 47 110.15039 C 47 109.12549 43.699189 108.30078 39.599609 108.30078 L 39.357422 108.30078 A 29.599999 29.599999 0 0 0 38.720703 105.10742 z M 89.300781 105.11523 A 29.599999 29.599999 0 0 0 88.664062 108.30078 L 88.400391 108.30078 C 84.300811 108.30078 81 109.12549 81 110.15039 L 81 111.15039 C 81 110.12549 84.300811 109.30078 88.400391 109.30078 L 88.664062 109.30078 A 29.599999 29.599999 0 0 1 89.484375 105.19141 L 89.300781 105.11523 z M 33.953125 112.56055 A 24 24 0 0 1 33.009766 118.50195 L 33.232422 118.50195 A 24 24 0 0 0 34 113 A 24 24 0 0 0 33.953125 112.56055 z M 94.046875 112.56836 A 24 24 0 0 0 94 113 A 24 24 0 0 0 94.767578 118.50195 L 94.990234 118.50195 A 24 24 0 0 1 94.046875 112.56836 z " />
  <path
     id="rect48996-8-9-6-9-09-6-7-4"
     style="font-variation-settings:normal;opacity:0.05;vector-effect:none;fill:#000000;fill-opacity:1;stroke:none;stroke-width:0.999997;stroke-linecap:round;stroke-linejoin:round;stroke-miterlimit:4;stroke-dasharray:none;stroke-dashoffset:0;stroke-opacity:0.5;-inkscape-stroke:none;stop-color:#000000;stop-opacity:1"
     d="M 47.683594 35.369141 C 47.521725 36.588613 48.029069 38.942621 49.056641 41.558594 A 29.599999 29.599999 0 0 1 49.369141 41.349609 L 49.253906 41.068359 C 48.332902 38.844849 47.791686 36.785484 47.683594 35.369141 z M 80.316406 35.369141 C 80.208317 36.785484 79.667108 38.844849 78.746094 41.068359 L 78.65625 41.287109 A 29.599999 29.599999 0 0 1 78.966797 41.494141 C 79.977329 38.903951 80.476952 36.578616 80.316406 35.369141 z M 66 43.09375 L 66 44.09375 A 24 24 0 0 1 87.957031 67.53125 A 24 24 0 0 0 88 67 A 24 24 0 0 0 66 43.09375 z M 62 43.175781 A 24 24 0 0 0 40 67 A 24 24 0 0 0 40.046875 67.572266 A 24 24 0 0 1 62 44.175781 L 62 43.175781 z M 36.482422 43.210938 C 35.914028 44.008002 37.561418 46.734167 40.273438 49.494141 A 29.599999 29.599999 0 0 1 40.669922 48.900391 L 40.453125 48.683594 C 38.35458 46.585048 36.874284 44.489469 36.482422 43.210938 z M 91.517578 43.210938 C 91.125712 44.489469 89.645407 46.585048 87.546875 48.683594 L 87.378906 48.853516 A 29.599999 29.599999 0 0 1 87.773438 49.445312 C 90.456703 46.702135 92.082595 44.003268 91.517578 43.210938 z M 29.248047 55.214844 L 29.109375 55.548828 C 28.717175 56.495708 31.450777 58.520994 35.238281 60.089844 L 35.300781 60.115234 A 29.599999 29.599999 0 0 1 35.484375 59.191406 L 35.238281 59.089844 C 32.180745 57.82336 29.841965 56.268775 29.248047 55.214844 z M 98.751953 55.214844 C 98.158021 56.268775 95.819225 57.82336 92.761719 59.089844 L 92.537109 59.183594 A 29.599999 29.599999 0 0 1 92.720703 60.107422 L 92.761719 60.089844 C 96.549185 58.520994 99.282806 56.495709 98.890625 55.548828 L 98.751953 55.214844 z M 64 63.279297 A 3.7211335 3.7211335 0 0 0 60.279297 67 A 3.7211335 3.7211335 0 0 0 60.414062 67.5 A 3.7211335 3.7211335 0 0 1 64 64.279297 A 3.7211335 3.7211335 0 0 1 67.585938 67.5 A 3.7211335 3.7211335 0 0 0 67.720703 67 A 3.7211335 3.7211335 0 0 0 64 63.279297 z M 56.574219 67.537109 A 7.5 7.5 0 0 0 56.5 67.990234 A 7.5 7.5 0 0 0 56.630859 68.957031 L 56.757812 68.884766 A 7.5 7.5 0 0 1 56.574219 67.537109 z M 71.425781 67.537109 A 7.5 7.5 0 0 1 71.242188 68.884766 L 71.369141 68.957031 A 7.5 7.5 0 0 0 71.5 67.990234 A 7.5 7.5 0 0 0 71.425781 67.537109 z M 27 68.849609 L 27 69.849609 C 27 70.874504 30.300811 71.699219 34.400391 71.699219 L 34.664062 71.699219 A 29.599999 29.599999 0 0 0 35.300781 74.884766 L 35.484375 74.808594 A 29.599999 29.599999 0 0 1 34.664062 70.699219 L 34.400391 70.699219 C 30.300811 70.699219 27 69.874504 27 68.849609 z M 101 68.849609 C 101 69.874504 97.699189 70.699219 93.599609 70.699219 L 93.335938 70.699219 A 29.599999 29.599999 0 0 1 92.515625 74.808594 L 92.699219 74.884766 A 29.599999 29.599999 0 0 0 93.335938 71.699219 L 93.599609 71.699219 C 97.699189 71.699219 101 70.874504 101 69.849609 L 101 68.849609 z M 58.769531 72.339844 L 44.371094 80.652344 A 24 24 0 0 0 44.939453 81.324219 L 58.769531 73.339844 A 7.5 7.5 0 0 0 64 75.490234 A 7.5 7.5 0 0 0 69.230469 73.339844 L 83.060547 81.324219 A 24 24 0 0 0 83.628906 80.652344 L 69.230469 72.339844 A 7.5 7.5 0 0 1 64 74.490234 A 7.5 7.5 0 0 1 58.769531 72.339844 z M 26.316406 79.369141 C 26.208317 80.785484 25.667108 82.844849 24.746094 85.068359 L 24.65625 85.287109 A 29.599999 29.599999 0 0 1 24.966797 85.494141 C 25.977329 82.903951 26.476952 80.578616 26.316406 79.369141 z M 101.68359 79.369141 C 101.52172 80.588613 102.02906 82.942621 103.05664 85.558594 A 29.599999 29.599999 0 0 1 103.36914 85.349609 L 103.25391 85.068359 C 102.3329 82.844849 101.79169 80.785484 101.68359 79.369141 z M 29.248047 79.785156 C 29.106253 80.036776 29.033786 80.268679 29.109375 80.451172 L 30.523438 83.869141 C 30.670127 84.223295 31.233089 84.374821 32.078125 84.34375 C 33.410988 83.488917 34.46177 83.133645 34.855469 83.527344 L 35.107422 83.779297 C 36.030477 83.51745 37.028989 83.176618 38.068359 82.746094 L 38.349609 82.630859 A 29.599999 29.599999 0 0 0 40.273438 85.505859 C 40.33557 85.442628 40.389886 85.379645 40.453125 85.316406 L 40.669922 85.099609 A 29.599999 29.599999 0 0 1 38.349609 81.630859 L 38.068359 81.746094 C 34.280855 83.314938 30.915632 83.816021 30.523438 82.869141 L 29.248047 79.785156 z M 98.751953 79.785156 L 97.476562 82.869141 C 97.084367 83.816039 93.719144 83.314939 89.931641 81.746094 L 89.650391 81.630859 A 29.599999 29.599999 0 0 1 87.330078 85.099609 L 87.546875 85.316406 C 87.610114 85.379645 87.66443 85.442628 87.726562 85.505859 A 29.599999 29.599999 0 0 0 89.650391 82.630859 L 89.931641 82.746094 C 90.971011 83.176618 91.969523 83.517448 92.892578 83.779297 L 93.144531 83.527344 C 93.53823 83.133645 94.589012 83.488917 95.921875 84.34375 C 96.766911 84.374822 97.329873 84.223302 97.476562 83.869141 L 98.890625 80.451172 C 98.966214 80.268679 98.893749 80.036776 98.751953 79.785156 z M 12.5 87.140625 L 12.5 88.140625 A 24 24 0 0 1 33.953125 111.56055 A 24 24 0 0 0 34 111 A 24 24 0 0 0 12.5 87.140625 z M 37.517578 87.210938 C 37.125712 88.489469 35.645407 90.585048 33.546875 92.683594 L 33.378906 92.853516 A 29.599999 29.599999 0 0 1 33.773438 93.445312 C 36.456703 90.702135 38.082595 88.003268 37.517578 87.210938 z M 90.482422 87.210938 C 89.914028 88.008002 91.561418 90.734167 94.273438 93.494141 A 29.599999 29.599999 0 0 1 94.669922 92.900391 L 94.453125 92.683594 C 92.35458 90.585048 90.874284 88.489469 90.482422 87.210938 z M 115.5 87.21875 A 24 24 0 0 0 94 111 A 24 24 0 0 0 94.046875 111.56836 A 24 24 0 0 1 115.5 88.21875 L 115.5 87.21875 z M 45.900391 90.330078 L 45.683594 90.546875 C 42.784751 93.445699 39.86925 95.197375 39.144531 94.472656 L 36.527344 91.855469 C 36.508513 91.836638 36.497932 91.810813 36.482422 91.789062 C 36.332981 92.276641 36.327267 92.655393 36.527344 92.855469 L 38.892578 95.220703 C 40.07509 94.885255 41.127596 94.685455 41.921875 94.65625 C 43.042539 93.937511 44.359528 92.870932 45.683594 91.546875 L 45.900391 91.330078 A 29.599999 29.599999 0 0 0 49.056641 93.441406 C 49.123793 93.270452 49.182264 93.104599 49.253906 92.931641 L 49.369141 92.650391 A 29.599999 29.599999 0 0 1 45.900391 90.330078 z M 82.099609 90.330078 A 29.599999 29.599999 0 0 1 78.630859 92.650391 L 78.746094 92.931641 C 78.817736 93.104598 78.876207 93.270453 78.943359 93.441406 A 29.599999 29.599999 0 0 0 82.099609 91.330078 L 82.316406 91.546875 C 83.640471 92.870932 84.957461 93.937511 86.078125 94.65625 C 86.872401 94.685455 87.924911 94.885253 89.107422 95.220703 L 91.472656 92.855469 C 91.672733 92.655392 91.667019 92.276641 91.517578 91.789062 C 91.502068 91.810813 91.491487 91.836638 91.472656 91.855469 L 88.855469 94.472656 C 88.130751 95.197374 85.215248 93.445699 82.316406 90.546875 L 82.099609 90.330078 z M 56.191406 95.515625 L 56.089844 95.761719 C 54.520994 99.549216 52.495708 102.28281 51.548828 101.89062 L 48.130859 100.47656 C 47.888886 100.37633 47.742792 100.07683 47.683594 99.630859 C 47.607566 100.6271 47.739867 101.31461 48.130859 101.47656 L 51.548828 102.89062 C 52.495708 103.28281 54.520994 100.54922 56.089844 96.761719 L 56.191406 96.515625 A 29.599999 29.599999 0 0 0 60.300781 97.335938 L 60.300781 97.599609 C 60.300781 101.6992 61.125496 105 62.150391 105 L 65.849609 105 C 66.874504 105 67.699219 101.6992 67.699219 97.599609 L 67.699219 97.335938 A 29.599999 29.599999 0 0 0 71.808594 96.515625 L 71.910156 96.761719 C 73.479006 100.54924 75.504291 103.28279 76.451172 102.89062 L 79.869141 101.47656 C 80.260141 101.31461 80.392435 100.6271 80.316406 99.630859 C 80.257208 100.07683 80.111118 100.37633 79.869141 100.47656 L 76.451172 101.89062 C 75.504291 102.28279 73.479006 99.549236 71.910156 95.761719 L 71.808594 95.515625 A 29.599999 29.599999 0 0 1 67.699219 96.335938 L 67.699219 96.599609 C 67.699219 100.6992 66.874504 104 65.849609 104 L 62.150391 104 C 61.125496 104 60.300781 100.6992 60.300781 96.599609 L 60.300781 96.335938 A 29.599999 29.599999 0 0 1 56.191406 95.515625 z M 44.751953 99.214844 C 44.158021 100.26878 41.819225 101.82338 38.761719 103.08984 L 38.537109 103.18359 A 29.599999 29.599999 0 0 1 38.720703 104.10742 L 38.761719 104.08984 C 42.549185 102.52102 45.282806 100.49571 44.890625 99.548828 L 44.751953 99.214844 z M 83.248047 99.214844 L 83.109375 99.548828 C 82.717175 100.49571 85.450777 102.52102 89.238281 104.08984 L 89.300781 104.11523 A 29.599999 29.599999 0 0 1 89.484375 103.19141 L 89.238281 103.08984 C 86.180745 101.82338 83.841965 100.26878 83.248047 99.214844 z M 47 112.84961 C 47 113.87451 43.699189 114.69922 39.599609 114.69922 L 39.335938 114.69922 A 29.599999 29.599999 0 0 1 38.777344 117.50195 L 33.232422 117.50195 A 24 24 0 0 1 33.009766 118.50195 L 38.777344 118.50195 A 29.599999 29.599999 0 0 0 39.335938 115.69922 L 39.599609 115.69922 C 43.699189 115.69922 47 114.87451 47 113.84961 L 47 112.84961 z M 81 112.84961 L 81 113.84961 C 81 114.87451 84.300811 115.69922 88.400391 115.69922 L 88.664062 115.69922 A 29.599999 29.599999 0 0 0 89.222656 118.50195 L 94.990234 118.50195 A 24 24 0 0 1 94.767578 117.50195 L 89.222656 117.50195 A 29.599999 29.599999 0 0 1 88.664062 114.69922 L 88.400391 114.69922 C 84.300811 114.69922 81 113.87451 81 112.84961 z " />
</svg>
