<?xml version="1.0" encoding="UTF-8" standalone="no"?>
<svg
   version="1.1"
   width="24"
   height="24"
   id="svg3426"
   xmlns:xlink="http://www.w3.org/1999/xlink"
   xmlns="http://www.w3.org/2000/svg"
   xmlns:svg="http://www.w3.org/2000/svg"
   xmlns:rdf="http://www.w3.org/1999/02/22-rdf-syntax-ns#"
   xmlns:cc="http://creativecommons.org/ns#"
   xmlns:dc="http://purl.org/dc/elements/1.1/">
  <defs
     id="defs3428">
    <radialGradient
       cx="4.9929786"
       cy="43.5"
       r="2.5"
       fx="4.9929786"
       fy="43.5"
       id="radialGradient3152"
       xlink:href="#linearGradient3688-166-749"
       gradientUnits="userSpaceOnUse"
       gradientTransform="matrix(2.003784,0,0,1.4,27.98813,-17.4)" />
    <linearGradient
       id="linearGradient3688-166-749">
      <stop
         id="stop2883"
         style="stop-color:#181818;stop-opacity:1"
         offset="0" />
      <stop
         id="stop2885"
         style="stop-color:#181818;stop-opacity:0"
         offset="1" />
    </linearGradient>
    <radialGradient
       cx="4.9929786"
       cy="43.5"
       r="2.5"
       fx="4.9929786"
       fy="43.5"
       id="radialGradient3154"
       xlink:href="#linearGradient3688-464-309"
       gradientUnits="userSpaceOnUse"
       gradientTransform="matrix(2.003784,0,0,1.4,-20.01187,-104.4)" />
    <linearGradient
       id="linearGradient3688-464-309">
      <stop
         id="stop2889"
         style="stop-color:#181818;stop-opacity:1"
         offset="0" />
      <stop
         id="stop2891"
         style="stop-color:#181818;stop-opacity:0"
         offset="1" />
    </linearGradient>
    <linearGradient
       x1="25.058096"
       y1="47.027729"
       x2="25.058096"
       y2="39.999443"
       id="linearGradient3156"
       xlink:href="#linearGradient3702-501-757"
       gradientUnits="userSpaceOnUse" />
    <linearGradient
       id="linearGradient3702-501-757">
      <stop
         id="stop2895"
         style="stop-color:#181818;stop-opacity:0"
         offset="0" />
      <stop
         id="stop2897"
         style="stop-color:#181818;stop-opacity:1"
         offset="0.5" />
      <stop
         id="stop2899"
         style="stop-color:#181818;stop-opacity:0"
         offset="1" />
    </linearGradient>
    <linearGradient
       id="linearGradient3924-64">
      <stop
         id="stop3926-3-6"
         style="stop-color:#ffffff;stop-opacity:1"
         offset="0" />
      <stop
         id="stop3928-0"
         style="stop-color:#ffffff;stop-opacity:0.23529412"
         offset="0" />
      <stop
         id="stop3930-3-59"
         style="stop-color:#ffffff;stop-opacity:0.15686275"
         offset="1" />
      <stop
         id="stop3932-0"
         style="stop-color:#ffffff;stop-opacity:0.39215687"
         offset="1" />
    </linearGradient>
    <linearGradient
       y2="41.414425"
       x2="23.99999"
       y1="6.5908957"
       x1="23.99999"
       gradientTransform="matrix(0.45945947,0,0,0.45945947,0.9742189,0.9717506)"
       gradientUnits="userSpaceOnUse"
       id="linearGradient3101"
       xlink:href="#linearGradient3924-64" />
    <linearGradient
       id="linearGradient149777">
      <stop
         style="stop-color:#fafafa;stop-opacity:1"
         offset="0"
         id="stop149769" />
      <stop
         style="stop-color:#abacae;stop-opacity:1"
         offset="0.42301154"
         id="stop149771" />
      <stop
         style="stop-color:#d4d4d4;stop-opacity:1"
         offset="0.7009123"
         id="stop149773" />
      <stop
         style="stop-color:#7e8087;stop-opacity:1"
         offset="1"
         id="stop149775" />
    </linearGradient>
    <linearGradient
       xlink:href="#linearGradient55160"
       id="linearGradient175139"
       gradientUnits="userSpaceOnUse"
       gradientTransform="matrix(0.69230783,0,0,0.69230789,-192.66945,-117.30769)"
       x1="296.60825"
       y1="173.78271"
       x2="296.60825"
       y2="200.38399" />
    <linearGradient
       id="linearGradient55160">
      <stop
         style="stop-color:#4d4d4d;stop-opacity:1"
         offset="0"
         id="stop55156" />
      <stop
         style="stop-color:#1a1a1a;stop-opacity:1"
         offset="1"
         id="stop55158" />
    </linearGradient>
    <linearGradient
       xlink:href="#linearGradient149777"
       id="linearGradient5"
       gradientUnits="userSpaceOnUse"
       gradientTransform="matrix(0.34999969,0,0,0.34999969,-18.099983,-54.49992)"
       x1="74.881271"
       y1="172.83885"
       x2="97.295143"
       y2="207.14944"
       spreadMethod="reflect" />
    <linearGradient
       xlink:href="#linearGradient149777"
       id="linearGradient6"
       gradientUnits="userSpaceOnUse"
       gradientTransform="matrix(-0.34999969,0,0,-0.34999969,31.599985,86.999929)"
       x1="74.881271"
       y1="172.83885"
       x2="97.295143"
       y2="207.14944"
       spreadMethod="reflect" />
    <linearGradient
       xlink:href="#linearGradient149777"
       id="linearGradient7"
       gradientUnits="userSpaceOnUse"
       gradientTransform="matrix(-0.34999969,0,0,-0.34999969,52.599985,86.999929)"
       x1="74.881271"
       y1="172.83885"
       x2="97.295143"
       y2="207.14944"
       spreadMethod="reflect" />
  </defs>
  <metadata
     id="metadata3431">
    <rdf:RDF>
      <cc:Work
         rdf:about="">
        <dc:format>image/svg+xml</dc:format>
        <dc:type
           rdf:resource="http://purl.org/dc/dcmitype/StillImage" />
      </cc:Work>
    </rdf:RDF>
  </metadata>
  <g
     style="display:inline"
     id="g2036"
     transform="matrix(0.55,0,0,0.3333336,-1.2000011,7.33331)">
    <g
       style="opacity:0.4"
       id="g3712"
       transform="matrix(1.052632,0,0,1.285713,-1.263158,-13.42854)">
      <rect
         style="fill:url(#radialGradient3152);fill-opacity:1;stroke:none"
         id="rect2801"
         y="40"
         x="38"
         height="7"
         width="5" />
      <rect
         style="fill:url(#radialGradient3154);fill-opacity:1;stroke:none"
         id="rect3696"
         transform="scale(-1,-1)"
         y="-47"
         x="-10"
         height="7"
         width="5" />
      <rect
         style="fill:url(#linearGradient3156);fill-opacity:1;stroke:none"
         id="rect3700"
         y="40"
         x="10"
         height="7.0000005"
         width="28" />
    </g>
  </g>
  <rect
     style="color:#000000;clip-rule:nonzero;display:inline;overflow:visible;visibility:visible;opacity:1;isolation:auto;mix-blend-mode:normal;color-interpolation:sRGB;color-interpolation-filters:linearRGB;solid-color:#000000;solid-opacity:1;fill:url(#linearGradient175139);fill-opacity:1;fill-rule:nonzero;stroke:#000000;stroke-width:0.999998;stroke-linecap:butt;stroke-linejoin:miter;stroke-miterlimit:4;stroke-dasharray:none;stroke-dashoffset:0;stroke-opacity:0.5;marker:none;color-rendering:auto;image-rendering:auto;shape-rendering:auto;text-rendering:auto;enable-background:accumulate;font-variation-settings:normal;vector-effect:none;-inkscape-stroke:none;stop-color:#000000;stop-opacity:1"
     id="rect5505-21-6"
     y="2.5000269"
     x="2.499999"
     ry="2"
     rx="2"
     height="19"
     width="19" />
  <path
     id="rect48996-8-9-6-9-6-3-5-3-9"
     style="font-variation-settings:normal;opacity:0.15;vector-effect:none;fill:#000000;fill-opacity:1;stroke:none;stroke-width:0.999997;stroke-linecap:round;stroke-linejoin:round;stroke-miterlimit:4;stroke-dasharray:none;stroke-dashoffset:0;stroke-opacity:0.5;-inkscape-stroke:none;stop-color:#000000;stop-opacity:1"
     d="M 12.080078 4.9882812 C 11.803931 4.9866387 11.523111 5.0271675 11.265625 5.0761719 C 10.717737 5.2963947 10.64558 6.0404418 10.091797 5.4921875 C 9.2894936 5.2634515 8.2255549 5.723123 7.953125 6.5429688 C 8.0085441 7.1843658 7.0833695 6.4947216 6.7460938 6.9902344 C 6.1384252 7.4031348 5.5358915 8.1405122 5.8789062 8.9101562 C 4.8959764 8.9054706 4.337087 10.063429 4.4472656 10.914062 C 4.8382465 11.542754 4.6134978 11.63852 4.1523438 12.132812 C 3.9322772 12.690505 3.885096 13.454629 4.2304688 13.972656 C 3.7021751 13.569632 3.0147839 14.51665 2.7910156 14.025391 C 2.709992 13.915377 2.6083307 13.829484 2.5 13.753906 L 2.5 18.134766 C 3.9403484 18.562808 5.0066112 19.997917 5.0039062 21.5 L 9.5175781 21.5 C 9.5236128 21.151679 9.4539664 20.80398 9.2695312 20.527344 C 9.7978249 20.930368 10.485216 19.98335 10.708984 20.474609 C 11.205087 21.148219 12.296293 21.152379 12.964844 20.775391 C 13.395286 20.176775 13.567391 20.343444 14.199219 20.582031 C 15.013486 20.320555 14.429961 20.960713 14.476562 21.5 L 19.025391 21.5 C 19.013624 20.816453 19.196701 20.132649 19.617188 19.560547 C 20.051214 18.877471 20.737328 18.408453 21.5 18.175781 L 21.5 13.746094 C 21.312894 13.873122 21.157841 14.047102 21.064453 14.283203 C 20.848308 13.764388 19.692559 14.085081 19.894531 13.804688 C 20.123698 13.029782 20.098663 11.910148 19.216797 11.564453 C 19.914326 10.883454 19.499766 9.6711197 18.830078 9.1464844 C 18.278745 8.9089203 18.059485 8.9177869 18.193359 8.2636719 C 18.024967 7.3927679 17.013835 6.4953254 16.089844 6.8789062 C 16.09453 5.8959764 14.936571 5.337087 14.085938 5.4472656 C 13.457246 5.8382465 13.36148 5.6134978 12.867188 5.1523438 C 12.6268 5.0336257 12.356225 4.9899238 12.080078 4.9882812 z M 12.96875 9.6308594 C 12.985886 9.6301403 13.008894 9.6381815 13.041016 9.6582031 C 14.362337 10.057656 15.374774 11.299093 15.482422 12.677734 C 14.880809 12.666234 14.905265 12.137592 14.708984 11.712891 C 14.376857 11.008123 13.758787 10.443002 13.023438 10.183594 C 13.054832 10.090628 12.848797 9.6358932 12.96875 9.6308594 z M 9.9785156 10.189453 L 10.072266 10.714844 C 9.273543 11.389463 8.8679042 12.490504 9.0527344 13.521484 C 8.4720233 14.322161 8.4875759 13.158771 8.5390625 12.705078 C 8.6110684 11.710319 9.1570291 10.754395 9.9785156 10.189453 z M 13.910156 15.296875 C 14.077474 15.358075 14.244793 15.419271 14.412109 15.480469 C 13.441205 16.477801 11.824553 16.772519 10.568359 16.166016 C 10.954605 15.55452 11.577746 16.081963 12.144531 15.986328 C 12.788439 15.941408 13.409364 15.705735 13.910156 15.296875 z " />
  <path
     id="rect48996-8-9-6-9-6-3-5-3"
     style="font-variation-settings:normal;fill:#000000;fill-opacity:1;stroke:none;stroke-width:0.999997;stroke-linecap:round;stroke-linejoin:round;stroke-miterlimit:4;stroke-dasharray:none;stroke-dashoffset:0;stroke-opacity:0.5;stop-color:#000000;opacity:0.3;vector-effect:none;-inkscape-stroke:none;stop-opacity:1"
     d="M 11.650391 6 C 11.456492 6 11.300781 6.6247961 11.300781 7.4003906 L 11.300781 7.4492188 A 5.5999951 5.5999951 0 0 0 10.523438 7.6054688 L 10.503906 7.5585938 C 10.2071 6.8420406 9.823671 6.3242417 9.6445312 6.3984375 L 8.9980469 6.6660156 C 8.8189077 6.7402156 8.9141322 7.3771962 9.2109375 8.09375 L 9.2324219 8.1464844 A 5.5999951 5.5999951 0 0 0 8.5761719 8.5859375 L 8.5351562 8.5449219 C 7.9867274 7.9964966 7.4339833 7.6656261 7.296875 7.8027344 L 6.8027344 8.296875 C 6.6656262 8.4339833 6.9964929 8.9867278 7.5449219 9.5351562 L 7.5859375 9.5761719 A 5.5999951 5.5999951 0 0 0 7.1464844 10.232422 L 7.09375 10.210938 C 6.3771929 9.9141286 5.740219 9.8189043 5.6660156 9.9980469 L 5.3984375 10.644531 C 5.3242376 10.823671 5.8420401 11.207101 6.5585938 11.503906 L 6.6054688 11.523438 A 5.5999951 5.5999951 0 0 0 6.4492188 12.300781 L 6.4003906 12.300781 C 5.6247961 12.300787 5 12.456491 5 12.650391 L 5 13.349609 C 5 13.543509 5.6247961 13.699219 6.4003906 13.699219 L 6.4492188 13.699219 A 5.5999951 5.5999951 0 0 0 6.6054688 14.476562 L 6.5585938 14.496094 C 5.8420402 14.792901 5.3242381 15.176329 5.3984375 15.355469 L 5.6660156 16.001953 C 5.7402156 16.181093 6.3771963 16.085873 7.09375 15.789062 L 7.1464844 15.767578 A 5.5999951 5.5999951 0 0 0 7.5859375 16.423828 L 7.5449219 16.464844 C 6.9964964 17.01327 6.6656261 17.566015 6.8027344 17.703125 L 7.296875 18.197266 C 7.4339832 18.334369 7.9867278 18.003507 8.5351562 17.455078 L 8.5761719 17.414062 A 5.5999951 5.5999951 0 0 0 9.2324219 17.853516 L 9.2109375 17.90625 C 8.9141288 18.622796 8.8189112 19.259785 8.9980469 19.333984 L 9.6445312 19.601562 C 9.823671 19.675762 10.207101 19.157961 10.503906 18.441406 L 10.523438 18.394531 A 5.5999951 5.5999951 0 0 0 11.300781 18.550781 L 11.300781 18.599609 C 11.300781 19.375208 11.456492 20 11.650391 20 L 12.349609 20 C 12.543509 20 12.699219 19.375208 12.699219 18.599609 L 12.699219 18.550781 A 5.5999951 5.5999951 0 0 0 13.476562 18.394531 L 13.496094 18.441406 C 13.792899 19.157964 14.176329 19.675759 14.355469 19.601562 L 15.001953 19.333984 C 15.181093 19.259784 15.085873 18.622803 14.789062 17.90625 L 14.767578 17.853516 A 5.5999951 5.5999951 0 0 0 15.423828 17.414062 L 15.464844 17.455078 C 16.01327 18.003506 16.566017 18.334369 16.703125 18.197266 L 17.197266 17.703125 C 17.334369 17.566016 17.003507 17.01327 16.455078 16.464844 L 16.414062 16.423828 A 5.5999951 5.5999951 0 0 0 16.853516 15.767578 L 16.90625 15.789062 C 17.622801 16.085872 18.259784 16.181097 18.333984 16.001953 L 18.601562 15.355469 C 18.675762 15.176328 18.157956 14.792898 17.441406 14.496094 L 17.394531 14.476562 A 5.5999951 5.5999951 0 0 0 17.550781 13.699219 L 17.599609 13.699219 C 18.375209 13.699219 19 13.543509 19 13.349609 L 19 12.650391 C 19 12.456491 18.375209 12.300781 17.599609 12.300781 L 17.554688 12.300781 A 5.5999951 5.5999951 0 0 0 17.398438 11.521484 L 17.441406 11.503906 C 18.157952 11.207101 18.675759 10.823671 18.601562 10.644531 L 18.333984 9.9980469 C 18.259784 9.8189077 17.622802 9.9141277 16.90625 10.210938 L 16.865234 10.226562 A 5.5999951 5.5999951 0 0 0 16.421875 9.5664062 L 16.455078 9.5351562 C 17.003512 8.9867273 17.334369 8.4339832 17.197266 8.296875 L 16.703125 7.8027344 C 16.566015 7.6656261 16.01327 7.9964963 15.464844 8.5449219 L 15.433594 8.578125 A 5.5999951 5.5999951 0 0 0 14.773438 8.1347656 L 14.789062 8.09375 C 15.085872 7.3771954 15.181093 6.7402156 15.001953 6.6660156 L 14.355469 6.3984375 C 14.176328 6.3242376 13.792898 6.8420436 13.496094 7.5585938 L 13.478516 7.6015625 A 5.5999951 5.5999951 0 0 0 12.699219 7.4453125 L 12.699219 7.4003906 C 12.699225 6.6247961 12.543509 6 12.349609 6 L 11.650391 6 z M 12 8.5 A 4.5 4.5 0 0 1 16.5 13 A 4.5 4.5 0 0 1 16.357422 14.060547 L 13.986328 13.197266 A 2 2 0 0 0 14 13 A 2 2 0 0 0 12.154297 11.005859 L 11.714844 8.5253906 A 4.5 4.5 0 0 1 12 8.5 z M 10.730469 8.6992188 L 11.169922 11.181641 A 2 2 0 0 0 10 13 A 2 2 0 0 0 10.199219 13.863281 L 8.2675781 15.486328 A 4.5 4.5 0 0 1 7.5 13 A 4.5 4.5 0 0 1 10.730469 8.6992188 z M 12 12 A 1 1 0 0 1 13 13 A 1 1 0 0 1 12 14 A 1 1 0 0 1 11 13 A 1 1 0 0 1 12 12 z M 13.642578 14.134766 L 16.013672 15 A 4.5 4.5 0 0 1 12 17.5 A 4.5 4.5 0 0 1 8.9121094 16.251953 L 10.845703 14.628906 A 2 2 0 0 0 12 15 A 2 2 0 0 0 13.642578 14.134766 z M 3.7792969 14.898438 C 3.5818392 14.957636 3.2558011 15.43161 2.9960938 16.058594 L 2.9765625 16.105469 A 5.5999951 5.5999951 0 0 0 2.5 16.009766 L 2.5 17.117188 A 4.5 4.5 0 0 1 6 21.5 L 8.5 21.5 L 8.5 21.150391 C 8.5 20.956492 7.8752058 20.800781 7.0996094 20.800781 L 7.0507812 20.800781 A 5.5999951 5.5999951 0 0 0 6.8945312 20.023438 L 6.9414062 20.003906 C 7.6579616 19.707098 8.1757623 19.323671 8.1015625 19.144531 L 7.8339844 18.498047 C 7.7597844 18.318907 7.1228056 18.414127 6.40625 18.710938 L 6.3535156 18.732422 A 5.5999951 5.5999951 0 0 0 5.9140625 18.076172 L 5.9550781 18.035156 C 6.5035043 17.486737 6.8343734 16.933985 6.6972656 16.796875 L 6.203125 16.302734 C 6.0660162 16.165629 5.5132736 16.496493 4.9648438 17.044922 L 4.9238281 17.085938 A 5.5999951 5.5999951 0 0 0 4.2675781 16.646484 L 4.2890625 16.59375 C 4.5858716 15.877192 4.6810897 15.240215 4.5019531 15.166016 L 3.8554688 14.898438 C 3.8330763 14.889163 3.8075051 14.889981 3.7792969 14.898438 z M 20.144531 14.898438 L 19.498047 15.166016 C 19.318907 15.240216 19.414127 15.877195 19.710938 16.59375 L 19.732422 16.646484 A 5.5999951 5.5999951 0 0 0 19.076172 17.085938 L 19.035156 17.044922 C 18.486728 16.496493 17.933983 16.165629 17.796875 16.302734 L 17.302734 16.796875 C 17.165629 16.933984 17.496493 17.486728 18.044922 18.035156 L 18.085938 18.076172 A 5.5999951 5.5999951 0 0 0 17.646484 18.732422 L 17.59375 18.710938 C 16.877197 18.414128 16.240216 18.318902 16.166016 18.498047 L 15.898438 19.144531 C 15.824238 19.323672 16.342044 19.7071 17.058594 20.003906 L 17.105469 20.023438 A 5.5999951 5.5999951 0 0 0 16.949219 20.800781 L 16.900391 20.800781 C 16.124791 20.800781 15.5 20.956491 15.5 21.150391 L 15.5 21.5 L 18 21.5 A 4.5 4.5 0 0 1 21.5 17.132812 L 21.5 16.009766 A 5.5999951 5.5999951 0 0 0 21.023438 16.105469 L 21.003906 16.058594 C 20.707097 15.34203 20.323671 14.82424 20.144531 14.898438 z " />
  <path
     id="rect48996-8-9-6-9-6-3"
     style="font-variation-settings:normal;fill:url(#linearGradient5);fill-opacity:1;stroke:none;stroke-width:0.999997;stroke-linecap:round;stroke-linejoin:round;stroke-miterlimit:4;stroke-dasharray:none;stroke-dashoffset:0;stroke-opacity:0.5;stop-color:#000000"
     d="M 11.650391 5 C 11.456492 5 11.300781 5.6247945 11.300781 6.4003906 L 11.300781 6.4492188 A 5.5999951 5.5999951 0 0 0 10.523438 6.6054688 L 10.503906 6.5585938 C 10.207102 5.8420388 9.8236712 5.3242415 9.6445312 5.3984375 L 8.9980469 5.6660156 C 8.8189073 5.7402156 8.9141318 6.3771948 9.2109375 7.09375 L 9.2324219 7.1464844 A 5.5999951 5.5999951 0 0 0 8.5761719 7.5859375 L 8.5351562 7.5449219 C 7.9867262 6.9964956 7.4339835 6.6656259 7.296875 6.8027344 L 6.8027344 7.296875 C 6.665626 7.4339835 6.9964919 7.9867266 7.5449219 8.5351562 L 7.5859375 8.5761719 A 5.5999951 5.5999951 0 0 0 7.1464844 9.2324219 L 7.09375 9.2109375 C 6.3771915 8.9141285 5.740219 8.8189039 5.6660156 8.9980469 L 5.3984375 9.6445312 C 5.3242378 9.8236711 5.8420387 10.207099 6.5585938 10.503906 L 6.6054688 10.523438 A 5.5999951 5.5999951 0 0 0 6.4492188 11.300781 L 6.4003906 11.300781 C 5.6247945 11.300783 5 11.456491 5 11.650391 L 5 12.349609 C 5 12.543509 5.6247945 12.699219 6.4003906 12.699219 L 6.4492188 12.699219 A 5.5999951 5.5999951 0 0 0 6.6054688 13.476562 L 6.5585938 13.496094 C 5.8420386 13.792901 5.3242379 14.176329 5.3984375 14.355469 L 5.6660156 15.001953 C 5.7402156 15.181093 6.3771949 15.085873 7.09375 14.789062 L 7.1464844 14.767578 A 5.5999951 5.5999951 0 0 0 7.5859375 15.423828 L 7.5449219 15.464844 C 6.9964954 16.013272 6.6656259 16.566015 6.8027344 16.703125 L 7.296875 17.197266 C 7.4339834 17.334371 7.9867266 17.003507 8.5351562 16.455078 L 8.5761719 16.414062 A 5.5999951 5.5999951 0 0 0 9.2324219 16.853516 L 9.2109375 16.90625 C 8.9141282 17.622798 8.8189108 18.259785 8.9980469 18.333984 L 9.6445312 18.601562 C 9.8236712 18.675762 10.207099 18.157961 10.503906 17.441406 L 10.523438 17.394531 A 5.5999951 5.5999951 0 0 0 11.300781 17.550781 L 11.300781 17.599609 C 11.300781 18.375208 11.456492 19 11.650391 19 L 12.349609 19 C 12.543509 19 12.699219 18.375208 12.699219 17.599609 L 12.699219 17.550781 A 5.5999951 5.5999951 0 0 0 13.476562 17.394531 L 13.496094 17.441406 C 13.792901 18.157964 14.176329 18.675759 14.355469 18.601562 L 15.001953 18.333984 C 15.181093 18.259784 15.085873 17.622805 14.789062 16.90625 L 14.767578 16.853516 A 5.5999951 5.5999951 0 0 0 15.423828 16.414062 L 15.464844 16.455078 C 16.013272 17.003506 16.566017 17.334371 16.703125 17.197266 L 17.197266 16.703125 C 17.334371 16.566016 17.003507 16.013272 16.455078 15.464844 L 16.414062 15.423828 A 5.5999951 5.5999951 0 0 0 16.853516 14.767578 L 16.90625 14.789062 C 17.622803 15.085872 18.259784 15.181097 18.333984 15.001953 L 18.601562 14.355469 C 18.675762 14.176328 18.157956 13.7929 17.441406 13.496094 L 17.394531 13.476562 A 5.5999951 5.5999951 0 0 0 17.550781 12.699219 L 17.599609 12.699219 C 18.375209 12.699219 19 12.543509 19 12.349609 L 19 11.650391 C 19 11.456491 18.375209 11.300781 17.599609 11.300781 L 17.554688 11.300781 A 5.5999951 5.5999951 0 0 0 17.398438 10.521484 L 17.441406 10.503906 C 18.157958 10.207099 18.675759 9.8236712 18.601562 9.6445312 L 18.333984 8.9980469 C 18.259784 8.8189073 17.622804 8.9141278 16.90625 9.2109375 L 16.865234 9.2265625 A 5.5999951 5.5999951 0 0 0 16.421875 8.5664062 L 16.455078 8.5351562 C 17.003506 7.9867261 17.334371 7.4339834 17.197266 7.296875 L 16.703125 6.8027344 C 16.566015 6.6656259 16.013272 6.9964953 15.464844 7.5449219 L 15.433594 7.578125 A 5.5999951 5.5999951 0 0 0 14.773438 7.1347656 L 14.789062 7.09375 C 15.085872 6.377194 15.181093 5.7402156 15.001953 5.6660156 L 14.355469 5.3984375 C 14.176328 5.3242378 13.7929 5.8420422 13.496094 6.5585938 L 13.478516 6.6015625 A 5.5999951 5.5999951 0 0 0 12.699219 6.4453125 L 12.699219 6.4003906 C 12.699221 5.6247945 12.543509 5 12.349609 5 L 11.650391 5 z M 12 7.5 A 4.5 4.5 0 0 1 16.5 12 A 4.5 4.5 0 0 1 16.357422 13.060547 L 13.986328 12.197266 A 2 2 0 0 0 14 12 A 2 2 0 0 0 12.154297 10.005859 L 11.714844 7.5253906 A 4.5 4.5 0 0 1 12 7.5 z M 10.730469 7.6992188 L 11.169922 10.181641 A 2 2 0 0 0 10 12 A 2 2 0 0 0 10.199219 12.863281 L 8.2675781 14.486328 A 4.5 4.5 0 0 1 7.5 12 A 4.5 4.5 0 0 1 10.730469 7.6992188 z M 12 11 A 1 1 0 0 1 13 12 A 1 1 0 0 1 12 13 A 1 1 0 0 1 11 12 A 1 1 0 0 1 12 11 z M 13.642578 13.134766 L 16.013672 14 A 4.5 4.5 0 0 1 12 16.5 A 4.5 4.5 0 0 1 8.9121094 15.251953 L 10.845703 13.628906 A 2 2 0 0 0 12 14 A 2 2 0 0 0 13.642578 13.134766 z " />
  <path
     id="rect48996-8-9-6-9-6-3-2"
     style="font-variation-settings:normal;fill:url(#linearGradient6);fill-opacity:1;stroke:none;stroke-width:0.999997;stroke-linecap:round;stroke-linejoin:round;stroke-miterlimit:4;stroke-dasharray:none;stroke-dashoffset:0;stroke-opacity:0.5;stop-color:#000000"
     d="M 3.8203125 13.890625 C 3.6294945 13.888998 3.2743519 14.386825 2.9960938 15.058594 L 2.9765625 15.105469 A 5.5999951 5.5999951 0 0 0 2.5 15.009766 L 2.5 16.126953 A 4.5 4.5 0 0 1 6 20.5 A 4.5 4.5 0 0 1 5.8730469 21.5 L 6.9902344 21.5 A 5.5999951 5.5999951 0 0 0 7.0507812 21.199219 L 7.0996094 21.199219 C 7.8752066 21.199212 8.5 21.043509 8.5 20.849609 L 8.5 20.150391 C 8.5 19.956492 7.8752066 19.800781 7.0996094 19.800781 L 7.0507812 19.800781 A 5.5999951 5.5999951 0 0 0 6.8945312 19.023438 L 6.9414062 19.003906 C 7.6579625 18.707099 8.1757624 18.323671 8.1015625 18.144531 L 7.8339844 17.498047 C 7.7597844 17.318907 7.1228063 17.414127 6.40625 17.710938 L 6.3535156 17.732422 A 5.5999951 5.5999951 0 0 0 5.9140625 17.076172 L 5.9550781 17.035156 C 6.5035056 16.486728 6.8343735 15.933985 6.6972656 15.796875 L 6.203125 15.302734 C 6.0660161 15.165628 5.5132742 15.496493 4.9648438 16.044922 L 4.9238281 16.085938 A 5.5999951 5.5999951 0 0 0 4.2675781 15.646484 L 4.2890625 15.59375 C 4.5858712 14.877199 4.6810899 14.240215 4.5019531 14.166016 L 3.8554688 13.898438 C 3.8442725 13.8938 3.8330337 13.890733 3.8203125 13.890625 z " />
  <path
     id="rect48996-8-9-6-9-6-3-2-4"
     style="font-variation-settings:normal;fill:url(#linearGradient7);fill-opacity:1;stroke:none;stroke-width:0.999997;stroke-linecap:round;stroke-linejoin:round;stroke-miterlimit:4;stroke-dasharray:none;stroke-dashoffset:0;stroke-opacity:0.5;stop-color:#000000"
     d="M 20.179688 13.890625 C 20.166966 13.890733 20.155727 13.8938 20.144531 13.898438 L 19.498047 14.166016 C 19.318907 14.240216 19.414127 14.877194 19.710938 15.59375 L 19.732422 15.646484 A 5.5999951 5.5999951 0 0 0 19.076172 16.085938 L 19.035156 16.044922 C 18.486727 15.496493 17.933983 15.165628 17.796875 15.302734 L 17.302734 15.796875 C 17.165628 15.933984 17.496493 16.486727 18.044922 17.035156 L 18.085938 17.076172 A 5.5999951 5.5999951 0 0 0 17.646484 17.732422 L 17.59375 17.710938 C 16.877196 17.414128 16.240216 17.318902 16.166016 17.498047 L 15.898438 18.144531 C 15.824238 18.323672 16.342044 18.707099 17.058594 19.003906 L 17.105469 19.023438 A 5.5999951 5.5999951 0 0 0 16.949219 19.800781 L 16.900391 19.800781 C 16.124791 19.800781 15.5 19.956491 15.5 20.150391 L 15.5 20.849609 C 15.5 21.043509 16.124791 21.199219 16.900391 21.199219 L 16.945312 21.199219 A 5.5999951 5.5999951 0 0 0 17.005859 21.5 L 18.126953 21.5 A 4.5 4.5 0 0 1 18 20.5 A 4.5 4.5 0 0 1 21.5 16.126953 L 21.5 15.009766 A 5.5999951 5.5999951 0 0 0 21.023438 15.105469 L 21.003906 15.058594 C 20.725648 14.386822 20.370506 13.888999 20.179688 13.890625 z " />
  <path
     id="rect48996-8-9-6-9-6-3-5"
     style="font-variation-settings:normal;fill:#ffffff;fill-opacity:1;stroke:none;stroke-width:0.999997;stroke-linecap:round;stroke-linejoin:round;stroke-miterlimit:4;stroke-dasharray:none;stroke-dashoffset:0;stroke-opacity:0.5;stop-color:#000000;opacity:0.3;vector-effect:none;-inkscape-stroke:none;stop-opacity:1"
     d="M 11.650391 5 C 11.456492 5 11.300781 5.6247969 11.300781 6.4003906 L 11.300781 6.4492188 A 5.5999951 5.5999951 0 0 0 10.523438 6.6054688 L 10.503906 6.5585938 C 10.207101 5.8420413 9.8236709 5.3242418 9.6445312 5.3984375 L 8.9980469 5.6660156 C 8.8579305 5.7240522 8.8900239 6.1291189 9.0507812 6.6445312 L 9.6445312 6.3984375 C 9.8236709 6.3242418 10.207101 6.8420413 10.503906 7.5585938 L 10.523438 7.6054688 A 5.5999951 5.5999951 0 0 1 11.300781 7.4492188 L 11.300781 7.4003906 C 11.300781 6.6247969 11.456492 6 11.650391 6 L 12.349609 6 C 12.543509 6 12.699225 6.6247969 12.699219 7.4003906 L 12.699219 7.4453125 A 5.5999951 5.5999951 0 0 1 13.478516 7.6015625 L 13.496094 7.5585938 C 13.792897 6.8420443 14.176328 6.3242377 14.355469 6.3984375 L 14.949219 6.6445312 C 15.109978 6.1291188 15.14207 5.7240522 15.001953 5.6660156 L 14.355469 5.3984375 C 14.176328 5.3242377 13.792897 5.8420443 13.496094 6.5585938 L 13.478516 6.6015625 A 5.5999951 5.5999951 0 0 0 12.699219 6.4453125 L 12.699219 6.4003906 C 12.699225 5.6247969 12.543509 5 12.349609 5 L 11.650391 5 z M 7.3671875 6.7734375 C 7.3378806 6.7764408 7.3140135 6.7855958 7.296875 6.8027344 L 6.8027344 7.296875 C 6.711191 7.3884185 6.8406387 7.6706934 7.0917969 8.0078125 L 7.296875 7.8027344 C 7.4339832 7.6656262 7.986728 7.9964971 8.5351562 8.5449219 L 8.5761719 8.5859375 A 5.5999951 5.5999951 0 0 1 9.2324219 8.1464844 L 9.2109375 8.09375 C 9.0938676 7.8111174 9.0186306 7.5524393 8.96875 7.3242188 A 5.5999951 5.5999951 0 0 0 8.5761719 7.5859375 L 8.5351562 7.5449219 C 8.0552815 7.0650503 7.5723356 6.7524142 7.3671875 6.7734375 z M 16.632812 6.7734375 C 16.427664 6.7524142 15.944716 7.06505 15.464844 7.5449219 L 15.433594 7.578125 A 5.5999951 5.5999951 0 0 0 15.035156 7.3105469 C 14.985741 7.5415986 14.90847 7.8054771 14.789062 8.09375 L 14.773438 8.1347656 A 5.5999951 5.5999951 0 0 1 15.433594 8.578125 L 15.464844 8.5449219 C 16.013269 7.9964968 16.566015 7.6656262 16.703125 7.8027344 L 16.908203 8.0078125 C 17.159361 7.6706918 17.288806 7.3884184 17.197266 7.296875 L 16.703125 6.8027344 C 16.685986 6.7855958 16.66212 6.7764408 16.632812 6.7734375 z M 11.888672 8.5097656 A 4.5 4.5 0 0 0 11.714844 8.5253906 L 12.154297 11.005859 A 2 2 0 0 1 14 13 A 2 2 0 0 1 13.986328 13.197266 L 16.357422 14.060547 A 4.5 4.5 0 0 0 16.5 13 A 4.5 4.5 0 0 0 16.451172 12.365234 A 4.5 4.5 0 0 1 16.357422 13.060547 L 13.986328 12.197266 A 2 2 0 0 0 14 12 A 2 2 0 0 0 12.154297 10.005859 L 11.888672 8.5097656 z M 5.9609375 8.9082031 C 5.800313 8.902054 5.6938419 8.9308683 5.6660156 8.9980469 L 5.3984375 9.6445312 C 5.3627876 9.7306003 5.4661066 9.8635984 5.6601562 10.011719 L 5.6660156 9.9980469 C 5.740219 9.8189043 6.3771936 9.9141286 7.09375 10.210938 L 7.1464844 10.232422 A 5.5999951 5.5999951 0 0 1 7.5859375 9.5761719 L 7.5449219 9.5351562 C 7.4157752 9.4060099 7.3009662 9.2764848 7.1992188 9.1523438 A 5.5999951 5.5999951 0 0 0 7.1464844 9.2324219 L 7.09375 9.2109375 C 6.6459022 9.0254323 6.228645 8.9184517 5.9609375 8.9082031 z M 18.039062 8.9082031 C 17.771355 8.9184511 17.354095 9.025431 16.90625 9.2109375 L 16.865234 9.2265625 A 5.5999951 5.5999951 0 0 0 16.808594 9.1425781 C 16.705146 9.2694612 16.587351 9.4028829 16.455078 9.5351562 L 16.421875 9.5664062 A 5.5999951 5.5999951 0 0 1 16.865234 10.226562 L 16.90625 10.210938 C 17.622801 9.9141266 18.259784 9.8189083 18.333984 9.9980469 L 18.339844 10.011719 C 18.533893 9.8635984 18.637211 9.7306003 18.601562 9.6445312 L 18.333984 8.9980469 C 18.306159 8.9308698 18.199688 8.9020543 18.039062 8.9082031 z M 11.013672 10.292969 A 2 2 0 0 0 10 12 A 2 2 0 0 0 10.087891 12.548828 A 2 2 0 0 1 11.169922 11.181641 L 11.013672 10.292969 z M 6.15625 11.3125 C 5.502355 11.342078 5 11.478129 5 11.650391 L 5 12.349609 C 5 12.403618 5.0519671 12.454457 5.1386719 12.5 C 5.3632516 12.382037 5.8408299 12.300786 6.4003906 12.300781 L 6.4492188 12.300781 A 5.5999951 5.5999951 0 0 1 6.6054688 11.523438 L 6.5585938 11.503906 C 6.4126539 11.443456 6.2823785 11.377679 6.15625 11.3125 z M 17.84375 11.3125 C 17.717622 11.377679 17.587346 11.443456 17.441406 11.503906 L 17.398438 11.521484 A 5.5999951 5.5999951 0 0 1 17.554688 12.300781 L 17.599609 12.300781 C 18.159174 12.300781 18.636749 12.382036 18.861328 12.5 C 18.948033 12.454457 19 12.403618 19 12.349609 L 19 11.650391 C 19 11.478129 18.497647 11.342075 17.84375 11.3125 z M 11.134766 12.5 A 1 1 0 0 0 11 13 A 1 1 0 0 0 12 14 A 1 1 0 0 0 13 13 A 1 1 0 0 0 12.865234 12.5 A 1 1 0 0 1 12 13 A 1 1 0 0 1 11.134766 12.5 z M 7.5585938 12.556641 A 4.5 4.5 0 0 0 7.5 13 A 4.5 4.5 0 0 0 8.2675781 15.486328 L 10.199219 13.863281 A 2 2 0 0 1 10.003906 13.027344 L 8.2675781 14.486328 A 4.5 4.5 0 0 1 7.5585938 12.556641 z M 6.15625 13.6875 C 5.6630975 13.942345 5.3393503 14.212814 5.3984375 14.355469 L 5.6601562 14.988281 C 5.8699917 14.828111 6.1863139 14.650298 6.5585938 14.496094 L 6.6054688 14.476562 A 5.5999951 5.5999951 0 0 1 6.4492188 13.699219 L 6.4003906 13.699219 C 6.3138375 13.699219 6.2383884 13.691215 6.15625 13.6875 z M 17.84375 13.6875 C 17.761611 13.691215 17.686163 13.699219 17.599609 13.699219 L 17.550781 13.699219 A 5.5999951 5.5999951 0 0 1 17.394531 14.476562 L 17.441406 14.496094 C 17.813684 14.650296 18.130007 14.828111 18.339844 14.988281 L 18.601562 14.355469 C 18.66065 14.212813 18.336902 13.942344 17.84375 13.6875 z M 3.7792969 13.898438 C 3.5818392 13.957636 3.2558008 14.43161 2.9960938 15.058594 L 2.9765625 15.105469 A 5.5999951 5.5999951 0 0 0 2.5 15.009766 L 2.5 16.009766 A 5.5999951 5.5999951 0 0 1 2.9765625 16.105469 L 2.9960938 16.058594 C 3.2929019 15.34204 3.6763291 14.824238 3.8554688 14.898438 L 4.4492188 15.144531 C 4.6099765 14.629116 4.6420675 14.224051 4.5019531 14.166016 L 3.8554688 13.898438 C 3.8330763 13.889163 3.8075051 13.889981 3.7792969 13.898438 z M 20.144531 13.898438 L 19.498047 14.166016 C 19.35793 14.224052 19.390022 14.629119 19.550781 15.144531 L 20.144531 14.898438 C 20.323671 14.82424 20.707098 15.34203 21.003906 16.058594 L 21.023438 16.105469 A 5.5999951 5.5999951 0 0 1 21.5 16.009766 L 21.5 15.009766 A 5.5999951 5.5999951 0 0 0 21.023438 15.105469 L 21.003906 15.058594 C 20.707098 14.34203 20.323671 13.82424 20.144531 13.898438 z M 15.494141 14.810547 A 4.5 4.5 0 0 1 12 16.5 A 4.5 4.5 0 0 1 9.5449219 15.720703 L 8.9121094 16.251953 A 4.5 4.5 0 0 0 12 17.5 A 4.5 4.5 0 0 0 16.013672 15 L 15.494141 14.810547 z M 5.4960938 15.589844 C 5.3273063 15.715272 5.1484132 15.861353 4.9648438 16.044922 L 4.9238281 16.085938 A 5.5999951 5.5999951 0 0 0 4.53125 15.824219 C 4.4813698 16.052441 4.4061339 16.311115 4.2890625 16.59375 L 4.2675781 16.646484 A 5.5999951 5.5999951 0 0 1 4.9238281 17.085938 L 4.9648438 17.044922 C 5.513273 16.496493 6.0660163 16.16563 6.203125 16.302734 L 6.4082031 16.507812 C 6.5874688 16.267194 6.7051571 16.055616 6.7207031 15.921875 C 6.1702794 16.103318 5.7267951 16.148692 5.6660156 16.001953 L 5.4960938 15.589844 z M 18.503906 15.589844 L 18.333984 16.001953 C 18.273205 16.148695 17.829719 16.103319 17.279297 15.921875 C 17.294843 16.055615 17.412531 16.267192 17.591797 16.507812 L 17.796875 16.302734 C 17.933983 16.16563 18.486729 16.496493 19.035156 17.044922 L 19.076172 17.085938 A 5.5999951 5.5999951 0 0 1 19.732422 16.646484 L 19.710938 16.59375 C 19.593865 16.311117 19.518631 16.05244 19.46875 15.824219 A 5.5999951 5.5999951 0 0 0 19.076172 16.085938 L 19.035156 16.044922 C 18.851587 15.861353 18.672694 15.715272 18.503906 15.589844 z M 7.1992188 15.847656 C 6.8688901 16.250687 6.6979131 16.598302 6.8027344 16.703125 L 7.0917969 16.992188 C 7.2168077 16.824391 7.3626658 16.6471 7.5449219 16.464844 L 7.5859375 16.423828 A 5.5999951 5.5999951 0 0 1 7.1992188 15.847656 z M 16.800781 15.847656 A 5.5999951 5.5999951 0 0 1 16.414062 16.423828 L 16.455078 16.464844 C 16.637335 16.6471 16.783192 16.82439 16.908203 16.992188 L 17.197266 16.703125 C 17.302084 16.598303 17.13111 16.250687 16.800781 15.847656 z M 6.7792969 17.578125 C 6.6577599 17.618189 6.5358526 17.657254 6.40625 17.710938 L 6.3535156 17.732422 A 5.5999951 5.5999951 0 0 0 6.3007812 17.652344 C 6.199034 17.776484 6.0842241 17.906012 5.9550781 18.035156 L 5.9140625 18.076172 A 5.5999951 5.5999951 0 0 1 6.3535156 18.732422 L 6.40625 18.710938 C 7.1228049 18.414127 7.7597844 18.318907 7.8339844 18.498047 L 7.8398438 18.511719 C 8.0338931 18.363598 8.1372124 18.2306 8.1015625 18.144531 L 8.0039062 17.910156 C 7.668427 18.159456 7.3880904 18.288478 7.296875 18.197266 L 6.8027344 17.703125 C 6.7765307 17.676921 6.7730623 17.63176 6.7792969 17.578125 z M 17.220703 17.578125 C 17.226938 17.63176 17.223468 17.676921 17.197266 17.703125 L 16.703125 18.197266 C 16.61191 18.288478 16.331572 18.159456 15.996094 17.910156 L 15.898438 18.144531 C 15.862788 18.230601 15.966106 18.363599 16.160156 18.511719 L 16.166016 18.498047 C 16.240216 18.318902 16.877198 18.414128 17.59375 18.710938 L 17.646484 18.732422 A 5.5999951 5.5999951 0 0 1 18.085938 18.076172 L 18.044922 18.035156 C 17.915775 17.90601 17.800966 17.776485 17.699219 17.652344 A 5.5999951 5.5999951 0 0 0 17.646484 17.732422 L 17.59375 17.710938 C 17.464148 17.657254 17.34224 17.618189 17.220703 17.578125 z M 8.96875 17.675781 C 8.8921703 18.026165 8.8895684 18.289052 8.9980469 18.333984 L 9.0507812 18.355469 C 9.0955526 18.211926 9.1462823 18.062339 9.2109375 17.90625 L 9.2324219 17.853516 A 5.5999951 5.5999951 0 0 1 8.96875 17.675781 z M 15.03125 17.675781 A 5.5999951 5.5999951 0 0 1 14.767578 17.853516 L 14.789062 17.90625 C 14.853718 18.06234 14.904447 18.211925 14.949219 18.355469 L 15.001953 18.333984 C 15.110434 18.289051 15.107831 18.026164 15.03125 17.675781 z M 7.34375 19.8125 C 7.2176214 19.877679 7.0873464 19.943455 6.9414062 20.003906 L 6.8945312 20.023438 A 5.5999951 5.5999951 0 0 1 7.0507812 20.800781 L 7.0996094 20.800781 C 7.6591715 20.800781 8.1367489 20.882036 8.3613281 21 C 8.4480328 20.954458 8.5 20.903618 8.5 20.849609 L 8.5 20.150391 C 8.5 19.97813 7.997646 19.842075 7.34375 19.8125 z M 16.65625 19.8125 C 16.002353 19.842075 15.5 19.978129 15.5 20.150391 L 15.5 20.849609 C 15.5 20.903618 15.551967 20.954457 15.638672 21 C 15.863251 20.882036 16.340826 20.800781 16.900391 20.800781 L 16.949219 20.800781 A 5.5999951 5.5999951 0 0 1 17.105469 20.023438 L 17.058594 20.003906 C 16.912655 19.943456 16.782378 19.877679 16.65625 19.8125 z M 5.9511719 20.869141 A 4.5 4.5 0 0 1 5.8183594 21.5 L 6 21.5 A 4.5 4.5 0 0 0 5.9511719 20.869141 z M 18.066406 21 A 4.5 4.5 0 0 0 18 21.5 L 18.185547 21.5 A 4.5 4.5 0 0 1 18.066406 21 z " />
  <rect
     width="17"
     height="17"
     x="3.5012493"
     y="3.4987738"
     id="rect6741-9-5"
     style="opacity:0.2;fill:none;stroke:url(#linearGradient3101);stroke-width:1;stroke-linecap:round;stroke-linejoin:round;stroke-miterlimit:4;stroke-dasharray:none;stroke-dashoffset:0;stroke-opacity:1"
     rx="1"
     ry="1" />
</svg>
