<?xml version="1.0" encoding="UTF-8" standalone="no"?>
<svg
   id="svg4715"
   height="32"
   width="32"
   version="1.1"
   xmlns:xlink="http://www.w3.org/1999/xlink"
   xmlns="http://www.w3.org/2000/svg"
   xmlns:svg="http://www.w3.org/2000/svg"
   xmlns:rdf="http://www.w3.org/1999/02/22-rdf-syntax-ns#"
   xmlns:cc="http://creativecommons.org/ns#"
   xmlns:dc="http://purl.org/dc/elements/1.1/">
  <defs
     id="defs4717">
    <linearGradient
       id="linearGradient3688-166-749">
      <stop
         offset="0"
         style="stop-color:#181818;stop-opacity:1"
         id="stop2883" />
      <stop
         offset="1"
         style="stop-color:#181818;stop-opacity:0"
         id="stop2885" />
    </linearGradient>
    <linearGradient
       id="linearGradient3702-501-757">
      <stop
         offset="0"
         style="stop-color:#181818;stop-opacity:0"
         id="stop2895" />
      <stop
         offset="0.5"
         style="stop-color:#181818;stop-opacity:1"
         id="stop2897" />
      <stop
         offset="1"
         style="stop-color:#181818;stop-opacity:0"
         id="stop2899" />
    </linearGradient>
    <radialGradient
       cx="4.9929786"
       cy="43.5"
       r="2.5"
       fx="4.9929786"
       fy="43.5"
       id="radialGradient2976-7"
       xlink:href="#linearGradient3688-166-749"
       gradientUnits="userSpaceOnUse"
       gradientTransform="matrix(2.003784,0,0,1.4,27.98813,-17.4)" />
    <radialGradient
       cx="4.9929786"
       cy="43.5"
       r="2.5"
       fx="4.9929786"
       fy="43.5"
       id="radialGradient2978-8"
       xlink:href="#linearGradient3688-166-749"
       gradientUnits="userSpaceOnUse"
       gradientTransform="matrix(2.003784,0,0,1.4,-20.01187,-104.4)" />
    <linearGradient
       xlink:href="#linearGradient55160"
       id="linearGradient140570"
       gradientUnits="userSpaceOnUse"
       gradientTransform="matrix(0.69230783,0,0,0.69230789,-214.6154,-117.30769)"
       x1="333.12799"
       y1="173.42366"
       x2="333.12799"
       y2="212.31085" />
    <linearGradient
       id="linearGradient55160">
      <stop
         style="stop-color:#4d4d4d;stop-opacity:1"
         offset="0"
         id="stop55156" />
      <stop
         style="stop-color:#333333;stop-opacity:1"
         offset="1"
         id="stop55158" />
    </linearGradient>
    <linearGradient
       xlink:href="#linearGradient3924-0"
       id="linearGradient139875"
       gradientUnits="userSpaceOnUse"
       gradientTransform="matrix(0.67567568,0,0,0.67567568,-0.21622,-0.21621)"
       x1="23.99999"
       y1="6.2399855"
       x2="23.99999"
       y2="41.759987" />
    <linearGradient
       id="linearGradient3924-0">
      <stop
         id="stop3926-6"
         style="stop-color:#ffffff;stop-opacity:1"
         offset="0" />
      <stop
         id="stop3928-3"
         style="stop-color:#ffffff;stop-opacity:0.23529412"
         offset="0.04166666" />
      <stop
         id="stop3930-2"
         style="stop-color:#ffffff;stop-opacity:0.15686275"
         offset="0.95833325" />
      <stop
         id="stop3932-62"
         style="stop-color:#ffffff;stop-opacity:0.39215687"
         offset="1" />
    </linearGradient>
    <linearGradient
       xlink:href="#linearGradient149777"
       id="linearGradient140343"
       gradientUnits="userSpaceOnUse"
       gradientTransform="matrix(0.5,0,0,0.5,-27,-79)"
       x1="74.881271"
       y1="172.83885"
       x2="97.295143"
       y2="207.14944"
       spreadMethod="reflect" />
    <linearGradient
       id="linearGradient149777">
      <stop
         style="stop-color:#fafafa;stop-opacity:1"
         offset="0"
         id="stop149769" />
      <stop
         style="stop-color:#abacae;stop-opacity:1"
         offset="0.42301154"
         id="stop149771" />
      <stop
         style="stop-color:#d4d4d4;stop-opacity:1"
         offset="0.7009123"
         id="stop149773" />
      <stop
         style="stop-color:#7e8087;stop-opacity:1"
         offset="1"
         id="stop149775" />
    </linearGradient>
    <linearGradient
       xlink:href="#linearGradient3702-501-757"
       id="linearGradient4208"
       gradientUnits="userSpaceOnUse"
       x1="25.058096"
       y1="47.027729"
       x2="25.058096"
       y2="39.999443" />
  </defs>
  <metadata
     id="metadata4720">
    <rdf:RDF>
      <cc:Work
         rdf:about="">
        <dc:format>image/svg+xml</dc:format>
        <dc:type
           rdf:resource="http://purl.org/dc/dcmitype/StillImage" />
      </cc:Work>
    </rdf:RDF>
  </metadata>
  <g
     style="display:inline"
     id="g2036-2-6"
     transform="matrix(0.6999997,0,0,0.3333336,-0.8,15.33333)">
    <g
       style="opacity:0.4"
       id="g3712-3-4"
       transform="matrix(1.052632,0,0,1.285713,-1.263158,-13.42854)">
      <rect
         style="fill:url(#radialGradient2976-7);fill-opacity:1;stroke:none"
         id="rect2801-0-3"
         y="40"
         x="38"
         height="7"
         width="5" />
      <rect
         style="fill:url(#radialGradient2978-8);fill-opacity:1;stroke:none"
         id="rect3696-2-3"
         transform="scale(-1)"
         y="-47"
         x="-10"
         height="7"
         width="5" />
      <rect
         style="fill:url(#linearGradient4208);fill-opacity:1;stroke:none"
         id="rect3700-1-3"
         y="40"
         x="10"
         height="7.0000005"
         width="28" />
    </g>
  </g>
  <rect
     style="color:#000000;font-variation-settings:normal;display:inline;overflow:visible;visibility:visible;fill:url(#linearGradient140570);fill-opacity:1;fill-rule:nonzero;stroke:#040404;stroke-width:0.999998;stroke-linecap:butt;stroke-linejoin:miter;stroke-miterlimit:4;stroke-dasharray:none;stroke-dashoffset:0;stroke-opacity:0.5;marker:none;enable-background:accumulate;stop-color:#000000"
     id="rect5505-21-1-8"
     y="2.5"
     x="2.5"
     ry="3"
     rx="3"
     height="27.000008"
     width="27.000008" />
  <rect
     style="opacity:0.2;fill:none;stroke:url(#linearGradient139875);stroke-width:1;stroke-linecap:round;stroke-linejoin:round;stroke-miterlimit:4;stroke-dasharray:none;stroke-dashoffset:0;stroke-opacity:1"
     id="rect6741-7-4-4"
     y="3.5"
     x="3.5"
     ry="2"
     rx="2"
     height="25"
     width="25" />
  <path
     id="rect48236-8"
     style="font-variation-settings:normal;fill:url(#linearGradient140343);fill-opacity:1;stroke:none;stroke-width:0.999995;stroke-linecap:round;stroke-linejoin:round;stroke-miterlimit:4;stroke-dasharray:none;stroke-dashoffset:0;stroke-opacity:0.5;stop-color:#000000"
     d="M 15.35352,6 C 15.1581,6 15,6.892 15,8 v 0.0723 a 8,8 0 0 0 -1.09766,0.21875 l -0.0332,-0.0801 C 13.44476,7.18639 12.95804,6.42125 12.77734,6.4961 l -1.19922,0.4961 c -0.1807,0.0749 0.0171,0.96177 0.44141,1.98633 l 0.0352,0.084 a 8,8 0 0 0 -0.94727,0.63086 l -0.0566,-0.0566 C 10.26739,8.85331 9.52498,8.33259 9.3868,8.47077 L 8.47078,9.38679 C 8.3326,9.52497 8.85332,10.26738 9.6368,11.05085 l 0.0566,0.0566 a 8,8 0 0 0 -0.62109,0.92774 l -0.0781,-0.0332 C 7.96965,11.57761 7.08272,11.38184 7.00788,11.56254 l -0.49414,1.19727 c -0.0748,0.1807 0.68833,0.66741 1.71289,1.09179 l 0.0684,0.0293 A 8,8 0 0 0 8.07227,15 H 8 c -1.108,0 -2,0.1581 -2,0.35352 v 1.29296 C 6,16.8419 6.892,17 8,17 h 0.0723 a 8,8 0 0 0 0.2207,1.10938 l -0.0664,0.0273 c -1.02366,0.42401 -1.78767,0.91126 -1.71289,1.0918 l 0.4961,1.19531 c 0.0748,0.18054 0.95876,-0.0154 1.98242,-0.43945 l 0.0742,-0.0313 a 8,8 0 0 0 0.62695,0.93946 l -0.0566,0.0566 c -0.78348,0.78347 -1.3042,1.52588 -1.16602,1.66406 l 0.91602,0.91602 c 0.13818,0.13818 0.88059,-0.38254 1.66406,-1.16602 l 0.0566,-0.0566 a 8,8 0 0 0 0.94141,0.62891 l -0.0293,0.0703 c -0.42439,1.02455 -0.62015,1.90952 -0.43945,1.98437 l 1.19531,0.4961 c 0.1807,0.0748 0.66936,-0.6903 1.09375,-1.71485 l 0.0254,-0.0625 A 8,8 0 0 0 15,23.92773 V 24 c 0,1.108 0.1581,2 0.35352,2 h 1.29296 C 16.8419,26 17,25.108 17,24 v -0.0723 a 8,8 0 0 0 1.11914,-0.22265 l 0.0273,0.0664 c 0.42439,1.02455 0.91305,1.78969 1.09375,1.71485 l 1.19727,-0.4961 c 0.1807,-0.0749 -0.0171,-0.95981 -0.44141,-1.98437 l -0.0332,-0.0781 a 8,8 0 0 0 0.92969,-0.62109 l 0.0566,0.0566 c 0.78347,0.78348 1.52588,1.3042 1.66406,1.16602 l 0.91602,-0.91602 C 23.6674,22.47506 23.14668,21.73265 22.3632,20.94918 l -0.0566,-0.0566 a 8,8 0 0 0 0.63086,-0.94727 l 0.084,0.0352 c 1.02456,0.42439 1.91149,0.62015 1.98633,0.43945 l 0.49414,-1.19531 c 0.0748,-0.1807 -0.68834,-0.66936 -1.71289,-1.09375 l -0.0801,-0.0332 A 8,8 0 0 0 23.92773,17 H 24 c 1.108,0 2,-0.1581 2,-0.35352 V 15.35352 C 26,15.1581 25.108,15 24,15 h -0.0644 a 8,8 0 0 0 -0.22266,-1.11133 l 0.0606,-0.0254 c 1.02366,-0.42401 1.78767,-0.91126 1.71289,-1.0918 l -0.4961,-1.19726 c -0.0748,-0.18054 -0.95876,0.0154 -1.98242,0.43945 l -0.0605,0.0254 A 8,8 0 0 0 22.3185,11.0957 l 0.0449,-0.0449 c 0.78348,-0.78347 1.3042,-1.52588 1.16602,-1.66406 L 22.6134,8.47072 C 22.47522,8.33254 21.73281,8.85326 20.94934,9.63674 l -0.0449,0.0449 A 8,8 0 0 0 19.96498,9.05469 l 0.0312,-0.0781 c 0.42439,-1.02456 0.62016,-1.90952 0.43946,-1.98437 l -1.19532,-0.4961 c -0.1807,-0.0748 -0.66936,0.69029 -1.09375,1.71485 l -0.0312,0.0762 A 8,8 0 0 0 17,8.06445 V 8 C 17,6.892 16.8419,6 16.64648,6 Z M 17,9.58008 A 6.5,6.5 0 0 1 22.5,16 6.5,6.5 0 0 1 22.05664,18.33203 L 18.94531,16.53516 A 3,3 0 0 0 19,16 3,3 0 0 0 17,13.17188 Z m -2,0.008 v 3.5918 A 3,3 0 0 0 13,16 3,3 0 0 0 13.0547,16.53516 L 9.94337,18.33203 A 6.5,6.5 0 0 1 9.5,16 6.5,6.5 0 0 1 15,9.58789 Z m 1,4.91211 a 1.5,1.5 0 0 1 1.5,1.5 1.5,1.5 0 0 1 -1.5,1.5 1.5,1.5 0 0 1 -1.5,-1.5 1.5,1.5 0 0 1 1.5,-1.5 z m -1.95703,3.77344 A 3,3 0 0 0 16,19 3,3 0 0 0 17.95703,18.27344 l 3.09961,1.79101 A 6.5,6.5 0 0 1 16,22.5 6.5,6.5 0 0 1 10.94336,20.06445 Z" />
</svg>
