<?xml version="1.0" encoding="UTF-8" standalone="no"?>
<svg
   version="1.1"
   width="48"
   height="48"
   id="svg4117"
   xmlns:xlink="http://www.w3.org/1999/xlink"
   xmlns="http://www.w3.org/2000/svg"
   xmlns:svg="http://www.w3.org/2000/svg"
   xmlns:rdf="http://www.w3.org/1999/02/22-rdf-syntax-ns#"
   xmlns:cc="http://creativecommons.org/ns#"
   xmlns:dc="http://purl.org/dc/elements/1.1/">
  <defs
     id="defs4119">
    <linearGradient
       id="linearGradient3688-166-749">
      <stop
         id="stop2883"
         style="stop-color:#181818;stop-opacity:1"
         offset="0" />
      <stop
         id="stop2885"
         style="stop-color:#181818;stop-opacity:0"
         offset="1" />
    </linearGradient>
    <linearGradient
       id="linearGradient3702-501-757">
      <stop
         id="stop2895"
         style="stop-color:#181818;stop-opacity:0"
         offset="0" />
      <stop
         id="stop2897"
         style="stop-color:#181818;stop-opacity:1"
         offset="0.5" />
      <stop
         id="stop2899"
         style="stop-color:#181818;stop-opacity:0"
         offset="1" />
    </linearGradient>
    <filter
       color-interpolation-filters="sRGB"
       id="filter3831"
       x="-0.076499999"
       y="-0.067999999"
       width="1.153"
       height="1.136">
      <feGaussianBlur
         stdDeviation="0.6375"
         id="feGaussianBlur3833" />
    </filter>
    <clipPath
       id="clipPath3823">
      <path
         d="M 108.8125,58 C 107.25437,58 106,59.254375 106,60.8125 l 0,24.375 C 106,86.745625 107.25437,88 108.8125,88 l 24.375,0 C 134.74562,88 136,86.745625 136,85.1875 l 0,-24.375 C 136,59.254375 134.74562,58 133.1875,58 l -24.375,0 z m 7.1875,4.5 10,0 0,8.75 5,0 -10,13.75 -10,-13.75 5,0 0,-8.75 z"
         id="path3825"
         style="fill:#ffffff;fill-opacity:1;stroke:none" />
    </clipPath>
    <linearGradient
       x1="65.262688"
       y1="64.205269"
       x2="65.262688"
       y2="50.068527"
       id="linearGradient3812"
       xlink:href="#linearGradient5010"
       gradientUnits="userSpaceOnUse"
       gradientTransform="matrix(0.625,0,0,0.625,78.5,32.25)" />
    <filter
       color-interpolation-filters="sRGB"
       id="filter3806"
       x="-0.096000004"
       y="-0.096000004"
       width="1.192"
       height="1.192">
      <feGaussianBlur
         stdDeviation="1.2"
         id="feGaussianBlur3808" />
    </filter>
    <linearGradient
       x1="70"
       y1="54"
       x2="70"
       y2="75.095024"
       id="linearGradient3788"
       xlink:href="#linearGradient3737"
       gradientUnits="userSpaceOnUse"
       gradientTransform="translate(0,4)" />
    <linearGradient
       x1="56"
       y1="72"
       x2="88"
       y2="72"
       id="linearGradient3773"
       xlink:href="#linearGradient3778"
       gradientUnits="userSpaceOnUse"
       gradientTransform="matrix(0.9375,0,0,0.9375,-140.5,3.5)" />
    <linearGradient
       x1="65.262688"
       y1="64.205269"
       x2="65.262688"
       y2="50.068527"
       id="linearGradient3832"
       xlink:href="#linearGradient3737"
       gradientUnits="userSpaceOnUse"
       gradientTransform="matrix(0.625,0,0,0.625,28.5,31.25)" />
    <filter
       color-interpolation-filters="sRGB"
       id="filter3174"
       x="-0.047720931"
       y="-0.047172415"
       width="1.0954419"
       height="1.0943448">
      <feGaussianBlur
         stdDeviation="1.71"
         id="feGaussianBlur3176" />
    </filter>
    <linearGradient
       id="linearGradient3737">
      <stop
         id="stop3739"
         style="stop-color:#ffffff;stop-opacity:1"
         offset="0" />
      <stop
         id="stop3741"
         style="stop-color:#ffffff;stop-opacity:0"
         offset="1" />
    </linearGradient>
    <linearGradient
       x1="45.447727"
       y1="92.539597"
       x2="45.447727"
       y2="7.0165396"
       id="ButtonShadow"
       gradientUnits="userSpaceOnUse"
       gradientTransform="scale(1.0058652,0.994169)">
      <stop
         id="stop3750"
         style="stop-color:#000000;stop-opacity:1"
         offset="0" />
      <stop
         id="stop3752"
         style="stop-color:#000000;stop-opacity:0.58823532"
         offset="1" />
    </linearGradient>
    <linearGradient
       id="linearGradient5010">
      <stop
         id="stop5012"
         style="stop-color:#000000;stop-opacity:1"
         offset="0" />
      <stop
         id="stop5014"
         style="stop-color:#000000;stop-opacity:0"
         offset="1" />
    </linearGradient>
    <linearGradient
       id="linearGradient3778">
      <stop
         id="stop3780"
         style="stop-color:#499119;stop-opacity:1"
         offset="0" />
      <stop
         id="stop3782"
         style="stop-color:#8fd625;stop-opacity:1"
         offset="1" />
    </linearGradient>
    <radialGradient
       cx="4.9929786"
       cy="43.5"
       r="2.5"
       fx="4.9929786"
       fy="43.5"
       id="radialGradient3013-6"
       xlink:href="#linearGradient3688-166-749"
       gradientUnits="userSpaceOnUse"
       gradientTransform="matrix(2.003784,0,0,0.89999994,87.98813,64.85)" />
    <radialGradient
       cx="4.9929786"
       cy="43.5"
       r="2.5"
       fx="4.9929786"
       fy="43.5"
       id="radialGradient3015-1"
       xlink:href="#linearGradient3688-166-749"
       gradientUnits="userSpaceOnUse"
       gradientTransform="matrix(2.003784,0,0,0.89999994,-76.01187,-143.15)" />
    <linearGradient
       xlink:href="#linearGradient3702-501-757"
       id="linearGradient1191"
       gradientUnits="userSpaceOnUse"
       x1="25.058096"
       y1="47.027729"
       x2="25.058096"
       y2="39.999443"
       gradientTransform="matrix(1.1428571,0,0,0.6428571,54.57143,76.03572)" />
    <linearGradient
       xlink:href="#linearGradient149777"
       id="linearGradient2763"
       gradientUnits="userSpaceOnUse"
       gradientTransform="matrix(0.70000045,0,0,0.70000045,21.799963,-48.0001)"
       x1="74.881271"
       y1="172.83885"
       x2="97.295143"
       y2="207.14944"
       spreadMethod="reflect" />
    <linearGradient
       id="linearGradient149777">
      <stop
         style="stop-color:#fafafa;stop-opacity:1"
         offset="0"
         id="stop149769" />
      <stop
         style="stop-color:#abacae;stop-opacity:1"
         offset="0.42301154"
         id="stop149771" />
      <stop
         style="stop-color:#d4d4d4;stop-opacity:1"
         offset="0.7009123"
         id="stop149773" />
      <stop
         style="stop-color:#7e8087;stop-opacity:1"
         offset="1"
         id="stop149775" />
    </linearGradient>
    <linearGradient
       xlink:href="#linearGradient55160"
       id="linearGradient2023"
       gradientUnits="userSpaceOnUse"
       gradientTransform="matrix(0.49090925,0,0,0.49090929,34.69088,-9.69092)"
       x1="102.27444"
       y1="158.74422"
       x2="102.27444"
       y2="227.89934" />
    <linearGradient
       id="linearGradient55160">
      <stop
         style="stop-color:#4d4d4d;stop-opacity:1"
         offset="0"
         id="stop55156" />
      <stop
         style="stop-color:#333333;stop-opacity:1"
         offset="1"
         id="stop55158" />
    </linearGradient>
    <linearGradient
       x1="38.999996"
       y1="5.9999938"
       x2="38.999996"
       y2="41.945408"
       id="linearGradient3058-5"
       xlink:href="#linearGradient1201"
       gradientUnits="userSpaceOnUse"
       gradientTransform="translate(58,61.00001)" />
    <linearGradient
       id="linearGradient1201">
      <stop
         id="stop1193"
         style="stop-color:#ffffff;stop-opacity:1"
         offset="0" />
      <stop
         id="stop1195"
         style="stop-color:#ffffff;stop-opacity:0.23529412"
         offset="0.06781636" />
      <stop
         id="stop1197"
         style="stop-color:#ffffff;stop-opacity:0.15686275"
         offset="0.94694352" />
      <stop
         id="stop1199"
         style="stop-color:#ffffff;stop-opacity:0.39215687"
         offset="1" />
    </linearGradient>
    <linearGradient
       xlink:href="#linearGradient149777"
       id="linearGradient2557"
       gradientUnits="userSpaceOnUse"
       gradientTransform="matrix(-0.70000045,0,0,-0.70000045,162.20004,234.50012)"
       x1="74.881271"
       y1="172.83885"
       x2="97.295143"
       y2="207.14944"
       spreadMethod="reflect" />
    <linearGradient
       xlink:href="#linearGradient149777"
       id="linearGradient2902"
       gradientUnits="userSpaceOnUse"
       gradientTransform="matrix(-0.70000045,0,0,-0.70000045,122.20004,234.50012)"
       x1="74.881271"
       y1="172.83885"
       x2="97.295143"
       y2="207.14944"
       spreadMethod="reflect" />
    <linearGradient
       xlink:href="#linearGradient149777"
       id="linearGradient4900"
       gradientUnits="userSpaceOnUse"
       gradientTransform="matrix(0.70000045,0,0,0.70000045,21.799963,-48.0001)"
       x1="74.881271"
       y1="172.83885"
       x2="97.295143"
       y2="207.14944"
       spreadMethod="reflect" />
    <linearGradient
       xlink:href="#linearGradient55160"
       id="linearGradient2023-3"
       gradientUnits="userSpaceOnUse"
       gradientTransform="matrix(0.49090925,0,0,0.49090929,-23.30912,-9.69092)"
       x1="102.27444"
       y1="158.74422"
       x2="102.27444"
       y2="227.89934" />
    <linearGradient
       xlink:href="#linearGradient149777"
       id="linearGradient2763-7"
       gradientUnits="userSpaceOnUse"
       gradientTransform="matrix(0.70000045,0,0,0.70000045,-36.200037,-48.0001)"
       x1="74.881271"
       y1="172.83885"
       x2="97.295143"
       y2="207.14944"
       spreadMethod="reflect" />
    <linearGradient
       xlink:href="#linearGradient149777"
       id="linearGradient2557-3"
       gradientUnits="userSpaceOnUse"
       gradientTransform="matrix(-0.70000045,0,0,-0.70000045,104.20004,234.50012)"
       x1="74.881271"
       y1="172.83885"
       x2="97.295143"
       y2="207.14944"
       spreadMethod="reflect" />
    <linearGradient
       xlink:href="#linearGradient149777"
       id="linearGradient2902-7"
       gradientUnits="userSpaceOnUse"
       gradientTransform="matrix(-0.70000045,0,0,-0.70000045,64.20004,234.50012)"
       x1="74.881271"
       y1="172.83885"
       x2="97.295143"
       y2="207.14944"
       spreadMethod="reflect" />
    <radialGradient
       cx="4.9929786"
       cy="43.5"
       r="2.5"
       fx="4.9929786"
       fy="43.5"
       id="radialGradient3013-6-5-76"
       xlink:href="#linearGradient3688-166-749"
       gradientUnits="userSpaceOnUse"
       gradientTransform="matrix(2.003784,0,0,0.89999994,29.98813,64.850003)" />
    <radialGradient
       cx="4.9929786"
       cy="43.5"
       r="2.5"
       fx="4.9929786"
       fy="43.5"
       id="radialGradient3015-1-6-9"
       xlink:href="#linearGradient3688-166-749"
       gradientUnits="userSpaceOnUse"
       gradientTransform="matrix(2.003784,0,0,0.89999994,-18.01187,-143.15)" />
    <linearGradient
       xlink:href="#linearGradient3702-501-757"
       id="linearGradient1191-1"
       gradientUnits="userSpaceOnUse"
       x1="25.058096"
       y1="47.027729"
       x2="25.058096"
       y2="39.999443"
       gradientTransform="matrix(1.1428571,0,0,0.6428571,-3.428569,76.035716)" />
    <linearGradient
       xlink:href="#linearGradient3104-6"
       id="linearGradient3170"
       gradientUnits="userSpaceOnUse"
       gradientTransform="matrix(0.80749686,0,0,0.89471714,10.835333,59.867829)"
       x1="-51.786404"
       y1="50.786446"
       x2="-51.786404"
       y2="2.9062471" />
    <linearGradient
       id="linearGradient3104-6">
      <stop
         offset="0"
         style="stop-color:#000000;stop-opacity:0.31782946"
         id="stop3106-3" />
      <stop
         offset="1"
         style="stop-color:#000000;stop-opacity:0.24031007"
         id="stop3108-9" />
    </linearGradient>
    <linearGradient
       xlink:href="#linearGradient3600-9-51"
       id="linearGradient1512"
       gradientUnits="userSpaceOnUse"
       gradientTransform="matrix(0.97142632,0,0,0.93431938,-47.889132,61.488173)"
       x1="74.838791"
       y1="4.535933"
       x2="74.838791"
       y2="49.779099" />
    <linearGradient
       id="linearGradient3600-9-51">
      <stop
         offset="0"
         style="stop-color:#f4f4f4;stop-opacity:1"
         id="stop3602-0-0" />
      <stop
         offset="1"
         style="stop-color:#dbdbdb;stop-opacity:1"
         id="stop3604-9-04" />
    </linearGradient>
    <linearGradient
       x1="38.999996"
       y1="5.9999938"
       x2="38.999996"
       y2="41.945408"
       id="linearGradient3058-5-8"
       xlink:href="#linearGradient1201"
       gradientUnits="userSpaceOnUse"
       gradientTransform="translate(4e-6,61.000006)" />
    <radialGradient
       cx="4.9929786"
       cy="43.5"
       r="2.5"
       fx="4.9929786"
       fy="43.5"
       id="radialGradient3013-6-3"
       xlink:href="#linearGradient3688-166-749"
       gradientUnits="userSpaceOnUse"
       gradientTransform="matrix(2.003784,0,0,0.89999994,29.98813,4.8500025)" />
    <radialGradient
       cx="4.9929786"
       cy="43.5"
       r="2.5"
       fx="4.9929786"
       fy="43.5"
       id="radialGradient3015-1-5"
       xlink:href="#linearGradient3688-166-749"
       gradientUnits="userSpaceOnUse"
       gradientTransform="matrix(2.003784,0,0,0.89999994,-18.01187,-83.149997)" />
    <linearGradient
       xlink:href="#linearGradient3702-501-757"
       id="linearGradient1191-1-3"
       gradientUnits="userSpaceOnUse"
       x1="25.058096"
       y1="47.027729"
       x2="25.058096"
       y2="39.999443"
       gradientTransform="matrix(1.1428571,0,0,0.6428571,-3.428569,16.035716)" />
    <linearGradient
       xlink:href="#linearGradient55160"
       id="linearGradient856-2"
       x1="23.528315"
       y1="6.08318"
       x2="23.528315"
       y2="44.23307"
       gradientUnits="userSpaceOnUse" />
    <linearGradient
       xlink:href="#linearGradient149777"
       id="linearGradient2763-7-1"
       gradientUnits="userSpaceOnUse"
       gradientTransform="matrix(0.70000045,0,0,0.70000045,-36.200037,-108.0001)"
       x1="74.881271"
       y1="172.83885"
       x2="97.295143"
       y2="207.14944"
       spreadMethod="reflect" />
    <linearGradient
       xlink:href="#linearGradient149777"
       id="linearGradient811"
       gradientUnits="userSpaceOnUse"
       gradientTransform="matrix(0.70000045,0,0,-0.70000045,-56.225948,174.52016)"
       x1="74.881271"
       y1="172.83885"
       x2="97.295143"
       y2="207.14944"
       spreadMethod="reflect" />
    <linearGradient
       xlink:href="#linearGradient149777"
       id="linearGradient864"
       gradientUnits="userSpaceOnUse"
       gradientTransform="matrix(-0.70000045,0,0,-0.70000045,104.17413,174.52016)"
       x1="74.881271"
       y1="172.83885"
       x2="97.295143"
       y2="207.14944"
       spreadMethod="reflect" />
    <linearGradient
       x1="38.999996"
       y1="5.9999938"
       x2="38.999996"
       y2="41.945408"
       id="linearGradient3058-5-8-4"
       xlink:href="#linearGradient1201"
       gradientUnits="userSpaceOnUse"
       gradientTransform="translate(4e-6,1.0000062)" />
  </defs>
  <metadata
     id="metadata4122">
    <rdf:RDF>
      <cc:Work
         rdf:about="">
        <dc:format>image/svg+xml</dc:format>
        <dc:type
           rdf:resource="http://purl.org/dc/dcmitype/StillImage" />
      </cc:Work>
    </rdf:RDF>
  </metadata>
  <rect
     style="opacity:0.4;fill:url(#radialGradient3013-6-5-76);fill-opacity:1;stroke:none;stroke-width:0.862764"
     id="rect2801-3-7-7-2"
     y="101.75"
     x="40"
     height="4.4999995"
     width="5" />
  <rect
     style="opacity:0.4;fill:url(#radialGradient3015-1-6-9);fill-opacity:1;stroke:none;stroke-width:0.862764"
     id="rect3696-6-3-5-0"
     transform="scale(-1)"
     y="-106.25"
     x="-8"
     height="4.4999995"
     width="5" />
  <rect
     style="opacity:0.4;fill:url(#linearGradient1191-1);fill-opacity:1;stroke:none;stroke-width:0.862764"
     id="rect3700-4-6-9-6"
     y="101.75"
     x="8"
     height="4.5"
     width="32" />
  <rect
     style="color:#000000;font-variation-settings:normal;display:inline;overflow:visible;visibility:visible;vector-effect:none;fill:none;fill-opacity:1;fill-rule:nonzero;stroke:url(#linearGradient3170);stroke-width:0.999922;stroke-linecap:butt;stroke-linejoin:round;stroke-miterlimit:4;stroke-dasharray:none;stroke-dashoffset:0;stroke-opacity:1;-inkscape-stroke:none;marker:none;enable-background:accumulate;stop-color:#000000"
     id="rect5505-21-1-2-8"
     y="65.5"
     x="4.5000153"
     ry="4"
     rx="4"
     height="39"
     width="39" />
  <rect
     style="color:#000000;font-variation-settings:normal;display:inline;overflow:visible;visibility:visible;vector-effect:none;fill:url(#linearGradient1512);fill-opacity:1;fill-rule:nonzero;stroke:none;stroke-width:1;stroke-linecap:butt;stroke-linejoin:miter;stroke-miterlimit:4;stroke-dasharray:none;stroke-dashoffset:0;stroke-opacity:1;-inkscape-stroke:none;marker:none;enable-background:accumulate;stop-color:#000000"
     id="rect5505-21-1-7-2-9"
     y="66"
     x="5"
     ry="3.5"
     rx="3.5"
     height="38"
     width="38" />
  <rect
     style="fill:none;stroke:url(#linearGradient3058-5-8);stroke-width:1;stroke-linecap:round;stroke-linejoin:round;stroke-miterlimit:4;stroke-dasharray:none;stroke-dashoffset:0;stroke-opacity:1"
     id="rect6741-2-8-4"
     y="66.5"
     x="5.5000153"
     ry="3"
     rx="3"
     height="37"
     width="37" />
  <g
     transform="translate(-135.85714,-31.05041)"
     id="layer2"
     style="display:none">
    <path
       d="M 11,7 48,5 85,7 c 3.324,0 6,2.676 6,6 l 0,73 c 0,3.324 -2.676,6 -6,6 L 11,92 C 7.676,92 5,89.324 5,86 L 5,13 C 5,9.676 7.676,7 11,7 z"
       id="rect3745"
       style="opacity:0.9;fill:url(#ButtonShadow);fill-opacity:1;fill-rule:nonzero;stroke:none;filter:url(#filter3174)" />
  </g>
  <g
     transform="translate(-135.85714,-31.05041)"
     id="layer4"
     style="display:none">
    <rect
       width="30"
       height="30"
       rx="2.8125"
       ry="2.8125"
       x="-86"
       y="56"
       transform="matrix(0,-1,1,0,0,4)"
       id="rect3790"
       style="opacity:0.6;fill:#000000;fill-opacity:1;stroke:none;filter:url(#filter3806)" />
    <rect
       width="30"
       height="30"
       rx="2.8125"
       ry="2.8125"
       x="-88"
       y="56"
       transform="matrix(0,-1,1,0,0,0)"
       id="rect2993"
       style="fill:url(#linearGradient3773);fill-opacity:1;stroke:none" />
    <path
       d="M 58.8125,58 C 57.254375,58 56,59.254375 56,60.8125 l 0,24.375 c 0,0.873066 0.410816,1.641163 1.03125,2.15625 C 57.02841,87.289908 57,87.242129 57,87.1875 l 0,-24.375 C 57,61.254375 58.17075,60 59.625,60 l 22.75,0 C 83.82925,60 85,61.254375 85,62.8125 l 0,24.375 c 0,0.05463 -0.02841,0.102408 -0.03125,0.15625 C 85.589184,86.828663 86,86.060566 86,85.1875 l 0,-24.375 C 86,59.254375 84.745625,58 83.1875,58 l -24.375,0 z"
       id="rect3775"
       style="opacity:0.5;fill:url(#linearGradient3788);fill-opacity:1;stroke:none" />
    <path
       d="m 116,63.5 0,8.75 -5,0 10,13.75 10,-13.75 -5,0 0,-8.75 -10,0 z"
       transform="translate(-50,0)"
       clip-path="url(#clipPath3823)"
       id="path3810"
       style="opacity:0.6;fill:url(#linearGradient3812);fill-opacity:1;fill-rule:nonzero;stroke:none;display:inline;filter:url(#filter3831)" />
    <path
       d="m 66,62.5 0,8.75 -5,0 10,13.75 10,-13.75 -5,0 0,-8.75 -10,0 z"
       id="path4278"
       style="fill:url(#linearGradient3832);fill-opacity:1;fill-rule:nonzero;stroke:none;display:inline" />
  </g>
  <rect
     style="opacity:0.4;fill:url(#radialGradient3013-6);fill-opacity:1;stroke:none;stroke-width:0.862764"
     id="rect2801-3-7"
     y="101.75"
     x="98"
     height="4.4999995"
     width="5" />
  <rect
     style="opacity:0.4;fill:url(#radialGradient3015-1);fill-opacity:1;stroke:none;stroke-width:0.862764"
     id="rect3696-6-3"
     transform="scale(-1)"
     y="-106.25"
     x="-66"
     height="4.4999995"
     width="5" />
  <rect
     style="opacity:0.4;fill:url(#linearGradient1191);fill-opacity:1;stroke:none;stroke-width:0.862764"
     id="rect3700-4-6"
     y="101.75"
     x="66"
     height="4.5"
     width="32" />
  <rect
     style="color:#000000;font-variation-settings:normal;display:inline;overflow:visible;visibility:visible;opacity:0.5;fill:none;fill-opacity:1;fill-rule:nonzero;stroke:#000000;stroke-width:0.999922;stroke-linecap:butt;stroke-linejoin:round;stroke-miterlimit:4;stroke-dasharray:none;stroke-dashoffset:0;stroke-opacity:0.787812;marker:none;enable-background:accumulate;stop-color:#000000"
     id="rect5505-21-1-2"
     y="65.5"
     x="62.500031"
     ry="4"
     rx="4"
     height="39"
     width="39" />
  <rect
     style="color:#000000;font-variation-settings:normal;display:inline;overflow:visible;visibility:visible;fill:url(#linearGradient4900);fill-opacity:1;fill-rule:nonzero;stroke:none;stroke-width:0.999994;stroke-linecap:round;stroke-linejoin:round;stroke-miterlimit:4;stroke-dasharray:none;stroke-dashoffset:0;stroke-opacity:0.5;marker:none;enable-background:accumulate;stop-color:#000000"
     id="rect5505-21-1-7"
     y="66"
     x="63"
     ry="3.5"
     rx="3.5"
     height="38"
     width="38" />
  <rect
     style="color:#000000;font-variation-settings:normal;display:inline;overflow:visible;visibility:visible;fill:url(#linearGradient2023);fill-opacity:1;fill-rule:nonzero;stroke:none;stroke-width:0.999996;stroke-linecap:butt;stroke-linejoin:miter;stroke-miterlimit:4;stroke-dasharray:none;stroke-dashoffset:0;stroke-opacity:0.5;marker:none;enable-background:accumulate;stop-color:#000000"
     id="rect5505-21-1-7-0"
     y="68"
     x="65"
     ry="1.5"
     rx="1.5"
     height="34"
     width="34" />
  <rect
     style="fill:none;stroke:url(#linearGradient3058-5);stroke-width:1;stroke-linecap:round;stroke-linejoin:round;stroke-miterlimit:4;stroke-dasharray:none;stroke-dashoffset:0;stroke-opacity:1"
     id="rect6741-2-1"
     y="66.5"
     x="63.500031"
     ry="3"
     rx="3"
     height="37"
     width="37" />
  <path
     id="rect48996-8-9-6-9-9"
     style="font-variation-settings:normal;fill:url(#linearGradient2763);fill-opacity:1;stroke:none;stroke-width:0.999994;stroke-linecap:round;stroke-linejoin:round;stroke-miterlimit:4;stroke-dasharray:none;stroke-dashoffset:0;stroke-opacity:0.5;stop-color:#000000"
     d="m 81.3,70.99998 c -0.3878,0 -0.7,1.2488 -0.7,2.80001 v 0.0998 a 11.200007,11.200007 0 0 0 -1.55449,0.31035 l -0.0383,-0.093 c -0.59362,-1.43312 -1.36028,-2.46715 -1.71856,-2.31876 l -1.29336,0.53458 c -0.35828,0.1484 -0.16842,1.42157 0.42519,2.85469 l 0.0438,0.10664 a 11.200007,11.200007 0 0 0 -1.31249,0.87773 l -0.082,-0.082 c -1.09688,-1.09687 -2.2004,-1.75899 -2.47462,-1.48477 l -0.98985,0.98984 c -0.27421,0.27422 0.3879,1.37775 1.48477,2.47461 l 0.082,0.082 a 11.200007,11.200007 0 0 0 -0.87774,1.3125 l -0.10664,-0.0438 c -1.43313,-0.59362 -2.70629,-0.78348 -2.8547,-0.42519 l -0.53457,1.29336 c -0.1484,0.35828 0.88564,1.12493 2.31876,1.71855 l 0.093,0.0383 A 11.200007,11.200007 0 0 0 70.8998,83.6 H 70.8 c -1.5512,0 -2.8,0.3122 -2.8,0.7 v 1.4 c 0,0.3878 1.2488,0.7 2.8,0.7 h 0.0998 a 11.200007,11.200007 0 0 0 0.31035,1.55449 l -0.093,0.0383 C 69.68404,88.58641 68.65,89.35307 68.7984,89.71135 l 0.53458,1.29335 c 0.1484,0.35829 1.42157,0.16843 2.85468,-0.42519 l 0.10665,-0.0438 a 11.200007,11.200007 0 0 0 0.87773,1.3125 l -0.082,0.082 c -1.09686,1.09687 -1.75898,2.2004 -1.48477,2.47461 l 0.98985,0.98985 c 0.27422,0.27422 1.37774,-0.38791 2.47461,-1.48477 l 0.082,-0.082 a 11.200007,11.200007 0 0 0 1.3125,0.87773 l -0.0438,0.10665 c -0.59362,1.43312 -0.78347,2.70628 -0.4252,2.85469 l 1.29336,0.53457 c 0.35829,0.1484 1.12494,-0.88564 1.71856,-2.31875 l 0.0383,-0.093 a 11.200007,11.200007 0 0 0 1.55449,0.31034 V 96.2 c 0,1.55121 0.3122,2.80001 0.7,2.80001 h 1.4 c 0.3878,0 0.7,-1.2488 0.7,-2.80001 v -0.0998 a 11.200007,11.200007 0 0 0 1.55449,-0.31035 l 0.0383,0.093 c 0.59362,1.43312 1.36027,2.46715 1.71856,2.31876 l 1.29336,-0.53458 c 0.35828,-0.1484 0.16842,-1.42157 -0.4252,-2.85469 l -0.0438,-0.10664 a 11.200007,11.200007 0 0 0 1.3125,-0.87773 l 0.082,0.082 c 1.09685,1.09686 2.20039,1.75898 2.4746,1.48476 l 0.98985,-0.98984 c 0.27422,-0.27422 -0.3879,-1.37775 -1.48476,-2.47462 l -0.082,-0.082 a 11.200007,11.200007 0 0 0 0.87773,-1.3125 l 0.10665,0.0438 c 1.43311,0.59363 2.70628,0.78349 2.85468,0.4252 l 0.53457,-1.29336 c 0.1484,-0.35828 -0.88565,-1.12493 -2.31875,-1.71856 l -0.093,-0.0383 A 11.200007,11.200007 0 0 0 93.1002,86.4 H 93.2 c 1.5512,0 2.8,-0.3122 2.8,-0.7 v -1.4 c 0,-0.3878 -1.2488,-0.7 -2.8,-0.7 h -0.0916 a 11.200007,11.200007 0 0 0 -0.31035,-1.55723 l 0.0848,-0.0356 C 94.31596,81.41355 95.35,80.64689 95.20161,80.28861 L 94.66703,78.9953 c -0.1484,-0.35828 -1.42157,-0.16843 -2.85468,0.42519 l -0.0834,0.0342 a 11.200007,11.200007 0 0 0 -0.88322,-1.3207 l 0.0643,-0.0643 c 1.09686,-1.09686 1.75898,-2.20039 1.48476,-2.47461 l -0.98986,-0.98984 c -0.27422,-0.27422 -1.37774,0.3879 -2.47461,1.48476 l -0.0643,0.0643 a 11.200007,11.200007 0 0 0 -1.3207,-0.8832 l 0.0342,-0.0834 c 0.59362,-1.43312 0.78348,-2.70629 0.4252,-2.85469 l -1.29336,-0.53458 c -0.35828,-0.1484 -1.12493,0.88564 -1.71855,2.31875 l -0.0356,0.0848 a 11.200007,11.200007 0 0 0 -1.5572,-0.31033 v -0.0916 c 0,-1.5512 -0.3122,-2.8 -0.7,-2.8 z m 1.4,4.92462 a 9.1049394,9.1049394 0 0 1 8.40547,9.07539 9.1049394,9.1049394 0 0 1 -0.90918,3.95664 L 84.70156,85.78339 A 2.8134146,2.8134146 0 0 0 84.81367,84.99999 2.8134146,2.8134146 0 0 0 82.7,82.27518 Z m -1.4,0.0314 v 6.32461 a 2.8134146,2.8134146 0 0 0 -2.11367,2.71935 2.8134146,2.8134146 0 0 0 0.1121,0.7834 l -5.46875,3.15821 A 9.1049394,9.1049394 0 0 1 72.89453,84.99999 9.1049394,9.1049394 0 0 1 81.3,75.95604 Z m 0.7,7.64396 a 1.4000009,1.4000009 0 0 1 1.4,1.4 1.4000009,1.4000009 0 0 1 -1.4,1.4 1.4000009,1.4000009 0 0 1 -1.4,-1.4 1.4000009,1.4000009 0 0 1 1.4,-1.4 z m -1.98379,3.38516 A 2.8134146,2.8134146 0 0 0 82,87.81363 2.8134146,2.8134146 0 0 0 83.98379,86.98512 l 5.5125,3.18281 A 9.1049394,9.1049394 0 0 1 82,94.10543 9.1049394,9.1049394 0 0 1 74.53378,90.15153 Z" />
  <path
     id="rect48996-8-9-6-9-2"
     style="font-variation-settings:normal;fill:url(#linearGradient2557);fill-opacity:1;stroke:none;stroke-width:0.999994;stroke-linecap:round;stroke-linejoin:round;stroke-miterlimit:4;stroke-dasharray:none;stroke-dashoffset:0;stroke-opacity:0.5;stop-color:#000000"
     d="m 97.36133,88.28516 c -0.0254,2.2e-4 -0.0499,0.004 -0.0723,0.0137 l -1.29297,0.53515 c -0.35828,0.1484 -0.16979,1.4204 0.42383,2.85352 l 0.0449,0.10742 a 11.200007,11.200007 0 0 0 -1.3125,0.87695 l -0.082,-0.082 c -1.09686,-1.09686 -2.2004,-1.75859 -2.47461,-1.48437 l -0.99024,0.99023 c -0.27421,0.27422 0.38752,1.37775 1.48438,2.47461 l 0.082,0.082 a 11.200007,11.200007 0 0 0 -0.87695,1.3125 l -0.10742,-0.0449 c -1.43312,-0.59362 -2.70707,-0.78211 -2.85547,-0.42383 l -0.5332,1.29297 c -0.1484,0.35828 0.88526,1.12513 2.31836,1.71875 l 0.0937,0.0371 a 11.200007,11.200007 0 0 0 -0.31055,1.55469 h -0.0996 C 89.24958,100.09961 88,100.41298 88,100.80078 V 102 h 4.93555 a 9.1049394,9.1049394 0 0 1 -0.041,-0.5 9.1049394,9.1049394 0 0 1 0.9082,-3.95703 l 5.19336,2.99805 c 3.8e-4,-0.014 0.004,-0.027 0.004,-0.041 V 98.92971 L 94.50402,96.33205 A 9.1049394,9.1049394 0 0 1 99,92.91211 v -2.3125 c -0.55536,-1.33429 -1.25878,-2.31786 -1.63867,-2.31445 z" />
  <path
     id="rect48996-8-9-6-9-2-0"
     style="font-variation-settings:normal;fill:url(#linearGradient2902);fill-opacity:1;stroke:none;stroke-width:0.999994;stroke-linecap:round;stroke-linejoin:round;stroke-miterlimit:4;stroke-dasharray:none;stroke-dashoffset:0;stroke-opacity:0.5;stop-color:#000000"
     d="M 66.63867,88.28516 C 66.25878,88.28216 65.55536,89.26532 65,90.59961 v 2.32812 a 9.1049394,9.1049394 0 0 1 4.4668,3.41993 L 65,98.92969 V 100.5 c 0,0.0141 0.004,0.0271 0.004,0.041 l 5.16601,-2.98243 A 9.1049394,9.1049394 0 0 1 71.10557,101.5 9.1049394,9.1049394 0 0 1 71.05677,102 H 76 v -1.19922 c 0,-0.3878 -1.24958,-0.70117 -2.80078,-0.70117 h -0.0996 a 11.200007,11.200007 0 0 0 -0.31055,-1.55469 l 0.0937,-0.0371 c 1.43312,-0.59362 2.46676,-1.36047 2.31836,-1.71875 l -0.53515,-1.29298 c -0.1484,-0.35828 -1.4204,-0.16979 -2.85352,0.42383 l -0.10742,0.0449 a 11.200007,11.200007 0 0 0 -0.87695,-1.3125 l 0.082,-0.082 c 1.09685,-1.09686 1.75859,-2.20039 1.48437,-2.47461 l -0.99023,-0.99023 c -0.27422,-0.27422 -1.37775,0.38752 -2.47461,1.48437 l -0.082,0.082 a 11.200007,11.200007 0 0 0 -1.3125,-0.87695 l 0.0449,-0.10742 c 0.59362,-1.43312 0.7821,-2.70512 0.42382,-2.85352 l -1.29296,-0.53515 c -0.0224,-0.009 -0.0468,-0.0134 -0.0723,-0.0137 z" />
  <rect
     style="color:#000000;font-variation-settings:normal;display:inline;overflow:visible;visibility:visible;opacity:0.3;fill:none;fill-opacity:1;fill-rule:nonzero;stroke:#040404;stroke-width:0.999997;stroke-linecap:butt;stroke-linejoin:miter;stroke-miterlimit:4;stroke-dasharray:none;stroke-dashoffset:0;stroke-opacity:0.501961;marker:none;enable-background:accumulate;stop-color:#000000"
     id="rect5505-21-1-7-0-3-8"
     y="68.5"
     x="65.5"
     ry="1"
     rx="1"
     height="33"
     width="33" />
  <rect
     style="color:#000000;font-variation-settings:normal;display:inline;overflow:visible;visibility:visible;fill:url(#linearGradient2023-3);fill-opacity:1;fill-rule:nonzero;stroke:none;stroke-width:0.999996;stroke-linecap:butt;stroke-linejoin:miter;stroke-miterlimit:4;stroke-dasharray:none;stroke-dashoffset:0;stroke-opacity:0.5;marker:none;enable-background:accumulate;stop-color:#000000"
     id="rect5505-21-1-7-0-9"
     y="68"
     x="7"
     ry="17"
     rx="17"
     height="34"
     width="34" />
  <path
     id="rect48996-8-9-6-9-9-3"
     style="font-variation-settings:normal;fill:url(#linearGradient2763-7);fill-opacity:1;stroke:none;stroke-width:0.999994;stroke-linecap:round;stroke-linejoin:round;stroke-miterlimit:4;stroke-dasharray:none;stroke-dashoffset:0;stroke-opacity:0.5;stop-color:#000000"
     d="m 23.3,70.99998 c -0.3878,0 -0.7,1.2488 -0.7,2.80001 v 0.0998 a 11.200007,11.200007 0 0 0 -1.55449,0.31035 l -0.0383,-0.093 c -0.59362,-1.43312 -1.36028,-2.46715 -1.71856,-2.31876 l -1.29336,0.53458 c -0.35828,0.1484 -0.16842,1.42157 0.42519,2.85469 l 0.0438,0.10664 a 11.200007,11.200007 0 0 0 -1.31249,0.87773 l -0.082,-0.082 c -1.09688,-1.09687 -2.2004,-1.75899 -2.47462,-1.48477 l -0.98985,0.98984 c -0.27421,0.27422 0.3879,1.37775 1.48477,2.47461 l 0.082,0.082 a 11.200007,11.200007 0 0 0 -0.87774,1.3125 l -0.10664,-0.0438 c -1.43313,-0.59362 -2.70629,-0.78348 -2.8547,-0.42519 l -0.53457,1.29336 c -0.1484,0.35828 0.88564,1.12493 2.31876,1.71855 l 0.093,0.0383 A 11.200007,11.200007 0 0 0 12.8998,83.6 H 12.8 c -1.5512,0 -2.8,0.3122 -2.8,0.7 v 1.4 c 0,0.3878 1.2488,0.7 2.8,0.7 h 0.0998 a 11.200007,11.200007 0 0 0 0.31035,1.55449 l -0.093,0.0383 C 11.68404,88.58641 10.65,89.35307 10.7984,89.71135 l 0.53458,1.29335 c 0.1484,0.35829 1.42157,0.16843 2.85468,-0.42519 l 0.10665,-0.0438 a 11.200007,11.200007 0 0 0 0.87773,1.3125 l -0.082,0.082 c -1.09686,1.09687 -1.75898,2.2004 -1.48477,2.47461 l 0.98985,0.98985 c 0.27422,0.27422 1.37774,-0.38791 2.47461,-1.48477 l 0.082,-0.082 a 11.200007,11.200007 0 0 0 1.3125,0.87773 l -0.0438,0.10665 c -0.59362,1.43312 -0.78347,2.70628 -0.4252,2.85469 l 1.29336,0.53457 c 0.35829,0.1484 1.12494,-0.88564 1.71856,-2.31875 l 0.0383,-0.093 a 11.200007,11.200007 0 0 0 1.55449,0.31034 V 96.2 c 0,1.55121 0.3122,2.80001 0.7,2.80001 h 1.4 c 0.3878,0 0.7,-1.2488 0.7,-2.80001 v -0.0998 a 11.200007,11.200007 0 0 0 1.55449,-0.31035 l 0.0383,0.093 c 0.59362,1.43312 1.36027,2.46715 1.71856,2.31876 l 1.29336,-0.53458 c 0.35828,-0.1484 0.16842,-1.42157 -0.4252,-2.85469 l -0.0438,-0.10664 a 11.200007,11.200007 0 0 0 1.3125,-0.87773 l 0.082,0.082 c 1.09685,1.09686 2.20039,1.75898 2.4746,1.48476 l 0.98985,-0.98984 c 0.27422,-0.27422 -0.3879,-1.37775 -1.48476,-2.47462 l -0.082,-0.082 a 11.200007,11.200007 0 0 0 0.87773,-1.3125 l 0.10665,0.0438 c 1.43311,0.59363 2.70628,0.78349 2.85468,0.4252 l 0.53457,-1.29336 c 0.1484,-0.35828 -0.88565,-1.12493 -2.31875,-1.71856 l -0.093,-0.0383 A 11.200007,11.200007 0 0 0 35.1002,86.4 H 35.2 c 1.5512,0 2.8,-0.3122 2.8,-0.7 v -1.4 c 0,-0.3878 -1.2488,-0.7 -2.8,-0.7 h -0.0916 a 11.200007,11.200007 0 0 0 -0.31035,-1.55723 l 0.0848,-0.0356 C 36.31596,81.41355 37.35,80.64689 37.20161,80.28861 L 36.66703,78.9953 c -0.1484,-0.35828 -1.42157,-0.16843 -2.85468,0.42519 l -0.0834,0.0342 a 11.200007,11.200007 0 0 0 -0.88322,-1.3207 l 0.0643,-0.0643 c 1.09686,-1.09686 1.75898,-2.20039 1.48476,-2.47461 l -0.98986,-0.98984 c -0.27422,-0.27422 -1.37774,0.3879 -2.47461,1.48476 l -0.0643,0.0643 a 11.200007,11.200007 0 0 0 -1.3207,-0.8832 l 0.0342,-0.0834 c 0.59362,-1.43312 0.78348,-2.70629 0.4252,-2.85469 l -1.29336,-0.53458 c -0.35828,-0.1484 -1.12493,0.88564 -1.71855,2.31875 l -0.0356,0.0848 a 11.200007,11.200007 0 0 0 -1.5572,-0.31033 v -0.0916 c 0,-1.5512 -0.3122,-2.8 -0.7,-2.8 z m 1.4,4.92462 a 9.1049394,9.1049394 0 0 1 8.40547,9.07539 9.1049394,9.1049394 0 0 1 -0.90918,3.95664 L 26.70156,85.78339 A 2.8134146,2.8134146 0 0 0 26.81367,84.99999 2.8134146,2.8134146 0 0 0 24.7,82.27518 Z m -1.4,0.0314 v 6.32461 a 2.8134146,2.8134146 0 0 0 -2.11367,2.71935 2.8134146,2.8134146 0 0 0 0.1121,0.7834 l -5.46875,3.15821 A 9.1049394,9.1049394 0 0 1 14.89453,84.99999 9.1049394,9.1049394 0 0 1 23.3,75.95604 Z m 0.7,7.64396 a 1.4000009,1.4000009 0 0 1 1.4,1.4 1.4000009,1.4000009 0 0 1 -1.4,1.4 1.4000009,1.4000009 0 0 1 -1.4,-1.4 1.4000009,1.4000009 0 0 1 1.4,-1.4 z m -1.98379,3.38516 A 2.8134146,2.8134146 0 0 0 24,87.81363 2.8134146,2.8134146 0 0 0 25.98379,86.98512 l 5.5125,3.18281 A 9.1049394,9.1049394 0 0 1 24,94.10543 9.1049394,9.1049394 0 0 1 16.53378,90.15153 Z" />
  <path
     id="rect48996-8-9-6-9-2-6"
     style="font-variation-settings:normal;fill:url(#linearGradient2557-3);fill-opacity:1;stroke:none;stroke-width:0.999994;stroke-linecap:round;stroke-linejoin:round;stroke-miterlimit:4;stroke-dasharray:none;stroke-dashoffset:0;stroke-opacity:0.5;stop-color:#000000"
     d="m 39.361328,88.285156 c -0.0254,2.2e-4 -0.04987,0.004 -0.07227,0.01367 l -1.292968,0.535156 c -0.35828,0.1484 -0.169792,1.420397 0.423828,2.853516 l 0.04492,0.107422 a 11.200007,11.200007 0 0 0 -1.3125,0.876953 l -0.08203,-0.08203 C 35.97345,91.492984 34.869909,90.831248 34.595699,91.105468 l -0.990234,0.990234 c -0.27421,0.27422 0.387516,1.377751 1.484375,2.474609 l 0.08203,0.08203 a 11.200007,11.200007 0 0 0 -0.876953,1.3125 L 34.1875,95.919922 c -1.433119,-0.59362 -2.707069,-0.782108 -2.855469,-0.423828 l -0.533203,1.292968 c -0.1484,0.35828 0.885261,1.125131 2.31836,1.71875 l 0.09375,0.03711 a 11.200007,11.200007 0 0 0 -0.201172,0.884766 c 1.343798,-0.838374 2.561131,-1.857878 3.617187,-3.027344 l -0.123047,-0.07031 a 9.1049394,9.1049394 0 0 1 1.482422,-1.65039 c 1.091853,-1.577982 1.924264,-3.350286 2.433594,-5.257813 -0.403618,-0.693815 -0.80378,-1.140959 -1.058594,-1.138672 z M 31.724609,100.15234 C 30.710769,100.25774 30,100.50848 30,100.80078 v 0.11524 c 0.592205,-0.22216 1.166289,-0.4796 1.724609,-0.76368 z" />
  <path
     id="rect48996-8-9-6-9-2-0-1"
     mask="none"
     style="font-variation-settings:normal;fill:url(#linearGradient2902-7);fill-opacity:1;stroke:none;stroke-width:0.999994;stroke-linecap:round;stroke-linejoin:round;stroke-miterlimit:4;stroke-dasharray:none;stroke-dashoffset:0;stroke-opacity:0.5;stop-color:#000000"
     d="m 8.6386719,88.285156 c -0.254814,-0.002 -0.654976,0.444949 -1.0585938,1.138672 0.5192638,1.944731 1.3745566,3.748645 2.4980469,5.34961 a 9.1049394,9.1049394 0 0 1 1.388672,1.574218 l -0.09375,0.05469 c 1.056056,1.169466 2.273389,2.18897 3.617187,3.027344 a 11.200007,11.200007 0 0 0 -0.201172,-0.884766 l 0.09375,-0.03711 c 1.433119,-0.593619 2.46676,-1.36047 2.31836,-1.71875 l -0.535156,-1.292968 c -0.1484,-0.35828 -1.420397,-0.169792 -2.853516,0.423828 l -0.107422,0.04492 a 11.200007,11.200007 0 0 0 -0.876953,-1.3125 l 0.08203,-0.08203 c 1.096849,-1.096858 1.758595,-2.200389 1.484375,-2.474609 l -0.990234,-0.990234 c -0.27422,-0.27422 -1.377751,0.387526 -2.474609,1.484375 l -0.08203,0.08203 A 11.200007,11.200007 0 0 0 9.5351562,91.794922 L 9.5800781,91.6875 C 10.173698,90.254381 10.362186,88.982384 10.003906,88.833984 L 8.7109375,88.298828 c -0.0224,-0.009 -0.046766,-0.01337 -0.072266,-0.01367 z m 7.6367191,11.867184 c 0.55832,0.28408 1.132404,0.54152 1.724609,0.76368 v -0.11524 c 0,-0.29229 -0.71073,-0.54302 -1.724609,-0.64844 z" />
  <rect
     style="color:#000000;font-variation-settings:normal;display:inline;overflow:visible;visibility:visible;opacity:0.3;fill:none;fill-opacity:1;fill-rule:nonzero;stroke:#040404;stroke-width:0.999997;stroke-linecap:butt;stroke-linejoin:miter;stroke-miterlimit:4;stroke-dasharray:none;stroke-dashoffset:0;stroke-opacity:0.501961;marker:none;enable-background:accumulate;stop-color:#000000"
     id="rect5505-21-1-7-0-3-8-2"
     y="68.5"
     x="7.5"
     ry="16.5"
     rx="16.5"
     height="33"
     width="33" />
  <rect
     style="opacity:0.6;fill:url(#radialGradient3013-6-3);fill-opacity:1;stroke:none;stroke-width:0.862764"
     id="rect2801-3-7-9"
     y="41.75"
     x="40"
     height="4.4999995"
     width="5" />
  <rect
     style="opacity:0.6;fill:url(#radialGradient3015-1-5);fill-opacity:1;stroke:none;stroke-width:0.862764"
     id="rect3696-6-3-3"
     transform="scale(-1)"
     y="-46.25"
     x="-8"
     height="4.4999995"
     width="5" />
  <rect
     style="opacity:0.6;fill:url(#linearGradient1191-1-3);fill-opacity:1;stroke:none;stroke-width:0.862764"
     id="rect3700-4-6-6"
     y="41.75"
     x="8"
     height="4.5"
     width="32" />
  <rect
     style="color:#000000;display:inline;overflow:visible;visibility:visible;fill:url(#linearGradient856-2);fill-opacity:1;fill-rule:nonzero;stroke:#000000;stroke-width:1;stroke-opacity:0.5;marker:none;enable-background:accumulate"
     id="rect5505-21-1"
     y="5.4999952"
     x="4.5000153"
     ry="4"
     rx="4"
     height="39"
     width="39" />
  <path
     id="rect48996-8-9-6-9-9-3-10"
     style="font-variation-settings:normal;fill:url(#linearGradient2763-7-1);fill-opacity:1;stroke:none;stroke-width:0.999994;stroke-linecap:round;stroke-linejoin:round;stroke-miterlimit:4;stroke-dasharray:none;stroke-dashoffset:0;stroke-opacity:0.5;stop-color:#000000"
     d="m 23.3,10.99998 c -0.3878,0 -0.7,1.2488 -0.7,2.80001 v 0.0998 a 11.200007,11.200007 0 0 0 -1.55449,0.31035 l -0.0383,-0.093 c -0.59362,-1.43312 -1.36028,-2.46715 -1.71856,-2.31876 l -1.29336,0.53458 c -0.35828,0.1484 -0.16842,1.42157 0.42519,2.85469 l 0.0438,0.10664 a 11.200007,11.200007 0 0 0 -1.31249,0.87773 l -0.082,-0.082 c -1.09688,-1.09687 -2.2004,-1.75899 -2.47462,-1.48477 l -0.98985,0.98984 c -0.27421,0.27422 0.3879,1.37775 1.48477,2.47461 l 0.082,0.082 a 11.200007,11.200007 0 0 0 -0.87774,1.3125 l -0.10664,-0.0438 c -1.43313,-0.59362 -2.70629,-0.78348 -2.8547,-0.42519 l -0.53457,1.29336 c -0.1484,0.35828 0.88564,1.12493 2.31876,1.71855 l 0.093,0.0383 A 11.200007,11.200007 0 0 0 12.8998,23.6 H 12.8 c -1.5512,0 -2.8,0.3122 -2.8,0.7 v 1.4 c 0,0.3878 1.2488,0.7 2.8,0.7 h 0.0998 a 11.200007,11.200007 0 0 0 0.31035,1.55449 l -0.093,0.0383 C 11.68404,28.58641 10.65,29.35307 10.7984,29.71135 l 0.53458,1.29335 c 0.1484,0.35829 1.42157,0.16843 2.85468,-0.42519 l 0.10665,-0.0438 a 11.200007,11.200007 0 0 0 0.87773,1.3125 l -0.082,0.082 c -1.09686,1.09687 -1.75898,2.2004 -1.48477,2.47461 l 0.98985,0.98985 c 0.27422,0.27422 1.37774,-0.38791 2.47461,-1.48477 l 0.082,-0.082 a 11.200007,11.200007 0 0 0 1.3125,0.87773 l -0.0438,0.10665 c -0.59362,1.43312 -0.78347,2.70628 -0.4252,2.85469 l 1.29336,0.53457 c 0.35829,0.1484 1.12494,-0.88564 1.71856,-2.31875 l 0.0383,-0.093 a 11.200007,11.200007 0 0 0 1.55449,0.31034 V 36.2 c 0,1.55121 0.3122,2.80001 0.7,2.80001 h 1.4 c 0.3878,0 0.7,-1.2488 0.7,-2.80001 v -0.0998 a 11.200007,11.200007 0 0 0 1.55449,-0.31035 l 0.0383,0.093 c 0.59362,1.43312 1.36027,2.46715 1.71856,2.31876 l 1.29336,-0.53458 c 0.35828,-0.1484 0.16842,-1.42157 -0.4252,-2.85469 l -0.0438,-0.10664 a 11.200007,11.200007 0 0 0 1.3125,-0.87773 l 0.082,0.082 c 1.09685,1.09686 2.20039,1.75898 2.4746,1.48476 l 0.98985,-0.98984 c 0.27422,-0.27422 -0.3879,-1.37775 -1.48476,-2.47462 l -0.082,-0.082 a 11.200007,11.200007 0 0 0 0.87773,-1.3125 l 0.10665,0.0438 c 1.43311,0.59363 2.70628,0.78349 2.85468,0.4252 l 0.53457,-1.29336 c 0.1484,-0.35828 -0.88565,-1.12493 -2.31875,-1.71856 l -0.093,-0.0383 A 11.200007,11.200007 0 0 0 35.1002,26.4 H 35.2 c 1.5512,0 2.8,-0.3122 2.8,-0.7 v -1.4 c 0,-0.3878 -1.2488,-0.7 -2.8,-0.7 h -0.0916 a 11.200007,11.200007 0 0 0 -0.31035,-1.55723 l 0.0848,-0.0356 C 36.31596,21.41355 37.35,20.64689 37.20161,20.28861 L 36.66703,18.9953 c -0.1484,-0.35828 -1.42157,-0.16843 -2.85468,0.42519 l -0.0834,0.0342 a 11.200007,11.200007 0 0 0 -0.88322,-1.3207 l 0.0643,-0.0643 c 1.09686,-1.09686 1.75898,-2.20039 1.48476,-2.47461 l -0.98986,-0.98984 c -0.27422,-0.27422 -1.37774,0.3879 -2.47461,1.48476 l -0.0643,0.0643 a 11.200007,11.200007 0 0 0 -1.3207,-0.8832 l 0.0342,-0.0834 c 0.59362,-1.43312 0.78348,-2.70629 0.4252,-2.85469 l -1.29336,-0.53458 c -0.35828,-0.1484 -1.12493,0.88564 -1.71855,2.31875 l -0.0356,0.0848 a 11.200007,11.200007 0 0 0 -1.5572,-0.31033 v -0.0916 c 0,-1.5512 -0.3122,-2.8 -0.7,-2.8 z m 1.4,4.92462 a 9.1049394,9.1049394 0 0 1 8.40547,9.07539 9.1049394,9.1049394 0 0 1 -0.90918,3.95664 L 26.70156,25.78339 A 2.8134146,2.8134146 0 0 0 26.81367,24.99999 2.8134146,2.8134146 0 0 0 24.7,22.27518 Z m -1.4,0.0314 v 6.32461 a 2.8134146,2.8134146 0 0 0 -2.11367,2.71935 2.8134146,2.8134146 0 0 0 0.1121,0.7834 l -5.46875,3.15821 A 9.1049394,9.1049394 0 0 1 14.89453,24.99999 9.1049394,9.1049394 0 0 1 23.3,15.95604 Z m 0.7,7.64396 a 1.4000009,1.4000009 0 0 1 1.4,1.4 1.4000009,1.4000009 0 0 1 -1.4,1.4 1.4000009,1.4000009 0 0 1 -1.4,-1.4 1.4000009,1.4000009 0 0 1 1.4,-1.4 z m -1.98379,3.38516 A 2.8134146,2.8134146 0 0 0 24,27.81363 2.8134146,2.8134146 0 0 0 25.98379,26.98512 l 5.5125,3.18281 A 9.1049394,9.1049394 0 0 1 24,34.10543 9.1049394,9.1049394 0 0 1 16.53378,30.15153 Z" />
  <path
     id="rect48996-8-9-6-9-9-3-1"
     style="font-variation-settings:normal;fill:url(#linearGradient811);fill-opacity:1;stroke:none;stroke-width:0.999994;stroke-linecap:round;stroke-linejoin:round;stroke-miterlimit:4;stroke-dasharray:none;stroke-dashoffset:0;stroke-opacity:0.5;stop-color:#000000"
     d="m 4.5,27.519531 v 4.9375 c 2.7992436,0.15574 5.3706547,1.592387 6.970703,3.894531 l 0.699219,1.210938 c 0.597374,1.233685 0.908495,2.586326 0.910156,3.957031 -7.28e-4,1.014627 -0.171043,2.021996 -0.503906,2.980469 h 2.25 l -0.05469,-0.02344 c 0.140201,-0.510882 0.243977,-1.031068 0.310547,-1.55664 h 0.0918 c 1.551199,0 2.800781,-0.311419 2.800781,-0.699219 V 40.82031 c 0,-0.387799 -1.249582,-0.701171 -2.800781,-0.701171 h -0.09961 c -0.06675,-0.524257 -0.170527,-1.043132 -0.310547,-1.552735 l 0.09375,-0.03906 c 1.433098,-0.59363 2.466759,-1.360471 2.318359,-1.71875 l -0.535156,-1.292969 c -0.1484,-0.35829 -1.420407,-0.167848 -2.853516,0.425781 l -0.107421,0.04297 c -0.261085,-0.457581 -0.554131,-0.89617 -0.876954,-1.3125 l 0.08203,-0.08203 c 1.096859,-1.096869 1.758594,-2.20039 1.484375,-2.47461 L 13.378906,31.125 c -0.274209,-0.27422 -1.37776,0.387516 -2.474609,1.484375 l -0.08203,0.08203 C 10.405935,32.368583 9.9673463,32.075538 9.5097656,31.814453 l 0.042969,-0.107422 c 0.5936194,-1.433118 0.7840604,-2.705116 0.425781,-2.853515 L 8.6855469,28.318359 C 8.3272572,28.16997 7.5604163,29.2036 6.9667969,30.636719 l -0.039063,0.09375 C 6.4181313,30.590449 5.8992567,30.486674 5.375,30.419922 v -0.09961 c 0,-1.551208 -0.3133723,-2.800781 -0.7011719,-2.800781 z" />
  <path
     id="rect48996-8-9-6-9-9-3-1-0"
     style="font-variation-settings:normal;fill:url(#linearGradient864);fill-opacity:1;stroke:none;stroke-width:0.999994;stroke-linecap:round;stroke-linejoin:round;stroke-miterlimit:4;stroke-dasharray:none;stroke-dashoffset:0;stroke-opacity:0.5;stop-color:#000000"
     d="m 43.273438,27.519531 c -0.3878,0 -0.699219,1.249573 -0.699219,2.800781 v 0.09961 c -0.524914,0.06666 -1.044445,0.170437 -1.554688,0.310547 l -0.03906,-0.09375 C 40.386849,29.2036 39.621962,28.16997 39.263672,28.318359 l -1.294922,0.535157 c -0.35828,0.148399 -0.167838,1.420397 0.425781,2.853515 l 0.04297,0.107422 c -0.457581,0.261085 -0.89617,0.55413 -1.3125,0.876953 l -0.08203,-0.08203 C 35.94612,31.512516 34.844522,30.85078 34.570312,31.125 l -0.990234,0.990234 c -0.27422,0.27422 0.387516,1.377741 1.484375,2.47461 l 0.08203,0.08203 c -0.323494,0.41627 -0.617192,0.85486 -0.878906,1.3125 l -0.105469,-0.04297 C 32.729001,35.347777 31.45504,35.157335 31.306641,35.515625 l -0.533203,1.292969 c -0.1484,0.358279 0.88526,1.12512 2.318359,1.71875 l 0.0918,0.03906 c -0.14002,0.509603 -0.243795,1.028478 -0.310547,1.552735 h -0.09961 c -1.551199,0 -2.798829,0.313372 -2.798829,0.701171 v 1.400391 c 0,0.3878 1.24763,0.699219 2.798829,0.699219 h 0.0918 c 0.06657,0.525572 0.170346,1.045758 0.310547,1.55664 L 33.123047,44.5 h 2.25 c -0.332863,-0.958473 -0.503178,-1.965842 -0.503906,-2.980469 0.0011,-1.370554 0.311504,-2.723188 0.908203,-3.957031 l 0.701172,-1.210938 C 38.088498,34.034289 40.681874,32.594406 43.5,32.453125 v -4.933594 z" />
  <rect
     style="opacity:0.2;fill:none;stroke:url(#linearGradient3058-5-8-4);stroke-width:1;stroke-linecap:round;stroke-linejoin:round;stroke-miterlimit:4;stroke-dasharray:none;stroke-dashoffset:0;stroke-opacity:1"
     id="rect6741-2"
     y="6.4999952"
     x="5.5000153"
     ry="3"
     rx="3"
     height="37"
     width="37" />
</svg>
