<?xml version="1.0" encoding="UTF-8" standalone="no"?>
<svg
   id="svg13986"
   height="64"
   width="64"
   version="1.1"
   xmlns:xlink="http://www.w3.org/1999/xlink"
   xmlns="http://www.w3.org/2000/svg"
   xmlns:svg="http://www.w3.org/2000/svg"
   xmlns:rdf="http://www.w3.org/1999/02/22-rdf-syntax-ns#"
   xmlns:cc="http://creativecommons.org/ns#"
   xmlns:dc="http://purl.org/dc/elements/1.1/">
  <defs
     id="defs13988">
    <linearGradient
       id="linearGradient3924-2-2-5-8">
      <stop
         offset="0"
         style="stop-color:#ffffff;stop-opacity:1"
         id="stop3926-9-4-9-6" />
      <stop
         offset="0.06316455"
         style="stop-color:#ffffff;stop-opacity:0.23529412"
         id="stop3928-9-8-6-5" />
      <stop
         offset="0.95056331"
         style="stop-color:#ffffff;stop-opacity:0.15686275"
         id="stop3930-3-5-1-7" />
      <stop
         offset="1"
         style="stop-color:#ffffff;stop-opacity:0.39215687"
         id="stop3932-8-0-4-8" />
    </linearGradient>
    <linearGradient
       id="linearGradient3688-166-749-4-0-3-8">
      <stop
         offset="0"
         style="stop-color:#181818;stop-opacity:1"
         id="stop2883-4-0-1-8" />
      <stop
         offset="1"
         style="stop-color:#181818;stop-opacity:0"
         id="stop2885-9-2-9-6" />
    </linearGradient>
    <linearGradient
       id="linearGradient3702-501-757-8-4-1-1">
      <stop
         offset="0"
         style="stop-color:#181818;stop-opacity:0"
         id="stop2895-8-9-9-1" />
      <stop
         offset="0.5"
         style="stop-color:#181818;stop-opacity:1"
         id="stop2897-7-8-7-7" />
      <stop
         offset="1"
         style="stop-color:#181818;stop-opacity:0"
         id="stop2899-4-5-1-5" />
    </linearGradient>
    <linearGradient
       id="linearGradient149777">
      <stop
         style="stop-color:#fafafa;stop-opacity:1"
         offset="0"
         id="stop149769" />
      <stop
         style="stop-color:#abacae;stop-opacity:1"
         offset="0.42301154"
         id="stop149771" />
      <stop
         style="stop-color:#d4d4d4;stop-opacity:1"
         offset="0.7009123"
         id="stop149773" />
      <stop
         style="stop-color:#7e8087;stop-opacity:1"
         offset="1"
         id="stop149775" />
    </linearGradient>
    <linearGradient
       id="linearGradient55160">
      <stop
         style="stop-color:#4d4d4d;stop-opacity:1"
         offset="0"
         id="stop55156" />
      <stop
         style="stop-color:#333333;stop-opacity:1"
         offset="1"
         id="stop55158" />
    </linearGradient>
    <linearGradient
       xlink:href="#linearGradient149777"
       id="linearGradient175380"
       gradientUnits="userSpaceOnUse"
       gradientTransform="rotate(180,44.5,123)"
       x1="74.881271"
       y1="172.83885"
       x2="97.295143"
       y2="207.14944"
       spreadMethod="reflect" />
    <linearGradient
       xlink:href="#linearGradient149777"
       id="linearGradient175327"
       gradientUnits="userSpaceOnUse"
       gradientTransform="rotate(180,73.5,123)"
       x1="74.881271"
       y1="172.83885"
       x2="97.295143"
       y2="207.14944"
       spreadMethod="reflect" />
    <linearGradient
       xlink:href="#linearGradient149777"
       id="linearGradient175145"
       gradientUnits="userSpaceOnUse"
       gradientTransform="translate(-54,-158)"
       x1="74.881271"
       y1="172.83885"
       x2="97.295143"
       y2="207.14944"
       spreadMethod="reflect" />
    <linearGradient
       xlink:href="#linearGradient3924-2-2-5-8"
       id="linearGradient175141"
       gradientUnits="userSpaceOnUse"
       gradientTransform="matrix(1.4324324,0,0,1.4362832,-2.37838,-2.47078)"
       x1="23.99999"
       y1="4.999989"
       x2="23.99999"
       y2="43" />
    <linearGradient
       xlink:href="#linearGradient55160"
       id="linearGradient175139"
       gradientUnits="userSpaceOnUse"
       gradientTransform="matrix(0.69230783,0,0,0.69230789,-130.6154,-97.30769)"
       x1="234.83813"
       y1="147.47194"
       x2="234.83813"
       y2="227.72983" />
    <linearGradient
       xlink:href="#linearGradient3702-501-757-8-4-1-1"
       id="linearGradient175137"
       gradientUnits="userSpaceOnUse"
       gradientTransform="matrix(1.5714286,0,0,0.7142857,-5.71429,27.92857)"
       x1="25.058096"
       y1="47.027729"
       x2="25.058096"
       y2="39.999443" />
    <radialGradient
       cx="4.9929786"
       cy="43.5"
       r="2.5"
       fx="4.9929786"
       fy="43.5"
       id="radialGradient3339-1-4-2-1"
       xlink:href="#linearGradient3688-166-749-4-0-3-8"
       gradientUnits="userSpaceOnUse"
       gradientTransform="matrix(2.4045407,0,0,0.99999998,-22.01424,-102.5)" />
    <radialGradient
       cx="4.9929786"
       cy="43.5"
       r="2.5"
       fx="4.9929786"
       fy="43.5"
       id="radialGradient3337-2-2-4-5"
       xlink:href="#linearGradient3688-166-749-4-0-3-8"
       gradientUnits="userSpaceOnUse"
       gradientTransform="matrix(2.4045407,0,0,0.99999998,41.98575,15.5)" />
  </defs>
  <metadata
     id="metadata13991">
    <rdf:RDF>
      <cc:Work
         rdf:about="">
        <dc:format>image/svg+xml</dc:format>
        <dc:type
           rdf:resource="http://purl.org/dc/dcmitype/StillImage" />
      </cc:Work>
    </rdf:RDF>
  </metadata>
  <rect
     style="opacity:0.6;fill:url(#radialGradient3337-2-2-4-5);fill-opacity:1;stroke:none;stroke-width:1.06199"
     id="rect2801-5-5-7-9-6-8"
     y="56.5"
     x="54"
     height="5"
     width="6" />
  <rect
     style="opacity:0.6;fill:url(#radialGradient3339-1-4-2-1);fill-opacity:1;stroke:none;stroke-width:1.06199"
     id="rect3696-3-0-3-7-3-4"
     transform="scale(-1)"
     y="-61.5"
     x="-10"
     height="5"
     width="6" />
  <rect
     style="opacity:0.6;fill:url(#linearGradient175137);fill-opacity:1;stroke:none;stroke-width:1.06199"
     id="rect3700-5-6-8-4-8-7"
     y="56.5"
     x="10"
     height="5.0000005"
     width="44" />
  <rect
     style="color:#000000;font-variation-settings:normal;display:inline;overflow:visible;visibility:visible;fill:url(#linearGradient175139);fill-opacity:1;fill-rule:nonzero;stroke:#040404;stroke-width:0.999998;stroke-linecap:butt;stroke-linejoin:miter;stroke-miterlimit:4;stroke-dasharray:none;stroke-dashoffset:0;stroke-opacity:0.5;marker:none;enable-background:accumulate;stop-color:#000000"
     id="rect5505-21-1-5-5-2"
     y="4.5"
     x="4.5"
     ry="6"
     rx="6"
     height="55"
     width="55" />
  <rect
     style="opacity:0.2;fill:none;stroke:url(#linearGradient175141);stroke-width:1;stroke-linecap:round;stroke-linejoin:round;stroke-miterlimit:4;stroke-dasharray:none;stroke-dashoffset:0;stroke-opacity:1"
     id="rect6741-5-0-2-3-6-4"
     y="5.428772"
     x="5.5"
     ry="5"
     height="53.142479"
     width="53"
     rx="5" />
  <path
     id="rect48996-8-9-6-9"
     style="font-variation-settings:normal;fill:url(#linearGradient175145);fill-opacity:1;stroke:none;stroke-width:0.999997;stroke-linecap:round;stroke-linejoin:round;stroke-miterlimit:4;stroke-dasharray:none;stroke-dashoffset:0;stroke-opacity:0.5;stop-color:#000000"
     d="m 31,12 c -0.554,0 -1,1.784 -1,4 v 0.14258 a 16,16 0 0 0 -2.2207,0.44336 l -0.0547,-0.13282 c -0.84803,-2.04731 -1.94325,-3.52449 -2.45508,-3.3125 l -1.84766,0.76368 c -0.51183,0.212 -0.2406,2.03081 0.60742,4.07812 l 0.0625,0.15235 a 16,16 0 0 0 -1.875,1.2539 L 22.0996,19.27148 c -1.56695,-1.56694 -3.14342,-2.51283 -3.53516,-2.12109 l -1.41406,1.41406 c -0.39174,0.39174 0.55414,1.96821 2.12109,3.53516 l 0.11719,0.11719 a 16,16 0 0 0 -1.25391,1.875 l -0.15234,-0.0625 c -2.04732,-0.84803 -3.86612,-1.11926 -4.07813,-0.60742 l -0.76367,1.84765 c -0.212,0.51183 1.26519,1.60705 3.3125,2.45508 l 0.13282,0.0547 A 16,16 0 0 0 16.14258,30 H 16 c -2.216,0 -4,0.446 -4,1 v 2 c 0,0.554 1.784,1 4,1 h 0.14258 a 16,16 0 0 0 0.44336,2.2207 l -0.13282,0.0547 c -2.04731,0.84803 -3.5245,1.94325 -3.3125,2.45508 l 0.76368,1.84765 c 0.212,0.51183 2.03081,0.24061 4.07812,-0.60742 l 0.15235,-0.0625 a 16,16 0 0 0 1.2539,1.875 l -0.11719,0.11719 c -1.56694,1.56695 -2.51283,3.14342 -2.12109,3.53516 l 1.41406,1.41406 c 0.39174,0.39174 1.96821,-0.55415 3.53516,-2.12109 l 0.11719,-0.11719 a 16,16 0 0 0 1.875,1.2539 l -0.0625,0.15235 c -0.84803,2.04731 -1.11925,3.86612 -0.60743,4.07812 l 1.84766,0.76368 c 0.51183,0.212 1.60705,-1.2652 2.45508,-3.3125 l 0.0547,-0.13282 A 16,16 0 0 0 30,47.85742 V 48 c 0,2.216 0.446,4 1,4 h 2 c 0.554,0 1,-1.784 1,-4 v -0.14258 a 16,16 0 0 0 2.2207,-0.44336 l 0.0547,0.13282 c 0.84803,2.04731 1.94325,3.52449 2.45508,3.3125 l 1.84766,-0.76368 c 0.51183,-0.212 0.2406,-2.03081 -0.60743,-4.07812 l -0.0625,-0.15235 a 16,16 0 0 0 1.875,-1.2539 l 0.11719,0.11719 c 1.56695,1.56694 3.14342,2.51283 3.53516,2.12109 l 1.41406,-1.41406 c 0.39174,-0.39174 -0.55415,-1.96821 -2.12109,-3.53516 L 44.61134,41.7832 a 16,16 0 0 0 1.25391,-1.875 l 0.15234,0.0625 c 2.04731,0.84803 3.86612,1.11926 4.07812,0.60742 l 0.76368,-1.84765 c 0.212,-0.51183 -1.26521,-1.60705 -3.3125,-2.45508 l -0.13282,-0.0547 A 16,16 0 0 0 47.85742,34 H 48 c 2.216,0 4,-0.446 4,-1 v -2 c 0,-0.554 -1.784,-1 -4,-1 h -0.13086 a 16,16 0 0 0 -0.44336,-2.22461 l 0.1211,-0.0508 c 2.04729,-0.84803 3.52449,-1.94325 3.3125,-2.45508 L 50.0957,23.42186 c -0.212,-0.51183 -2.03081,-0.24061 -4.07812,0.60742 l -0.11914,0.0488 a 16,16 0 0 0 -1.26172,-1.88671 l 0.0918,-0.0918 c 1.56694,-1.56695 2.51283,-3.14342 2.12109,-3.53516 l -1.41406,-1.41406 c -0.39174,-0.39174 -1.96821,0.55415 -3.53516,2.12109 l -0.0918,0.0918 a 16,16 0 0 0 -1.88672,-1.26172 l 0.0488,-0.11914 c 0.84803,-2.04731 1.11926,-3.86612 0.60743,-4.07812 l -1.84766,-0.76368 c -0.51183,-0.212 -1.60705,1.2652 -2.45508,3.3125 l -0.0508,0.1211 A 16,16 0 0 0 34,16.13086 V 16 c 0,-2.216 -0.446,-4 -1,-4 z m 2,7.03516 A 13.007048,13.007048 0 0 1 45.00781,32 13.007048,13.007048 0 0 1 43.70898,37.65234 l -7.84961,-4.5332 A 4.0191612,4.0191612 0 0 0 36.01953,32 4.0191612,4.0191612 0 0 0 33,28.10742 Z m -2,0.0449 v 9.03515 A 4.0191612,4.0191612 0 0 0 27.98047,32 a 4.0191612,4.0191612 0 0 0 0.16015,1.11914 l -7.8125,4.51172 A 13.007048,13.007048 0 0 1 18.99219,32 13.007048,13.007048 0 0 1 31,19.08008 Z M 32,30 a 2,2 0 0 1 2,2 2,2 0 0 1 -2,2 2,2 0 0 1 -2,-2 2,2 0 0 1 2,-2 z m -2.83398,4.83594 A 4.0191612,4.0191612 0 0 0 32,36.01953 4.0191612,4.0191612 0 0 0 34.83398,34.83594 l 7.875,4.54687 A 13.007048,13.007048 0 0 1 32,45.00781 13.007048,13.007048 0 0 1 21.33398,39.35938 Z" />
  <path
     id="rect48996-8-9-6-9-0"
     style="font-variation-settings:normal;fill:url(#linearGradient175327);fill-opacity:1;stroke:none;stroke-width:0.999997;stroke-linecap:round;stroke-linejoin:round;stroke-miterlimit:4;stroke-dasharray:none;stroke-dashoffset:0;stroke-opacity:0.5;stop-color:#000000"
     d="M 59.5,36.55078 C 59.20172,37.24151 59,38.51672 59,40 v 0.14258 c -0.74978,0.0951 -1.49187,0.24331 -2.2207,0.44336 l -0.0547,-0.13282 c -0.84803,-2.0473 -1.94325,-3.52449 -2.45508,-3.3125 l -1.84765,0.76368 c -0.51184,0.212 -0.24061,2.03081 0.60742,4.07812 l 0.0625,0.15235 c -0.65372,0.37334 -1.28028,0.79234 -1.875,1.2539 L 51.0996,43.27148 c -1.56695,-1.56694 -3.14342,-2.51283 -3.53516,-2.12109 l -1.41406,1.41406 c -0.39174,0.39174 0.55415,1.96821 2.12109,3.53516 l 0.11719,0.11719 c -0.46156,0.59472 -0.88056,1.22128 -1.2539,1.875 L 46.98241,48.0293 C 44.9351,47.18127 43.11629,46.91003 42.90429,47.42188 l -0.76368,1.84765 c -0.21199,0.51183 1.26522,1.60705 3.3125,2.45508 l 0.13282,0.0547 c -0.20005,0.72883 -0.34821,1.47092 -0.44336,2.2207 H 45 c -2.216,0 -4,0.446 -4,1 v 2 c 0,0.554 1.784,1 4,1 h 0.13086 c 0.0756,0.50448 0.17537,1.00505 0.29883,1.5 h 3.08593 c -0.33311,-1.13737 -0.50922,-2.31494 -0.52343,-3.5 0.002,-1.95785 0.446,-3.88999 1.29883,-5.65234 l 1,-1.73047 C 52.42586,45.5431 55.78145,43.53758 59.5,43.11329 Z" />
  <path
     id="rect48996-8-9-6-9-0-9"
     style="font-variation-settings:normal;fill:url(#linearGradient175380);fill-opacity:1;stroke:none;stroke-width:0.999997;stroke-linecap:round;stroke-linejoin:round;stroke-miterlimit:4;stroke-dasharray:none;stroke-dashoffset:0;stroke-opacity:0.5;stop-color:#000000"
     d="m 4.5,36.55078 v 6.57031 c 3.70564,0.43982 7.0439,2.45003 9.16602,5.51953 l 1.00586,1.72852 c 0.86251,1.75282 1.31912,3.6774 1.33593,5.63086 -0.0237,1.18642 -0.20969,2.36401 -0.55273,3.5 h 3.10351 c 0.12346,-0.49495 0.22319,-0.99552 0.29883,-1.5 H 19 c 2.216,0 4,-0.446 4,-1 v -2 c 0,-0.554 -1.784,-1 -4,-1 h -0.14258 c -0.0951,-0.74978 -0.24331,-1.49187 -0.44336,-2.2207 l 0.13282,-0.0547 c 2.04731,-0.84803 3.52449,-1.94325 3.3125,-2.45508 L 21.0957,47.42187 c -0.212,-0.51183 -2.03081,-0.24061 -4.07812,0.60742 l -0.15235,0.0625 c -0.37334,-0.65372 -0.79234,-1.28028 -1.2539,-1.875 l 0.11719,-0.11719 c 1.56694,-1.56695 2.51283,-3.14342 2.12109,-3.53516 l -1.41406,-1.41406 c -0.39174,-0.39174 -1.96821,0.55415 -3.53516,2.12109 l -0.11719,0.11719 c -0.59472,-0.46156 -1.22128,-0.88056 -1.875,-1.2539 l 0.0625,-0.15235 c 0.84803,-2.04731 1.11925,-3.86612 0.60742,-4.07812 L 9.73047,37.14061 c -0.51183,-0.21199 -1.60705,1.26521 -2.45508,3.3125 l -0.0547,0.13282 C 6.49186,40.38588 5.74977,40.23772 4.99999,40.14257 V 40 c 0,-1.48328 -0.20172,-2.75849 -0.5,-3.44922 z" />
</svg>
